<ttFont>
    <TTGlyph name="A" xMin="2" yMin="0" xMax="666" yMax="649">
      <contour>
        <pt x="666" y="0" on="1"/>
        <pt x="508" y="0" on="1"/>
        <pt x="450" y="171" on="1"/>
        <pt x="213" y="171" on="1"/>
        <pt x="156" y="0" on="1"/>
        <pt x="2" y="0" on="1"/>
        <pt x="242" y="649" on="1"/>
        <pt x="432" y="649" on="1"/>
      </contour>
      <contour>
        <pt x="416" y="275" on="1"/>
        <pt x="334" y="519" on="1"/>
        <pt x="330" y="519" on="1"/>
        <pt x="248" y="275" on="1"/>
      </contour>
    </TTGlyph>
    <TTGlyph name="AE" xMin="0" yMin="0" xMax="955" yMax="649">
      <contour>
        <pt x="955" y="0" on="1"/>
        <pt x="470" y="0" on="1"/>
        <pt x="470" y="171" on="1"/>
        <pt x="245" y="171" on="1"/>
        <pt x="166" y="0" on="1"/>
        <pt x="0" y="0" on="1"/>
        <pt x="330" y="649" on="1"/>
        <pt x="945" y="649" on="1"/>
        <pt x="945" y="538" on="1"/>
        <pt x="623" y="538" on="1"/>
        <pt x="623" y="389" on="1"/>
        <pt x="912" y="389" on="1"/>
        <pt x="912" y="278" on="1"/>
        <pt x="623" y="278" on="1"/>
        <pt x="623" y="111" on="1"/>
        <pt x="955" y="111" on="1"/>
      </contour>
      <contour>
        <pt x="470" y="275" on="1"/>
        <pt x="470" y="538" on="1"/>
        <pt x="413" y="538" on="1"/>
        <pt x="292" y="275" on="1"/>
      </contour>
    </TTGlyph>
    <TTGlyph name="Aacute" xMin="2" yMin="0" xMax="666" yMax="830">
      <contour>
        <pt x="666" y="0" on="1"/>
        <pt x="508" y="0" on="1"/>
        <pt x="450" y="171" on="1"/>
        <pt x="213" y="171" on="1"/>
        <pt x="156" y="0" on="1"/>
        <pt x="2" y="0" on="1"/>
        <pt x="242" y="649" on="1"/>
        <pt x="432" y="649" on="1"/>
      </contour>
      <contour>
        <pt x="416" y="275" on="1"/>
        <pt x="334" y="519" on="1"/>
        <pt x="330" y="519" on="1"/>
        <pt x="248" y="275" on="1"/>
      </contour>
      <contour>
        <pt x="519" y="830" on="1"/>
        <pt x="394" y="703" on="1"/>
        <pt x="270" y="703" on="1"/>
        <pt x="360" y="830" on="1"/>
      </contour>
    </TTGlyph>
    <TTGlyph name="Abreve" xMin="2" yMin="0" xMax="666" yMax="845">
      <contour>
        <pt x="666" y="0" on="1"/>
        <pt x="508" y="0" on="1"/>
        <pt x="450" y="171" on="1"/>
        <pt x="213" y="171" on="1"/>
        <pt x="156" y="0" on="1"/>
        <pt x="2" y="0" on="1"/>
        <pt x="242" y="649" on="1"/>
        <pt x="432" y="649" on="1"/>
      </contour>
      <contour>
        <pt x="416" y="275" on="1"/>
        <pt x="334" y="519" on="1"/>
        <pt x="330" y="519" on="1"/>
        <pt x="248" y="275" on="1"/>
      </contour>
      <contour>
        <pt x="472" y="845" on="1"/>
        <pt x="468" y="788" on="0"/>
        <pt x="395" y="718" on="0"/>
        <pt x="334" y="718" on="1"/>
        <pt x="272" y="718" on="0"/>
        <pt x="199" y="788" on="0"/>
        <pt x="196" y="845" on="1"/>
        <pt x="277" y="845" on="1"/>
        <pt x="283" y="816" on="0"/>
        <pt x="307" y="790" on="0"/>
        <pt x="334" y="790" on="1"/>
        <pt x="384" y="790" on="0"/>
        <pt x="390" y="845" on="1"/>
      </contour>
    </TTGlyph>
    <TTGlyph name="Acircumflex" xMin="2" yMin="0" xMax="666" yMax="830">
      <contour>
        <pt x="666" y="0" on="1"/>
        <pt x="508" y="0" on="1"/>
        <pt x="450" y="171" on="1"/>
        <pt x="213" y="171" on="1"/>
        <pt x="156" y="0" on="1"/>
        <pt x="2" y="0" on="1"/>
        <pt x="242" y="649" on="1"/>
        <pt x="432" y="649" on="1"/>
      </contour>
      <contour>
        <pt x="416" y="275" on="1"/>
        <pt x="334" y="519" on="1"/>
        <pt x="330" y="519" on="1"/>
        <pt x="248" y="275" on="1"/>
      </contour>
      <contour>
        <pt x="491" y="703" on="1"/>
        <pt x="393" y="703" on="1"/>
        <pt x="340" y="790" on="1"/>
        <pt x="288" y="703" on="1"/>
        <pt x="190" y="703" on="1"/>
        <pt x="246" y="830" on="1"/>
        <pt x="433" y="830" on="1"/>
      </contour>
    </TTGlyph>
    <TTGlyph name="Adieresis" xMin="2" yMin="0" xMax="666" yMax="833">
      <contour>
        <pt x="666" y="0" on="1"/>
        <pt x="508" y="0" on="1"/>
        <pt x="450" y="171" on="1"/>
        <pt x="213" y="171" on="1"/>
        <pt x="156" y="0" on="1"/>
        <pt x="2" y="0" on="1"/>
        <pt x="242" y="649" on="1"/>
        <pt x="432" y="649" on="1"/>
      </contour>
      <contour>
        <pt x="416" y="275" on="1"/>
        <pt x="334" y="519" on="1"/>
        <pt x="330" y="519" on="1"/>
        <pt x="248" y="275" on="1"/>
      </contour>
      <contour>
        <pt x="491" y="715" on="1"/>
        <pt x="365" y="715" on="1"/>
        <pt x="365" y="833" on="1"/>
        <pt x="491" y="833" on="1"/>
      </contour>
      <contour>
        <pt x="301" y="715" on="1"/>
        <pt x="175" y="715" on="1"/>
        <pt x="175" y="833" on="1"/>
        <pt x="301" y="833" on="1"/>
      </contour>
    </TTGlyph>
    <TTGlyph name="Agrave" xMin="2" yMin="0" xMax="666" yMax="820">
      <contour>
        <pt x="666" y="0" on="1"/>
        <pt x="508" y="0" on="1"/>
        <pt x="450" y="171" on="1"/>
        <pt x="213" y="171" on="1"/>
        <pt x="156" y="0" on="1"/>
        <pt x="2" y="0" on="1"/>
        <pt x="242" y="649" on="1"/>
        <pt x="432" y="649" on="1"/>
      </contour>
      <contour>
        <pt x="416" y="275" on="1"/>
        <pt x="334" y="519" on="1"/>
        <pt x="330" y="519" on="1"/>
        <pt x="248" y="275" on="1"/>
      </contour>
      <contour>
        <pt x="409" y="693" on="1"/>
        <pt x="285" y="693" on="1"/>
        <pt x="160" y="820" on="1"/>
        <pt x="319" y="820" on="1"/>
      </contour>
    </TTGlyph>
    <TTGlyph name="Alpha" xMin="2" yMin="0" xMax="666" yMax="649">
      <contour>
        <pt x="666" y="0" on="1"/>
        <pt x="508" y="0" on="1"/>
        <pt x="450" y="171" on="1"/>
        <pt x="213" y="171" on="1"/>
        <pt x="156" y="0" on="1"/>
        <pt x="2" y="0" on="1"/>
        <pt x="242" y="649" on="1"/>
        <pt x="432" y="649" on="1"/>
      </contour>
      <contour>
        <pt x="416" y="275" on="1"/>
        <pt x="334" y="519" on="1"/>
        <pt x="330" y="519" on="1"/>
        <pt x="248" y="275" on="1"/>
      </contour>
    </TTGlyph>
    <TTGlyph name="Alphatonos" xMin="0" yMin="0" xMax="711" yMax="658">
      <contour>
        <pt x="711" y="0" on="1"/>
        <pt x="553" y="0" on="1"/>
        <pt x="495" y="171" on="1"/>
        <pt x="258" y="171" on="1"/>
        <pt x="201" y="0" on="1"/>
        <pt x="47" y="0" on="1"/>
        <pt x="287" y="649" on="1"/>
        <pt x="477" y="649" on="1"/>
      </contour>
      <contour>
        <pt x="461" y="275" on="1"/>
        <pt x="379" y="519" on="1"/>
        <pt x="375" y="519" on="1"/>
        <pt x="293" y="275" on="1"/>
      </contour>
      <contour>
        <pt x="125" y="486" on="1"/>
        <pt x="39" y="486" on="1"/>
        <pt x="0" y="658" on="1"/>
        <pt x="164" y="658" on="1"/>
      </contour>
    </TTGlyph>
    <TTGlyph name="Amacron" xMin="2" yMin="0" xMax="666" yMax="814">
      <contour>
        <pt x="666" y="0" on="1"/>
        <pt x="508" y="0" on="1"/>
        <pt x="450" y="171" on="1"/>
        <pt x="213" y="171" on="1"/>
        <pt x="156" y="0" on="1"/>
        <pt x="2" y="0" on="1"/>
        <pt x="242" y="649" on="1"/>
        <pt x="432" y="649" on="1"/>
      </contour>
      <contour>
        <pt x="416" y="275" on="1"/>
        <pt x="334" y="519" on="1"/>
        <pt x="330" y="519" on="1"/>
        <pt x="248" y="275" on="1"/>
      </contour>
      <contour>
        <pt x="473" y="725" on="1"/>
        <pt x="195" y="725" on="1"/>
        <pt x="195" y="814" on="1"/>
        <pt x="473" y="814" on="1"/>
      </contour>
    </TTGlyph>
    <TTGlyph name="Aogonek" xMin="2" yMin="-186" xMax="666" yMax="649">
      <contour>
        <pt x="582" y="-186" on="1"/>
        <pt x="537" y="-186" on="0"/>
        <pt x="483" y="-144" on="0"/>
        <pt x="483" y="-106" on="1"/>
        <pt x="483" y="-48" on="0"/>
        <pt x="508" y="0" on="1"/>
        <pt x="450" y="171" on="1"/>
        <pt x="213" y="171" on="1"/>
        <pt x="156" y="0" on="1"/>
        <pt x="2" y="0" on="1"/>
        <pt x="242" y="649" on="1"/>
        <pt x="432" y="649" on="1"/>
        <pt x="666" y="0" on="1"/>
        <pt x="595" y="-25" on="0"/>
        <pt x="595" y="-86" on="1"/>
        <pt x="595" y="-115" on="0"/>
        <pt x="622" y="-115" on="1"/>
        <pt x="634" y="-115" on="0"/>
        <pt x="652" y="-109" on="1"/>
        <pt x="652" y="-176" on="1"/>
        <pt x="631" y="-186" on="0"/>
      </contour>
      <contour>
        <pt x="416" y="275" on="1"/>
        <pt x="334" y="519" on="1"/>
        <pt x="330" y="519" on="1"/>
        <pt x="248" y="275" on="1"/>
      </contour>
    </TTGlyph>
    <TTGlyph name="Aring" xMin="3" yMin="0" xMax="667" yMax="785">
      <contour>
        <pt x="667" y="0" on="1"/>
        <pt x="509" y="0" on="1"/>
        <pt x="451" y="171" on="1"/>
        <pt x="214" y="171" on="1"/>
        <pt x="156" y="0" on="1"/>
        <pt x="3" y="0" on="1"/>
        <pt x="214" y="571" on="1"/>
        <pt x="176" y="594" on="0"/>
        <pt x="176" y="649" on="1"/>
        <pt x="176" y="681" on="1"/>
        <pt x="176" y="716" on="0"/>
        <pt x="201" y="761" on="0"/>
        <pt x="253" y="780" on="0"/>
        <pt x="298" y="785" on="0"/>
        <pt x="372" y="785" on="0"/>
        <pt x="417" y="780" on="0"/>
        <pt x="469" y="761" on="0"/>
        <pt x="494" y="716" on="0"/>
        <pt x="494" y="681" on="1"/>
        <pt x="494" y="649" on="1"/>
        <pt x="494" y="597" on="0"/>
        <pt x="460" y="574" on="1"/>
      </contour>
      <contour>
        <pt x="405" y="642" on="1"/>
        <pt x="405" y="679" on="1"/>
        <pt x="405" y="708" on="0"/>
        <pt x="381" y="723" on="0"/>
        <pt x="289" y="723" on="0"/>
        <pt x="265" y="708" on="0"/>
        <pt x="265" y="679" on="1"/>
        <pt x="265" y="642" on="1"/>
        <pt x="265" y="618" on="0"/>
        <pt x="294" y="603" on="0"/>
        <pt x="376" y="603" on="0"/>
        <pt x="405" y="618" on="0"/>
      </contour>
      <contour>
        <pt x="417" y="275" on="1"/>
        <pt x="335" y="519" on="1"/>
        <pt x="330" y="519" on="1"/>
        <pt x="248" y="275" on="1"/>
      </contour>
    </TTGlyph>
    <TTGlyph name="Atilde" xMin="2" yMin="0" xMax="666" yMax="833">
      <contour>
        <pt x="666" y="0" on="1"/>
        <pt x="508" y="0" on="1"/>
        <pt x="450" y="171" on="1"/>
        <pt x="213" y="171" on="1"/>
        <pt x="156" y="0" on="1"/>
        <pt x="2" y="0" on="1"/>
        <pt x="242" y="649" on="1"/>
        <pt x="432" y="649" on="1"/>
      </contour>
      <contour>
        <pt x="416" y="275" on="1"/>
        <pt x="334" y="519" on="1"/>
        <pt x="330" y="519" on="1"/>
        <pt x="248" y="275" on="1"/>
      </contour>
      <contour>
        <pt x="511" y="830" on="1"/>
        <pt x="510" y="716" on="0"/>
        <pt x="401" y="716" on="1"/>
        <pt x="371" y="716" on="0"/>
        <pt x="290" y="757" on="0"/>
        <pt x="289" y="757" on="1"/>
        <pt x="255" y="757" on="0"/>
        <pt x="253" y="727" on="1"/>
        <pt x="180" y="727" on="1"/>
        <pt x="181" y="786" on="0"/>
        <pt x="241" y="833" on="0"/>
        <pt x="296" y="833" on="1"/>
        <pt x="324" y="833" on="0"/>
        <pt x="399" y="795" on="0"/>
        <pt x="406" y="795" on="1"/>
        <pt x="439" y="795" on="0"/>
        <pt x="439" y="830" on="1"/>
      </contour>
    </TTGlyph>
    <TTGlyph name="B" xMin="70" yMin="0" xMax="598" yMax="649">
      <contour>
        <pt x="598" y="245" on="1"/>
        <pt x="598" y="145" on="1"/>
        <pt x="598" y="64" on="0"/>
        <pt x="468" y="0" on="0"/>
        <pt x="340" y="0" on="1"/>
        <pt x="70" y="0" on="1"/>
        <pt x="70" y="649" on="1"/>
        <pt x="333" y="649" on="1"/>
        <pt x="471" y="649" on="0"/>
        <pt x="569" y="587" on="0"/>
        <pt x="569" y="510" on="1"/>
        <pt x="569" y="430" on="1"/>
        <pt x="569" y="402" on="0"/>
        <pt x="525" y="354" on="0"/>
        <pt x="497" y="346" on="1"/>
        <pt x="497" y="341" on="1"/>
        <pt x="533" y="337" on="0"/>
        <pt x="598" y="281" on="0"/>
      </contour>
      <contour>
        <pt x="419" y="450" on="1"/>
        <pt x="419" y="482" on="1"/>
        <pt x="419" y="514" on="0"/>
        <pt x="389" y="538" on="0"/>
        <pt x="330" y="538" on="1"/>
        <pt x="226" y="538" on="1"/>
        <pt x="226" y="385" on="1"/>
        <pt x="333" y="385" on="1"/>
        <pt x="388" y="385" on="0"/>
        <pt x="419" y="413" on="0"/>
      </contour>
      <contour>
        <pt x="442" y="166" on="1"/>
        <pt x="442" y="218" on="1"/>
        <pt x="442" y="254" on="0"/>
        <pt x="405" y="284" on="0"/>
        <pt x="358" y="284" on="1"/>
        <pt x="226" y="284" on="1"/>
        <pt x="226" y="111" on="1"/>
        <pt x="337" y="111" on="1"/>
        <pt x="394" y="111" on="0"/>
        <pt x="442" y="137" on="0"/>
      </contour>
    </TTGlyph>
    <TTGlyph name="Beta" xMin="70" yMin="0" xMax="598" yMax="649">
      <contour>
        <pt x="598" y="245" on="1"/>
        <pt x="598" y="145" on="1"/>
        <pt x="598" y="64" on="0"/>
        <pt x="468" y="0" on="0"/>
        <pt x="340" y="0" on="1"/>
        <pt x="70" y="0" on="1"/>
        <pt x="70" y="649" on="1"/>
        <pt x="333" y="649" on="1"/>
        <pt x="471" y="649" on="0"/>
        <pt x="569" y="587" on="0"/>
        <pt x="569" y="510" on="1"/>
        <pt x="569" y="430" on="1"/>
        <pt x="569" y="402" on="0"/>
        <pt x="525" y="354" on="0"/>
        <pt x="497" y="346" on="1"/>
        <pt x="497" y="341" on="1"/>
        <pt x="533" y="337" on="0"/>
        <pt x="598" y="281" on="0"/>
      </contour>
      <contour>
        <pt x="419" y="450" on="1"/>
        <pt x="419" y="482" on="1"/>
        <pt x="419" y="514" on="0"/>
        <pt x="389" y="538" on="0"/>
        <pt x="330" y="538" on="1"/>
        <pt x="226" y="538" on="1"/>
        <pt x="226" y="385" on="1"/>
        <pt x="333" y="385" on="1"/>
        <pt x="388" y="385" on="0"/>
        <pt x="419" y="413" on="0"/>
      </contour>
      <contour>
        <pt x="442" y="166" on="1"/>
        <pt x="442" y="218" on="1"/>
        <pt x="442" y="254" on="0"/>
        <pt x="405" y="284" on="0"/>
        <pt x="358" y="284" on="1"/>
        <pt x="226" y="284" on="1"/>
        <pt x="226" y="111" on="1"/>
        <pt x="337" y="111" on="1"/>
        <pt x="394" y="111" on="0"/>
        <pt x="442" y="137" on="0"/>
      </contour>
    </TTGlyph>
    <TTGlyph name="C" xMin="56" yMin="-10" xMax="567" yMax="659">
      <contour>
        <pt x="567" y="12" on="1"/>
        <pt x="457" y="-10" on="0"/>
        <pt x="357" y="-10" on="1"/>
        <pt x="317" y="-10" on="0"/>
        <pt x="246" y="-3" on="0"/>
        <pt x="159" y="20" on="0"/>
        <pt x="98" y="59" on="0"/>
        <pt x="56" y="130" on="0"/>
        <pt x="56" y="178" on="1"/>
        <pt x="56" y="463" on="1"/>
        <pt x="56" y="659" on="0"/>
        <pt x="357" y="659" on="1"/>
        <pt x="431" y="659" on="0"/>
        <pt x="563" y="637" on="1"/>
        <pt x="563" y="520" on="1"/>
        <pt x="444" y="548" on="0"/>
        <pt x="359" y="548" on="1"/>
        <pt x="325" y="548" on="0"/>
        <pt x="282" y="544" on="0"/>
        <pt x="235" y="528" on="0"/>
        <pt x="212" y="493" on="0"/>
        <pt x="212" y="465" on="1"/>
        <pt x="212" y="189" on="1"/>
        <pt x="212" y="101" on="0"/>
        <pt x="373" y="101" on="1"/>
        <pt x="444" y="101" on="0"/>
        <pt x="567" y="130" on="1"/>
      </contour>
    </TTGlyph>
    <TTGlyph name="Cacute" xMin="56" yMin="-10" xMax="567" yMax="845">
      <contour>
        <pt x="567" y="12" on="1"/>
        <pt x="457" y="-10" on="0"/>
        <pt x="357" y="-10" on="1"/>
        <pt x="317" y="-10" on="0"/>
        <pt x="246" y="-3" on="0"/>
        <pt x="159" y="20" on="0"/>
        <pt x="98" y="59" on="0"/>
        <pt x="56" y="130" on="0"/>
        <pt x="56" y="178" on="1"/>
        <pt x="56" y="463" on="1"/>
        <pt x="56" y="659" on="0"/>
        <pt x="357" y="659" on="1"/>
        <pt x="431" y="659" on="0"/>
        <pt x="563" y="637" on="1"/>
        <pt x="563" y="520" on="1"/>
        <pt x="444" y="548" on="0"/>
        <pt x="359" y="548" on="1"/>
        <pt x="325" y="548" on="0"/>
        <pt x="282" y="544" on="0"/>
        <pt x="235" y="528" on="0"/>
        <pt x="212" y="493" on="0"/>
        <pt x="212" y="465" on="1"/>
        <pt x="212" y="189" on="1"/>
        <pt x="212" y="101" on="0"/>
        <pt x="373" y="101" on="1"/>
        <pt x="444" y="101" on="0"/>
        <pt x="567" y="130" on="1"/>
      </contour>
      <contour>
        <pt x="483" y="845" on="1"/>
        <pt x="358" y="718" on="1"/>
        <pt x="234" y="718" on="1"/>
        <pt x="324" y="845" on="1"/>
      </contour>
    </TTGlyph>
    <TTGlyph name="Ccaron" xMin="56" yMin="-10" xMax="567" yMax="845">
      <contour>
        <pt x="567" y="12" on="1"/>
        <pt x="457" y="-10" on="0"/>
        <pt x="357" y="-10" on="1"/>
        <pt x="317" y="-10" on="0"/>
        <pt x="246" y="-3" on="0"/>
        <pt x="159" y="20" on="0"/>
        <pt x="98" y="59" on="0"/>
        <pt x="56" y="130" on="0"/>
        <pt x="56" y="178" on="1"/>
        <pt x="56" y="463" on="1"/>
        <pt x="56" y="659" on="0"/>
        <pt x="357" y="659" on="1"/>
        <pt x="431" y="659" on="0"/>
        <pt x="563" y="637" on="1"/>
        <pt x="563" y="520" on="1"/>
        <pt x="444" y="548" on="0"/>
        <pt x="359" y="548" on="1"/>
        <pt x="325" y="548" on="0"/>
        <pt x="282" y="544" on="0"/>
        <pt x="235" y="528" on="0"/>
        <pt x="212" y="493" on="0"/>
        <pt x="212" y="465" on="1"/>
        <pt x="212" y="189" on="1"/>
        <pt x="212" y="101" on="0"/>
        <pt x="373" y="101" on="1"/>
        <pt x="444" y="101" on="0"/>
        <pt x="567" y="130" on="1"/>
      </contour>
      <contour>
        <pt x="489" y="845" on="1"/>
        <pt x="433" y="718" on="1"/>
        <pt x="246" y="718" on="1"/>
        <pt x="188" y="845" on="1"/>
        <pt x="286" y="845" on="1"/>
        <pt x="339" y="758" on="1"/>
        <pt x="391" y="845" on="1"/>
      </contour>
    </TTGlyph>
    <TTGlyph name="Ccedilla" xMin="56" yMin="-220" xMax="567" yMax="659">
      <contour>
        <pt x="567" y="12" on="1"/>
        <pt x="465" y="-8" on="0"/>
        <pt x="386" y="-10" on="1"/>
        <pt x="357" y="-50" on="1"/>
        <pt x="398" y="-53" on="0"/>
        <pt x="454" y="-90" on="0"/>
        <pt x="454" y="-129" on="1"/>
        <pt x="454" y="-174" on="0"/>
        <pt x="381" y="-220" on="0"/>
        <pt x="334" y="-220" on="1"/>
        <pt x="278" y="-220" on="0"/>
        <pt x="243" y="-197" on="1"/>
        <pt x="265" y="-151" on="1"/>
        <pt x="295" y="-169" on="0"/>
        <pt x="327" y="-169" on="1"/>
        <pt x="374" y="-169" on="0"/>
        <pt x="374" y="-134" on="1"/>
        <pt x="374" y="-96" on="0"/>
        <pt x="299" y="-96" on="1"/>
        <pt x="259" y="-96" on="1"/>
        <pt x="260" y="-93" on="0"/>
        <pt x="282" y="-60" on="0"/>
        <pt x="311" y="-18" on="0"/>
        <pt x="317" y="-9" on="1"/>
        <pt x="56" y="5" on="0"/>
        <pt x="56" y="178" on="1"/>
        <pt x="56" y="463" on="1"/>
        <pt x="56" y="659" on="0"/>
        <pt x="357" y="659" on="1"/>
        <pt x="431" y="659" on="0"/>
        <pt x="563" y="637" on="1"/>
        <pt x="563" y="520" on="1"/>
        <pt x="444" y="548" on="0"/>
        <pt x="359" y="548" on="1"/>
        <pt x="325" y="548" on="0"/>
        <pt x="282" y="544" on="0"/>
        <pt x="235" y="528" on="0"/>
        <pt x="212" y="493" on="0"/>
        <pt x="212" y="465" on="1"/>
        <pt x="212" y="189" on="1"/>
        <pt x="212" y="101" on="0"/>
        <pt x="373" y="101" on="1"/>
        <pt x="444" y="101" on="0"/>
        <pt x="567" y="130" on="1"/>
      </contour>
    </TTGlyph>
    <TTGlyph name="Ccircumflex" xMin="56" yMin="-10" xMax="567" yMax="845">
      <contour>
        <pt x="567" y="12" on="1"/>
        <pt x="457" y="-10" on="0"/>
        <pt x="357" y="-10" on="1"/>
        <pt x="317" y="-10" on="0"/>
        <pt x="246" y="-3" on="0"/>
        <pt x="159" y="20" on="0"/>
        <pt x="98" y="59" on="0"/>
        <pt x="56" y="130" on="0"/>
        <pt x="56" y="178" on="1"/>
        <pt x="56" y="463" on="1"/>
        <pt x="56" y="659" on="0"/>
        <pt x="357" y="659" on="1"/>
        <pt x="431" y="659" on="0"/>
        <pt x="563" y="637" on="1"/>
        <pt x="563" y="520" on="1"/>
        <pt x="444" y="548" on="0"/>
        <pt x="359" y="548" on="1"/>
        <pt x="325" y="548" on="0"/>
        <pt x="282" y="544" on="0"/>
        <pt x="235" y="528" on="0"/>
        <pt x="212" y="493" on="0"/>
        <pt x="212" y="465" on="1"/>
        <pt x="212" y="189" on="1"/>
        <pt x="212" y="101" on="0"/>
        <pt x="373" y="101" on="1"/>
        <pt x="444" y="101" on="0"/>
        <pt x="567" y="130" on="1"/>
      </contour>
      <contour>
        <pt x="489" y="718" on="1"/>
        <pt x="391" y="718" on="1"/>
        <pt x="338" y="805" on="1"/>
        <pt x="286" y="718" on="1"/>
        <pt x="188" y="718" on="1"/>
        <pt x="244" y="845" on="1"/>
        <pt x="431" y="845" on="1"/>
      </contour>
    </TTGlyph>
    <TTGlyph name="Cdotaccent" xMin="56" yMin="-10" xMax="567" yMax="845">
      <contour>
        <pt x="567" y="12" on="1"/>
        <pt x="457" y="-10" on="0"/>
        <pt x="357" y="-10" on="1"/>
        <pt x="317" y="-10" on="0"/>
        <pt x="246" y="-3" on="0"/>
        <pt x="159" y="20" on="0"/>
        <pt x="98" y="59" on="0"/>
        <pt x="56" y="130" on="0"/>
        <pt x="56" y="178" on="1"/>
        <pt x="56" y="463" on="1"/>
        <pt x="56" y="659" on="0"/>
        <pt x="357" y="659" on="1"/>
        <pt x="431" y="659" on="0"/>
        <pt x="563" y="637" on="1"/>
        <pt x="563" y="520" on="1"/>
        <pt x="444" y="548" on="0"/>
        <pt x="359" y="548" on="1"/>
        <pt x="325" y="548" on="0"/>
        <pt x="282" y="544" on="0"/>
        <pt x="235" y="528" on="0"/>
        <pt x="212" y="493" on="0"/>
        <pt x="212" y="465" on="1"/>
        <pt x="212" y="189" on="1"/>
        <pt x="212" y="101" on="0"/>
        <pt x="373" y="101" on="1"/>
        <pt x="444" y="101" on="0"/>
        <pt x="567" y="130" on="1"/>
      </contour>
      <contour>
        <pt x="411" y="730" on="1"/>
        <pt x="265" y="730" on="1"/>
        <pt x="265" y="845" on="1"/>
        <pt x="411" y="845" on="1"/>
      </contour>
    </TTGlyph>
    <TTGlyph name="Chi" xMin="10" yMin="0" xMax="668" yMax="649">
      <contour>
        <pt x="668" y="0" on="1"/>
        <pt x="487" y="0" on="1"/>
        <pt x="339" y="230" on="1"/>
        <pt x="190" y="0" on="1"/>
        <pt x="10" y="0" on="1"/>
        <pt x="249" y="331" on="1"/>
        <pt x="20" y="649" on="1"/>
        <pt x="200" y="649" on="1"/>
        <pt x="339" y="433" on="1"/>
        <pt x="477" y="649" on="1"/>
        <pt x="657" y="649" on="1"/>
        <pt x="428" y="331" on="1"/>
      </contour>
    </TTGlyph>
    <TTGlyph name="D" xMin="70" yMin="0" xMax="654" yMax="649">
      <contour>
        <pt x="654" y="452" on="1"/>
        <pt x="654" y="188" on="1"/>
        <pt x="654" y="78" on="0"/>
        <pt x="518" y="0" on="0"/>
        <pt x="347" y="0" on="1"/>
        <pt x="70" y="0" on="1"/>
        <pt x="70" y="649" on="1"/>
        <pt x="346" y="649" on="1"/>
        <pt x="511" y="649" on="0"/>
        <pt x="654" y="567" on="0"/>
      </contour>
      <contour>
        <pt x="498" y="188" on="1"/>
        <pt x="498" y="455" on="1"/>
        <pt x="498" y="502" on="0"/>
        <pt x="422" y="538" on="0"/>
        <pt x="345" y="538" on="1"/>
        <pt x="226" y="538" on="1"/>
        <pt x="226" y="111" on="1"/>
        <pt x="340" y="111" on="1"/>
        <pt x="430" y="111" on="0"/>
        <pt x="498" y="138" on="0"/>
      </contour>
    </TTGlyph>
    <TTGlyph name="Dcaron" xMin="70" yMin="0" xMax="654" yMax="845">
      <contour>
        <pt x="654" y="452" on="1"/>
        <pt x="654" y="188" on="1"/>
        <pt x="654" y="78" on="0"/>
        <pt x="518" y="0" on="0"/>
        <pt x="347" y="0" on="1"/>
        <pt x="70" y="0" on="1"/>
        <pt x="70" y="649" on="1"/>
        <pt x="346" y="649" on="1"/>
        <pt x="511" y="649" on="0"/>
        <pt x="654" y="567" on="0"/>
      </contour>
      <contour>
        <pt x="498" y="188" on="1"/>
        <pt x="498" y="455" on="1"/>
        <pt x="498" y="502" on="0"/>
        <pt x="422" y="538" on="0"/>
        <pt x="345" y="538" on="1"/>
        <pt x="226" y="538" on="1"/>
        <pt x="226" y="111" on="1"/>
        <pt x="340" y="111" on="1"/>
        <pt x="430" y="111" on="0"/>
        <pt x="498" y="138" on="0"/>
      </contour>
      <contour>
        <pt x="505" y="845" on="1"/>
        <pt x="449" y="718" on="1"/>
        <pt x="262" y="718" on="1"/>
        <pt x="204" y="845" on="1"/>
        <pt x="302" y="845" on="1"/>
        <pt x="355" y="758" on="1"/>
        <pt x="407" y="845" on="1"/>
      </contour>
    </TTGlyph>
    <TTGlyph name="Dcroat" xMin="10" yMin="0" xMax="627" yMax="649">
      <contour>
        <pt x="627" y="452" on="1"/>
        <pt x="627" y="188" on="1"/>
        <pt x="627" y="87" on="0"/>
        <pt x="481" y="0" on="0"/>
        <pt x="327" y="0" on="1"/>
        <pt x="70" y="0" on="1"/>
        <pt x="70" y="288" on="1"/>
        <pt x="10" y="288" on="1"/>
        <pt x="10" y="379" on="1"/>
        <pt x="70" y="379" on="1"/>
        <pt x="70" y="649" on="1"/>
        <pt x="326" y="649" on="1"/>
        <pt x="505" y="649" on="0"/>
        <pt x="627" y="566" on="0"/>
      </contour>
      <contour>
        <pt x="478" y="186" on="1"/>
        <pt x="478" y="460" on="1"/>
        <pt x="478" y="507" on="0"/>
        <pt x="402" y="543" on="0"/>
        <pt x="325" y="543" on="1"/>
        <pt x="223" y="543" on="1"/>
        <pt x="223" y="379" on="1"/>
        <pt x="357" y="379" on="1"/>
        <pt x="357" y="288" on="1"/>
        <pt x="223" y="288" on="1"/>
        <pt x="223" y="109" on="1"/>
        <pt x="320" y="109" on="1"/>
        <pt x="353" y="109" on="0"/>
        <pt x="400" y="114" on="0"/>
        <pt x="451" y="128" on="0"/>
        <pt x="478" y="161" on="0"/>
      </contour>
    </TTGlyph>
    <TTGlyph name="Delta" xMin="-6" yMin="0" xMax="658" yMax="649">
      <contour>
        <pt x="-6" y="0" on="1"/>
        <pt x="234" y="649" on="1"/>
        <pt x="425" y="649" on="1"/>
        <pt x="658" y="0" on="1"/>
      </contour>
      <contour>
        <pt x="322" y="519" on="1"/>
        <pt x="185" y="111" on="1"/>
        <pt x="463" y="111" on="1"/>
        <pt x="326" y="519" on="1"/>
      </contour>
    </TTGlyph>
    <TTGlyph name="E" xMin="70" yMin="0" xMax="575" yMax="649">
      <contour>
        <pt x="575" y="0" on="1"/>
        <pt x="70" y="0" on="1"/>
        <pt x="70" y="649" on="1"/>
        <pt x="565" y="649" on="1"/>
        <pt x="565" y="538" on="1"/>
        <pt x="226" y="538" on="1"/>
        <pt x="226" y="389" on="1"/>
        <pt x="532" y="389" on="1"/>
        <pt x="532" y="278" on="1"/>
        <pt x="226" y="278" on="1"/>
        <pt x="226" y="111" on="1"/>
        <pt x="575" y="111" on="1"/>
      </contour>
    </TTGlyph>
    <TTGlyph name="Eacute" xMin="70" yMin="0" xMax="575" yMax="845">
      <contour>
        <pt x="575" y="0" on="1"/>
        <pt x="70" y="0" on="1"/>
        <pt x="70" y="649" on="1"/>
        <pt x="565" y="649" on="1"/>
        <pt x="565" y="538" on="1"/>
        <pt x="226" y="538" on="1"/>
        <pt x="226" y="389" on="1"/>
        <pt x="532" y="389" on="1"/>
        <pt x="532" y="278" on="1"/>
        <pt x="226" y="278" on="1"/>
        <pt x="226" y="111" on="1"/>
        <pt x="575" y="111" on="1"/>
      </contour>
      <contour>
        <pt x="472" y="845" on="1"/>
        <pt x="347" y="718" on="1"/>
        <pt x="223" y="718" on="1"/>
        <pt x="313" y="845" on="1"/>
      </contour>
    </TTGlyph>
    <TTGlyph name="Ebreve" xMin="70" yMin="0" xMax="575" yMax="845">
      <contour>
        <pt x="575" y="0" on="1"/>
        <pt x="70" y="0" on="1"/>
        <pt x="70" y="649" on="1"/>
        <pt x="565" y="649" on="1"/>
        <pt x="565" y="538" on="1"/>
        <pt x="226" y="538" on="1"/>
        <pt x="226" y="389" on="1"/>
        <pt x="532" y="389" on="1"/>
        <pt x="532" y="278" on="1"/>
        <pt x="226" y="278" on="1"/>
        <pt x="226" y="111" on="1"/>
        <pt x="575" y="111" on="1"/>
      </contour>
      <contour>
        <pt x="471" y="845" on="1"/>
        <pt x="467" y="788" on="0"/>
        <pt x="394" y="718" on="0"/>
        <pt x="333" y="718" on="1"/>
        <pt x="271" y="718" on="0"/>
        <pt x="198" y="788" on="0"/>
        <pt x="195" y="845" on="1"/>
        <pt x="276" y="845" on="1"/>
        <pt x="282" y="816" on="0"/>
        <pt x="306" y="790" on="0"/>
        <pt x="333" y="790" on="1"/>
        <pt x="383" y="790" on="0"/>
        <pt x="389" y="845" on="1"/>
      </contour>
    </TTGlyph>
    <TTGlyph name="Ecaron" xMin="70" yMin="0" xMax="575" yMax="845">
      <contour>
        <pt x="575" y="0" on="1"/>
        <pt x="70" y="0" on="1"/>
        <pt x="70" y="649" on="1"/>
        <pt x="565" y="649" on="1"/>
        <pt x="565" y="538" on="1"/>
        <pt x="226" y="538" on="1"/>
        <pt x="226" y="389" on="1"/>
        <pt x="532" y="389" on="1"/>
        <pt x="532" y="278" on="1"/>
        <pt x="226" y="278" on="1"/>
        <pt x="226" y="111" on="1"/>
        <pt x="575" y="111" on="1"/>
      </contour>
      <contour>
        <pt x="473" y="845" on="1"/>
        <pt x="417" y="718" on="1"/>
        <pt x="230" y="718" on="1"/>
        <pt x="172" y="845" on="1"/>
        <pt x="270" y="845" on="1"/>
        <pt x="323" y="758" on="1"/>
        <pt x="375" y="845" on="1"/>
      </contour>
    </TTGlyph>
    <TTGlyph name="Ecircumflex" xMin="70" yMin="0" xMax="575" yMax="845">
      <contour>
        <pt x="575" y="0" on="1"/>
        <pt x="70" y="0" on="1"/>
        <pt x="70" y="649" on="1"/>
        <pt x="565" y="649" on="1"/>
        <pt x="565" y="538" on="1"/>
        <pt x="226" y="538" on="1"/>
        <pt x="226" y="389" on="1"/>
        <pt x="532" y="389" on="1"/>
        <pt x="532" y="278" on="1"/>
        <pt x="226" y="278" on="1"/>
        <pt x="226" y="111" on="1"/>
        <pt x="575" y="111" on="1"/>
      </contour>
      <contour>
        <pt x="455" y="718" on="1"/>
        <pt x="357" y="718" on="1"/>
        <pt x="304" y="805" on="1"/>
        <pt x="252" y="718" on="1"/>
        <pt x="154" y="718" on="1"/>
        <pt x="210" y="845" on="1"/>
        <pt x="397" y="845" on="1"/>
      </contour>
    </TTGlyph>
    <TTGlyph name="Edieresis" xMin="70" yMin="0" xMax="575" yMax="848">
      <contour>
        <pt x="575" y="0" on="1"/>
        <pt x="70" y="0" on="1"/>
        <pt x="70" y="649" on="1"/>
        <pt x="565" y="649" on="1"/>
        <pt x="565" y="538" on="1"/>
        <pt x="226" y="538" on="1"/>
        <pt x="226" y="389" on="1"/>
        <pt x="532" y="389" on="1"/>
        <pt x="532" y="278" on="1"/>
        <pt x="226" y="278" on="1"/>
        <pt x="226" y="111" on="1"/>
        <pt x="575" y="111" on="1"/>
      </contour>
      <contour>
        <pt x="463" y="730" on="1"/>
        <pt x="337" y="730" on="1"/>
        <pt x="337" y="848" on="1"/>
        <pt x="463" y="848" on="1"/>
      </contour>
      <contour>
        <pt x="273" y="730" on="1"/>
        <pt x="147" y="730" on="1"/>
        <pt x="147" y="848" on="1"/>
        <pt x="273" y="848" on="1"/>
      </contour>
    </TTGlyph>
    <TTGlyph name="Edotaccent" xMin="70" yMin="0" xMax="575" yMax="845">
      <contour>
        <pt x="575" y="0" on="1"/>
        <pt x="70" y="0" on="1"/>
        <pt x="70" y="649" on="1"/>
        <pt x="565" y="649" on="1"/>
        <pt x="565" y="538" on="1"/>
        <pt x="226" y="538" on="1"/>
        <pt x="226" y="389" on="1"/>
        <pt x="532" y="389" on="1"/>
        <pt x="532" y="278" on="1"/>
        <pt x="226" y="278" on="1"/>
        <pt x="226" y="111" on="1"/>
        <pt x="575" y="111" on="1"/>
      </contour>
      <contour>
        <pt x="398" y="730" on="1"/>
        <pt x="252" y="730" on="1"/>
        <pt x="252" y="845" on="1"/>
        <pt x="398" y="845" on="1"/>
      </contour>
    </TTGlyph>
    <TTGlyph name="Egrave" xMin="70" yMin="0" xMax="575" yMax="845">
      <contour>
        <pt x="575" y="0" on="1"/>
        <pt x="70" y="0" on="1"/>
        <pt x="70" y="649" on="1"/>
        <pt x="565" y="649" on="1"/>
        <pt x="565" y="538" on="1"/>
        <pt x="226" y="538" on="1"/>
        <pt x="226" y="389" on="1"/>
        <pt x="532" y="389" on="1"/>
        <pt x="532" y="278" on="1"/>
        <pt x="226" y="278" on="1"/>
        <pt x="226" y="111" on="1"/>
        <pt x="575" y="111" on="1"/>
      </contour>
      <contour>
        <pt x="413" y="718" on="1"/>
        <pt x="289" y="718" on="1"/>
        <pt x="164" y="845" on="1"/>
        <pt x="323" y="845" on="1"/>
      </contour>
    </TTGlyph>
    <TTGlyph name="Emacron" xMin="70" yMin="0" xMax="575" yMax="814">
      <contour>
        <pt x="575" y="0" on="1"/>
        <pt x="70" y="0" on="1"/>
        <pt x="70" y="649" on="1"/>
        <pt x="565" y="649" on="1"/>
        <pt x="565" y="538" on="1"/>
        <pt x="226" y="538" on="1"/>
        <pt x="226" y="389" on="1"/>
        <pt x="532" y="389" on="1"/>
        <pt x="532" y="278" on="1"/>
        <pt x="226" y="278" on="1"/>
        <pt x="226" y="111" on="1"/>
        <pt x="575" y="111" on="1"/>
      </contour>
      <contour>
        <pt x="444" y="725" on="1"/>
        <pt x="166" y="725" on="1"/>
        <pt x="166" y="814" on="1"/>
        <pt x="444" y="814" on="1"/>
      </contour>
    </TTGlyph>
    <TTGlyph name="Eng" xMin="70" yMin="-180" xMax="681" yMax="649">
      <contour>
        <pt x="681" y="649" on="1"/>
        <pt x="681" y="-32" on="1"/>
        <pt x="681" y="-72" on="0"/>
        <pt x="664" y="-127" on="0"/>
        <pt x="638" y="-158" on="0"/>
        <pt x="592" y="-175" on="0"/>
        <pt x="547" y="-180" on="0"/>
        <pt x="513" y="-180" on="1"/>
        <pt x="447" y="-180" on="0"/>
        <pt x="422" y="-175" on="1"/>
        <pt x="422" y="-86" on="1"/>
        <pt x="440" y="-91" on="0"/>
        <pt x="474" y="-91" on="1"/>
        <pt x="502" y="-91" on="0"/>
        <pt x="525" y="-56" on="0"/>
        <pt x="525" y="-7" on="1"/>
        <pt x="525" y="0" on="1"/>
        <pt x="209" y="450" on="1"/>
        <pt x="209" y="0" on="1"/>
        <pt x="70" y="0" on="1"/>
        <pt x="70" y="649" on="1"/>
        <pt x="228" y="649" on="1"/>
        <pt x="542" y="206" on="1"/>
        <pt x="542" y="649" on="1"/>
      </contour>
    </TTGlyph>
    <TTGlyph name="Eogonek" xMin="70" yMin="-186" xMax="575" yMax="649">
      <contour>
        <pt x="575" y="0" on="1"/>
        <pt x="70" y="0" on="1"/>
        <pt x="70" y="649" on="1"/>
        <pt x="565" y="649" on="1"/>
        <pt x="565" y="538" on="1"/>
        <pt x="226" y="538" on="1"/>
        <pt x="226" y="389" on="1"/>
        <pt x="532" y="389" on="1"/>
        <pt x="532" y="278" on="1"/>
        <pt x="226" y="278" on="1"/>
        <pt x="226" y="111" on="1"/>
        <pt x="575" y="111" on="1"/>
      </contour>
      <contour>
        <pt x="554" y="-186" on="0"/>
        <pt x="456" y="-186" on="0"/>
        <pt x="406" y="-149" on="0"/>
        <pt x="406" y="-106" on="1"/>
        <pt x="406" y="-56" on="0"/>
        <pt x="442" y="0" on="1"/>
        <pt x="537" y="0" on="1"/>
        <pt x="507" y="-47" on="0"/>
        <pt x="507" y="-83" on="1"/>
        <pt x="507" y="-99" on="0"/>
        <pt x="523" y="-115" on="0"/>
        <pt x="545" y="-115" on="1"/>
        <pt x="557" y="-115" on="0"/>
        <pt x="575" y="-109" on="1"/>
        <pt x="575" y="-176" on="1"/>
      </contour>
    </TTGlyph>
    <TTGlyph name="Epsilon" xMin="70" yMin="0" xMax="575" yMax="649">
      <contour>
        <pt x="575" y="0" on="1"/>
        <pt x="70" y="0" on="1"/>
        <pt x="70" y="649" on="1"/>
        <pt x="565" y="649" on="1"/>
        <pt x="565" y="538" on="1"/>
        <pt x="226" y="538" on="1"/>
        <pt x="226" y="389" on="1"/>
        <pt x="532" y="389" on="1"/>
        <pt x="532" y="278" on="1"/>
        <pt x="226" y="278" on="1"/>
        <pt x="226" y="111" on="1"/>
        <pt x="575" y="111" on="1"/>
      </contour>
    </TTGlyph>
    <TTGlyph name="Epsilontonos" xMin="0" yMin="0" xMax="716" yMax="658">
      <contour>
        <pt x="716" y="0" on="1"/>
        <pt x="211" y="0" on="1"/>
        <pt x="211" y="649" on="1"/>
        <pt x="706" y="649" on="1"/>
        <pt x="706" y="538" on="1"/>
        <pt x="367" y="538" on="1"/>
        <pt x="367" y="389" on="1"/>
        <pt x="673" y="389" on="1"/>
        <pt x="673" y="278" on="1"/>
        <pt x="367" y="278" on="1"/>
        <pt x="367" y="111" on="1"/>
        <pt x="716" y="111" on="1"/>
      </contour>
      <contour>
        <pt x="125" y="486" on="1"/>
        <pt x="39" y="486" on="1"/>
        <pt x="0" y="658" on="1"/>
        <pt x="164" y="658" on="1"/>
      </contour>
    </TTGlyph>
    <TTGlyph name="Eta" xMin="70" yMin="0" xMax="658" yMax="649">
      <contour>
        <pt x="658" y="0" on="1"/>
        <pt x="502" y="0" on="1"/>
        <pt x="502" y="278" on="1"/>
        <pt x="226" y="278" on="1"/>
        <pt x="226" y="0" on="1"/>
        <pt x="70" y="0" on="1"/>
        <pt x="70" y="649" on="1"/>
        <pt x="226" y="649" on="1"/>
        <pt x="226" y="389" on="1"/>
        <pt x="502" y="389" on="1"/>
        <pt x="502" y="649" on="1"/>
        <pt x="658" y="649" on="1"/>
      </contour>
    </TTGlyph>
    <TTGlyph name="Etatonos" xMin="0" yMin="0" xMax="799" yMax="658">
      <contour>
        <pt x="799" y="0" on="1"/>
        <pt x="643" y="0" on="1"/>
        <pt x="643" y="278" on="1"/>
        <pt x="367" y="278" on="1"/>
        <pt x="367" y="0" on="1"/>
        <pt x="211" y="0" on="1"/>
        <pt x="211" y="649" on="1"/>
        <pt x="367" y="649" on="1"/>
        <pt x="367" y="389" on="1"/>
        <pt x="643" y="389" on="1"/>
        <pt x="643" y="649" on="1"/>
        <pt x="799" y="649" on="1"/>
      </contour>
      <contour>
        <pt x="125" y="486" on="1"/>
        <pt x="39" y="486" on="1"/>
        <pt x="0" y="658" on="1"/>
        <pt x="164" y="658" on="1"/>
      </contour>
    </TTGlyph>
    <TTGlyph name="Eth" xMin="10" yMin="0" xMax="654" yMax="649">
      <contour>
        <pt x="10" y="385" on="1"/>
        <pt x="348" y="385" on="1"/>
        <pt x="348" y="284" on="1"/>
        <pt x="10" y="284" on="1"/>
      </contour>
      <contour>
        <pt x="654" y="452" on="1"/>
        <pt x="654" y="188" on="1"/>
        <pt x="654" y="78" on="0"/>
        <pt x="518" y="0" on="0"/>
        <pt x="347" y="0" on="1"/>
        <pt x="70" y="0" on="1"/>
        <pt x="70" y="649" on="1"/>
        <pt x="346" y="649" on="1"/>
        <pt x="511" y="649" on="0"/>
        <pt x="654" y="567" on="0"/>
      </contour>
      <contour>
        <pt x="498" y="188" on="1"/>
        <pt x="498" y="455" on="1"/>
        <pt x="498" y="502" on="0"/>
        <pt x="422" y="538" on="0"/>
        <pt x="345" y="538" on="1"/>
        <pt x="226" y="538" on="1"/>
        <pt x="226" y="111" on="1"/>
        <pt x="340" y="111" on="1"/>
        <pt x="430" y="111" on="0"/>
        <pt x="498" y="138" on="0"/>
      </contour>
    </TTGlyph>
    <TTGlyph name="Euro" xMin="25" yMin="-10" xMax="569" yMax="640">
      <contour>
        <pt x="569" y="622" on="1"/>
        <pt x="540" y="522" on="1"/>
        <pt x="452" y="539" on="0"/>
        <pt x="387" y="539" on="1"/>
        <pt x="354" y="539" on="0"/>
        <pt x="312" y="535" on="0"/>
        <pt x="267" y="519" on="0"/>
        <pt x="246" y="484" on="0"/>
        <pt x="246" y="456" on="1"/>
        <pt x="246" y="434" on="1"/>
        <pt x="514" y="434" on="1"/>
        <pt x="489" y="343" on="1"/>
        <pt x="246" y="343" on="1"/>
        <pt x="246" y="286" on="1"/>
        <pt x="473" y="286" on="1"/>
        <pt x="448" y="195" on="1"/>
        <pt x="246" y="195" on="1"/>
        <pt x="246" y="170" on="1"/>
        <pt x="246" y="144" on="0"/>
        <pt x="272" y="111" on="0"/>
        <pt x="322" y="97" on="0"/>
        <pt x="368" y="92" on="0"/>
        <pt x="401" y="92" on="1"/>
        <pt x="495" y="92" on="0"/>
        <pt x="555" y="107" on="1"/>
        <pt x="555" y="3" on="1"/>
        <pt x="492" y="-10" on="0"/>
        <pt x="385" y="-10" on="1"/>
        <pt x="343" y="-10" on="0"/>
        <pt x="280" y="-5" on="0"/>
        <pt x="196" y="15" on="0"/>
        <pt x="143" y="51" on="0"/>
        <pt x="104" y="120" on="0"/>
        <pt x="104" y="168" on="1"/>
        <pt x="104" y="195" on="1"/>
        <pt x="25" y="195" on="1"/>
        <pt x="25" y="286" on="1"/>
        <pt x="104" y="286" on="1"/>
        <pt x="104" y="343" on="1"/>
        <pt x="25" y="343" on="1"/>
        <pt x="25" y="434" on="1"/>
        <pt x="104" y="434" on="1"/>
        <pt x="104" y="450" on="1"/>
        <pt x="104" y="501" on="0"/>
        <pt x="143" y="574" on="0"/>
        <pt x="199" y="613" on="0"/>
        <pt x="282" y="635" on="0"/>
        <pt x="345" y="640" on="0"/>
        <pt x="385" y="640" on="1"/>
        <pt x="449" y="640" on="0"/>
      </contour>
    </TTGlyph>
    <TTGlyph name="F" xMin="70" yMin="0" xMax="575" yMax="649">
      <contour>
        <pt x="575" y="538" on="1"/>
        <pt x="226" y="538" on="1"/>
        <pt x="226" y="379" on="1"/>
        <pt x="542" y="379" on="1"/>
        <pt x="542" y="268" on="1"/>
        <pt x="226" y="268" on="1"/>
        <pt x="226" y="0" on="1"/>
        <pt x="70" y="0" on="1"/>
        <pt x="70" y="649" on="1"/>
        <pt x="575" y="649" on="1"/>
      </contour>
    </TTGlyph>
    <TTGlyph name="G" xMin="56" yMin="-10" xMax="649" yMax="659">
      <contour>
        <pt x="649" y="32" on="1"/>
        <pt x="599" y="14" on="0"/>
        <pt x="444" y="-10" on="0"/>
        <pt x="379" y="-10" on="1"/>
        <pt x="325" y="-10" on="0"/>
        <pt x="238" y="-1" on="0"/>
        <pt x="151" y="24" on="0"/>
        <pt x="92" y="64" on="0"/>
        <pt x="56" y="132" on="0"/>
        <pt x="56" y="178" on="1"/>
        <pt x="56" y="448" on="1"/>
        <pt x="56" y="499" on="0"/>
        <pt x="98" y="577" on="0"/>
        <pt x="162" y="621" on="0"/>
        <pt x="252" y="650" on="0"/>
        <pt x="335" y="659" on="0"/>
        <pt x="381" y="659" on="1"/>
        <pt x="519" y="659" on="0"/>
        <pt x="645" y="638" on="1"/>
        <pt x="645" y="520" on="1"/>
        <pt x="526" y="548" on="0"/>
        <pt x="381" y="548" on="1"/>
        <pt x="212" y="548" on="0"/>
        <pt x="212" y="450" on="1"/>
        <pt x="212" y="189" on="1"/>
        <pt x="212" y="139" on="0"/>
        <pt x="307" y="101" on="0"/>
        <pt x="395" y="101" on="1"/>
        <pt x="444" y="101" on="0"/>
        <pt x="500" y="116" on="1"/>
        <pt x="500" y="267" on="1"/>
        <pt x="394" y="267" on="1"/>
        <pt x="394" y="369" on="1"/>
        <pt x="649" y="369" on="1"/>
      </contour>
    </TTGlyph>
    <TTGlyph name="Gamma" xMin="70" yMin="0" xMax="495" yMax="649">
      <contour>
        <pt x="495" y="538" on="1"/>
        <pt x="226" y="538" on="1"/>
        <pt x="226" y="0" on="1"/>
        <pt x="70" y="0" on="1"/>
        <pt x="70" y="649" on="1"/>
        <pt x="495" y="649" on="1"/>
      </contour>
    </TTGlyph>
    <TTGlyph name="Gbreve" xMin="50" yMin="-10" xMax="591" yMax="830">
      <contour>
        <pt x="591" y="12" on="1"/>
        <pt x="481" y="-10" on="0"/>
        <pt x="361" y="-10" on="1"/>
        <pt x="321" y="-10" on="0"/>
        <pt x="248" y="-3" on="0"/>
        <pt x="158" y="20" on="0"/>
        <pt x="94" y="59" on="0"/>
        <pt x="50" y="130" on="0"/>
        <pt x="50" y="178" on="1"/>
        <pt x="50" y="463" on="1"/>
        <pt x="50" y="513" on="0"/>
        <pt x="95" y="589" on="0"/>
        <pt x="160" y="629" on="0"/>
        <pt x="251" y="654" on="0"/>
        <pt x="322" y="660" on="0"/>
        <pt x="361" y="660" on="1"/>
        <pt x="455" y="660" on="0"/>
        <pt x="587" y="638" on="1"/>
        <pt x="587" y="527" on="1"/>
        <pt x="468" y="555" on="0"/>
        <pt x="363" y="555" on="1"/>
        <pt x="336" y="555" on="0"/>
        <pt x="298" y="553" on="0"/>
        <pt x="250" y="543" on="0"/>
        <pt x="220" y="527" on="0"/>
        <pt x="199" y="494" on="0"/>
        <pt x="199" y="472" on="1"/>
        <pt x="199" y="181" on="1"/>
        <pt x="199" y="155" on="0"/>
        <pt x="233" y="119" on="0"/>
        <pt x="289" y="101" on="0"/>
        <pt x="346" y="93" on="0"/>
        <pt x="377" y="93" on="1"/>
        <pt x="404" y="93" on="0"/>
        <pt x="452" y="98" on="1"/>
        <pt x="452" y="267" on="1"/>
        <pt x="326" y="267" on="1"/>
        <pt x="326" y="369" on="1"/>
        <pt x="591" y="369" on="1"/>
      </contour>
      <contour>
        <pt x="471" y="830" on="1"/>
        <pt x="467" y="773" on="0"/>
        <pt x="401" y="703" on="0"/>
        <pt x="347" y="703" on="1"/>
        <pt x="292" y="703" on="0"/>
        <pt x="225" y="773" on="0"/>
        <pt x="222" y="830" on="1"/>
        <pt x="290" y="830" on="1"/>
        <pt x="296" y="800" on="0"/>
        <pt x="321" y="772" on="0"/>
        <pt x="347" y="772" on="1"/>
        <pt x="397" y="772" on="0"/>
        <pt x="403" y="830" on="1"/>
      </contour>
    </TTGlyph>
    <TTGlyph name="Gcircumflex" xMin="50" yMin="-10" xMax="591" yMax="830">
      <contour>
        <pt x="591" y="12" on="1"/>
        <pt x="481" y="-10" on="0"/>
        <pt x="361" y="-10" on="1"/>
        <pt x="321" y="-10" on="0"/>
        <pt x="248" y="-3" on="0"/>
        <pt x="158" y="20" on="0"/>
        <pt x="94" y="59" on="0"/>
        <pt x="50" y="130" on="0"/>
        <pt x="50" y="178" on="1"/>
        <pt x="50" y="463" on="1"/>
        <pt x="50" y="513" on="0"/>
        <pt x="95" y="589" on="0"/>
        <pt x="160" y="629" on="0"/>
        <pt x="251" y="654" on="0"/>
        <pt x="322" y="660" on="0"/>
        <pt x="361" y="660" on="1"/>
        <pt x="455" y="660" on="0"/>
        <pt x="587" y="638" on="1"/>
        <pt x="587" y="527" on="1"/>
        <pt x="468" y="555" on="0"/>
        <pt x="363" y="555" on="1"/>
        <pt x="336" y="555" on="0"/>
        <pt x="298" y="553" on="0"/>
        <pt x="250" y="543" on="0"/>
        <pt x="220" y="527" on="0"/>
        <pt x="199" y="494" on="0"/>
        <pt x="199" y="472" on="1"/>
        <pt x="199" y="181" on="1"/>
        <pt x="199" y="155" on="0"/>
        <pt x="233" y="119" on="0"/>
        <pt x="289" y="101" on="0"/>
        <pt x="346" y="93" on="0"/>
        <pt x="377" y="93" on="1"/>
        <pt x="404" y="93" on="0"/>
        <pt x="452" y="98" on="1"/>
        <pt x="452" y="267" on="1"/>
        <pt x="326" y="267" on="1"/>
        <pt x="326" y="369" on="1"/>
        <pt x="591" y="369" on="1"/>
      </contour>
      <contour>
        <pt x="493" y="703" on="1"/>
        <pt x="395" y="703" on="1"/>
        <pt x="342" y="790" on="1"/>
        <pt x="290" y="703" on="1"/>
        <pt x="192" y="703" on="1"/>
        <pt x="248" y="830" on="1"/>
        <pt x="435" y="830" on="1"/>
      </contour>
    </TTGlyph>
    <TTGlyph name="Gcommaaccent" xMin="56" yMin="-208" xMax="649" yMax="659">
      <contour>
        <pt x="649" y="32" on="1"/>
        <pt x="599" y="14" on="0"/>
        <pt x="444" y="-10" on="0"/>
        <pt x="379" y="-10" on="1"/>
        <pt x="325" y="-10" on="0"/>
        <pt x="238" y="-1" on="0"/>
        <pt x="151" y="24" on="0"/>
        <pt x="92" y="64" on="0"/>
        <pt x="56" y="132" on="0"/>
        <pt x="56" y="178" on="1"/>
        <pt x="56" y="448" on="1"/>
        <pt x="56" y="499" on="0"/>
        <pt x="98" y="577" on="0"/>
        <pt x="162" y="621" on="0"/>
        <pt x="252" y="650" on="0"/>
        <pt x="335" y="659" on="0"/>
        <pt x="381" y="659" on="1"/>
        <pt x="519" y="659" on="0"/>
        <pt x="645" y="638" on="1"/>
        <pt x="645" y="520" on="1"/>
        <pt x="526" y="548" on="0"/>
        <pt x="381" y="548" on="1"/>
        <pt x="212" y="548" on="0"/>
        <pt x="212" y="450" on="1"/>
        <pt x="212" y="189" on="1"/>
        <pt x="212" y="139" on="0"/>
        <pt x="307" y="101" on="0"/>
        <pt x="395" y="101" on="1"/>
        <pt x="444" y="101" on="0"/>
        <pt x="500" y="116" on="1"/>
        <pt x="500" y="267" on="1"/>
        <pt x="394" y="267" on="1"/>
        <pt x="394" y="369" on="1"/>
        <pt x="649" y="369" on="1"/>
      </contour>
      <contour>
        <pt x="442" y="-46" on="1"/>
        <pt x="359" y="-208" on="1"/>
        <pt x="263" y="-208" on="1"/>
        <pt x="309" y="-46" on="1"/>
      </contour>
    </TTGlyph>
    <TTGlyph name="Gdotaccent" xMin="50" yMin="-10" xMax="591" yMax="830">
      <contour>
        <pt x="591" y="12" on="1"/>
        <pt x="481" y="-10" on="0"/>
        <pt x="361" y="-10" on="1"/>
        <pt x="321" y="-10" on="0"/>
        <pt x="248" y="-3" on="0"/>
        <pt x="158" y="20" on="0"/>
        <pt x="94" y="59" on="0"/>
        <pt x="50" y="130" on="0"/>
        <pt x="50" y="178" on="1"/>
        <pt x="50" y="463" on="1"/>
        <pt x="50" y="513" on="0"/>
        <pt x="95" y="589" on="0"/>
        <pt x="160" y="629" on="0"/>
        <pt x="251" y="654" on="0"/>
        <pt x="322" y="660" on="0"/>
        <pt x="361" y="660" on="1"/>
        <pt x="455" y="660" on="0"/>
        <pt x="587" y="638" on="1"/>
        <pt x="587" y="527" on="1"/>
        <pt x="468" y="555" on="0"/>
        <pt x="363" y="555" on="1"/>
        <pt x="336" y="555" on="0"/>
        <pt x="298" y="553" on="0"/>
        <pt x="250" y="543" on="0"/>
        <pt x="220" y="527" on="0"/>
        <pt x="199" y="494" on="0"/>
        <pt x="199" y="472" on="1"/>
        <pt x="199" y="181" on="1"/>
        <pt x="199" y="155" on="0"/>
        <pt x="233" y="119" on="0"/>
        <pt x="289" y="101" on="0"/>
        <pt x="346" y="93" on="0"/>
        <pt x="377" y="93" on="1"/>
        <pt x="404" y="93" on="0"/>
        <pt x="452" y="98" on="1"/>
        <pt x="452" y="267" on="1"/>
        <pt x="326" y="267" on="1"/>
        <pt x="326" y="369" on="1"/>
        <pt x="591" y="369" on="1"/>
      </contour>
      <contour>
        <pt x="432" y="715" on="1"/>
        <pt x="286" y="715" on="1"/>
        <pt x="286" y="830" on="1"/>
        <pt x="432" y="830" on="1"/>
      </contour>
    </TTGlyph>
    <TTGlyph name="H" xMin="70" yMin="0" xMax="658" yMax="649">
      <contour>
        <pt x="658" y="0" on="1"/>
        <pt x="502" y="0" on="1"/>
        <pt x="502" y="278" on="1"/>
        <pt x="226" y="278" on="1"/>
        <pt x="226" y="0" on="1"/>
        <pt x="70" y="0" on="1"/>
        <pt x="70" y="649" on="1"/>
        <pt x="226" y="649" on="1"/>
        <pt x="226" y="389" on="1"/>
        <pt x="502" y="389" on="1"/>
        <pt x="502" y="649" on="1"/>
        <pt x="658" y="649" on="1"/>
      </contour>
    </TTGlyph>
    <TTGlyph name="Hbar" xMin="70" yMin="0" xMax="658" yMax="649">
      <contour>
        <pt x="658" y="0" on="1"/>
        <pt x="502" y="0" on="1"/>
        <pt x="502" y="208" on="1"/>
        <pt x="226" y="208" on="1"/>
        <pt x="226" y="0" on="1"/>
        <pt x="70" y="0" on="1"/>
        <pt x="70" y="649" on="1"/>
        <pt x="226" y="649" on="1"/>
        <pt x="226" y="485" on="1"/>
        <pt x="502" y="485" on="1"/>
        <pt x="502" y="649" on="1"/>
        <pt x="658" y="649" on="1"/>
      </contour>
      <contour>
        <pt x="226" y="383" on="1"/>
        <pt x="226" y="310" on="1"/>
        <pt x="502" y="310" on="1"/>
        <pt x="502" y="383" on="1"/>
      </contour>
    </TTGlyph>
    <TTGlyph name="Hcircumflex" xMin="70" yMin="0" xMax="658" yMax="845">
      <contour>
        <pt x="658" y="0" on="1"/>
        <pt x="502" y="0" on="1"/>
        <pt x="502" y="278" on="1"/>
        <pt x="226" y="278" on="1"/>
        <pt x="226" y="0" on="1"/>
        <pt x="70" y="0" on="1"/>
        <pt x="70" y="649" on="1"/>
        <pt x="226" y="649" on="1"/>
        <pt x="226" y="389" on="1"/>
        <pt x="502" y="389" on="1"/>
        <pt x="502" y="649" on="1"/>
        <pt x="658" y="649" on="1"/>
      </contour>
      <contour>
        <pt x="514" y="718" on="1"/>
        <pt x="416" y="718" on="1"/>
        <pt x="363" y="805" on="1"/>
        <pt x="311" y="718" on="1"/>
        <pt x="213" y="718" on="1"/>
        <pt x="269" y="845" on="1"/>
        <pt x="456" y="845" on="1"/>
      </contour>
    </TTGlyph>
    <TTGlyph name="I" xMin="70" yMin="0" xMax="226" yMax="649">
      <contour>
        <pt x="226" y="0" on="1"/>
        <pt x="70" y="0" on="1"/>
        <pt x="70" y="649" on="1"/>
        <pt x="226" y="649" on="1"/>
      </contour>
    </TTGlyph>
    <TTGlyph name="IJ" xMin="70" yMin="-10" xMax="673" yMax="649">
      <contour>
        <pt x="226" y="0" on="1"/>
        <pt x="70" y="0" on="1"/>
        <pt x="70" y="649" on="1"/>
        <pt x="226" y="649" on="1"/>
      </contour>
      <contour>
        <pt x="673" y="649" on="1"/>
        <pt x="673" y="177" on="1"/>
        <pt x="673" y="72" on="0"/>
        <pt x="559" y="-10" on="0"/>
        <pt x="450" y="-10" on="1"/>
        <pt x="385" y="-10" on="0"/>
        <pt x="315" y="0" on="1"/>
        <pt x="315" y="114" on="1"/>
        <pt x="389" y="101" on="0"/>
        <pt x="438" y="101" on="1"/>
        <pt x="517" y="101" on="0"/>
        <pt x="517" y="172" on="1"/>
        <pt x="517" y="649" on="1"/>
      </contour>
    </TTGlyph>
    <TTGlyph name="Iacute" xMin="24" yMin="0" xMax="273" yMax="845">
      <contour>
        <pt x="226" y="0" on="1"/>
        <pt x="70" y="0" on="1"/>
        <pt x="70" y="649" on="1"/>
        <pt x="226" y="649" on="1"/>
      </contour>
      <contour>
        <pt x="273" y="845" on="1"/>
        <pt x="148" y="718" on="1"/>
        <pt x="24" y="718" on="1"/>
        <pt x="114" y="845" on="1"/>
      </contour>
    </TTGlyph>
    <TTGlyph name="Ibreve" xMin="10" yMin="0" xMax="286" yMax="845">
      <contour>
        <pt x="226" y="0" on="1"/>
        <pt x="70" y="0" on="1"/>
        <pt x="70" y="649" on="1"/>
        <pt x="226" y="649" on="1"/>
      </contour>
      <contour>
        <pt x="286" y="845" on="1"/>
        <pt x="282" y="788" on="0"/>
        <pt x="209" y="718" on="0"/>
        <pt x="148" y="718" on="1"/>
        <pt x="86" y="718" on="0"/>
        <pt x="13" y="788" on="0"/>
        <pt x="10" y="845" on="1"/>
        <pt x="91" y="845" on="1"/>
        <pt x="97" y="816" on="0"/>
        <pt x="121" y="790" on="0"/>
        <pt x="148" y="790" on="1"/>
        <pt x="198" y="790" on="0"/>
        <pt x="204" y="845" on="1"/>
      </contour>
    </TTGlyph>
    <TTGlyph name="Icircumflex" xMin="-2" yMin="0" xMax="299" yMax="845">
      <contour>
        <pt x="226" y="0" on="1"/>
        <pt x="70" y="0" on="1"/>
        <pt x="70" y="649" on="1"/>
        <pt x="226" y="649" on="1"/>
      </contour>
      <contour>
        <pt x="299" y="718" on="1"/>
        <pt x="201" y="718" on="1"/>
        <pt x="148" y="805" on="1"/>
        <pt x="96" y="718" on="1"/>
        <pt x="-2" y="718" on="1"/>
        <pt x="54" y="845" on="1"/>
        <pt x="241" y="845" on="1"/>
      </contour>
    </TTGlyph>
    <TTGlyph name="Idieresis" xMin="-10" yMin="0" xMax="306" yMax="848">
      <contour>
        <pt x="226" y="0" on="1"/>
        <pt x="70" y="0" on="1"/>
        <pt x="70" y="649" on="1"/>
        <pt x="226" y="649" on="1"/>
      </contour>
      <contour>
        <pt x="306" y="730" on="1"/>
        <pt x="180" y="730" on="1"/>
        <pt x="180" y="848" on="1"/>
        <pt x="306" y="848" on="1"/>
      </contour>
      <contour>
        <pt x="116" y="730" on="1"/>
        <pt x="-10" y="730" on="1"/>
        <pt x="-10" y="848" on="1"/>
        <pt x="116" y="848" on="1"/>
      </contour>
    </TTGlyph>
    <TTGlyph name="Idotaccent" xMin="70" yMin="0" xMax="226" yMax="845">
      <contour>
        <pt x="226" y="0" on="1"/>
        <pt x="70" y="0" on="1"/>
        <pt x="70" y="649" on="1"/>
        <pt x="226" y="649" on="1"/>
      </contour>
      <contour>
        <pt x="221" y="730" on="1"/>
        <pt x="75" y="730" on="1"/>
        <pt x="75" y="845" on="1"/>
        <pt x="221" y="845" on="1"/>
      </contour>
    </TTGlyph>
    <TTGlyph name="Igrave" xMin="24" yMin="0" xMax="273" yMax="845">
      <contour>
        <pt x="226" y="0" on="1"/>
        <pt x="70" y="0" on="1"/>
        <pt x="70" y="649" on="1"/>
        <pt x="226" y="649" on="1"/>
      </contour>
      <contour>
        <pt x="273" y="718" on="1"/>
        <pt x="149" y="718" on="1"/>
        <pt x="24" y="845" on="1"/>
        <pt x="183" y="845" on="1"/>
      </contour>
    </TTGlyph>
    <TTGlyph name="Imacron" xMin="9" yMin="0" xMax="287" yMax="814">
      <contour>
        <pt x="226" y="0" on="1"/>
        <pt x="70" y="0" on="1"/>
        <pt x="70" y="649" on="1"/>
        <pt x="226" y="649" on="1"/>
      </contour>
      <contour>
        <pt x="287" y="725" on="1"/>
        <pt x="9" y="725" on="1"/>
        <pt x="9" y="814" on="1"/>
        <pt x="287" y="814" on="1"/>
      </contour>
    </TTGlyph>
    <TTGlyph name="Iogonek" xMin="39" yMin="-186" xMax="226" yMax="649">
      <contour>
        <pt x="226" y="0" on="1"/>
        <pt x="192" y="-11" on="0"/>
        <pt x="140" y="-59" on="0"/>
        <pt x="140" y="-83" on="1"/>
        <pt x="140" y="-99" on="0"/>
        <pt x="156" y="-115" on="0"/>
        <pt x="178" y="-115" on="1"/>
        <pt x="190" y="-115" on="0"/>
        <pt x="208" y="-109" on="1"/>
        <pt x="208" y="-176" on="1"/>
        <pt x="187" y="-186" on="0"/>
        <pt x="89" y="-186" on="0"/>
        <pt x="39" y="-149" on="0"/>
        <pt x="39" y="-106" on="1"/>
        <pt x="39" y="-48" on="0"/>
        <pt x="70" y="0" on="1"/>
        <pt x="70" y="649" on="1"/>
        <pt x="226" y="649" on="1"/>
      </contour>
    </TTGlyph>
    <TTGlyph name="Iota" xMin="70" yMin="0" xMax="226" yMax="649">
      <contour>
        <pt x="226" y="0" on="1"/>
        <pt x="70" y="0" on="1"/>
        <pt x="70" y="649" on="1"/>
        <pt x="226" y="649" on="1"/>
      </contour>
    </TTGlyph>
    <TTGlyph name="Iotadieresis" xMin="-10" yMin="0" xMax="306" yMax="848">
      <contour>
        <pt x="226" y="0" on="1"/>
        <pt x="70" y="0" on="1"/>
        <pt x="70" y="649" on="1"/>
        <pt x="226" y="649" on="1"/>
      </contour>
      <contour>
        <pt x="306" y="730" on="1"/>
        <pt x="180" y="730" on="1"/>
        <pt x="180" y="848" on="1"/>
        <pt x="306" y="848" on="1"/>
      </contour>
      <contour>
        <pt x="116" y="730" on="1"/>
        <pt x="-10" y="730" on="1"/>
        <pt x="-10" y="848" on="1"/>
        <pt x="116" y="848" on="1"/>
      </contour>
    </TTGlyph>
    <TTGlyph name="Iotatonos" xMin="0" yMin="0" xMax="367" yMax="658">
      <contour>
        <pt x="367" y="0" on="1"/>
        <pt x="211" y="0" on="1"/>
        <pt x="211" y="649" on="1"/>
        <pt x="367" y="649" on="1"/>
      </contour>
      <contour>
        <pt x="125" y="486" on="1"/>
        <pt x="39" y="486" on="1"/>
        <pt x="0" y="658" on="1"/>
        <pt x="164" y="658" on="1"/>
      </contour>
    </TTGlyph>
    <TTGlyph name="Itilde" xMin="4" yMin="0" xMax="293" yMax="857">
      <contour>
        <pt x="226" y="0" on="1"/>
        <pt x="70" y="0" on="1"/>
        <pt x="70" y="649" on="1"/>
        <pt x="226" y="649" on="1"/>
      </contour>
      <contour>
        <pt x="211" y="824" on="1"/>
        <pt x="239" y="824" on="0"/>
        <pt x="252" y="857" on="1"/>
        <pt x="293" y="833" on="1"/>
        <pt x="286" y="809" on="0"/>
        <pt x="238" y="751" on="0"/>
        <pt x="202" y="751" on="1"/>
        <pt x="177" y="751" on="0"/>
        <pt x="97" y="784" on="0"/>
        <pt x="86" y="784" on="1"/>
        <pt x="57" y="784" on="0"/>
        <pt x="44" y="751" on="1"/>
        <pt x="4" y="775" on="1"/>
        <pt x="10" y="798" on="0"/>
        <pt x="59" y="854" on="0"/>
        <pt x="95" y="854" on="1"/>
        <pt x="118" y="854" on="0"/>
        <pt x="195" y="824" on="0"/>
      </contour>
    </TTGlyph>
    <TTGlyph name="J" xMin="19" yMin="-10" xMax="377" yMax="649">
      <contour>
        <pt x="377" y="649" on="1"/>
        <pt x="377" y="177" on="1"/>
        <pt x="377" y="72" on="0"/>
        <pt x="263" y="-10" on="0"/>
        <pt x="154" y="-10" on="1"/>
        <pt x="89" y="-10" on="0"/>
        <pt x="19" y="0" on="1"/>
        <pt x="19" y="114" on="1"/>
        <pt x="93" y="101" on="0"/>
        <pt x="142" y="101" on="1"/>
        <pt x="221" y="101" on="0"/>
        <pt x="221" y="172" on="1"/>
        <pt x="221" y="649" on="1"/>
      </contour>
    </TTGlyph>
    <TTGlyph name="Jcircumflex" xMin="19" yMin="-10" xMax="449" yMax="845">
      <contour>
        <pt x="377" y="649" on="1"/>
        <pt x="377" y="177" on="1"/>
        <pt x="377" y="72" on="0"/>
        <pt x="263" y="-10" on="0"/>
        <pt x="154" y="-10" on="1"/>
        <pt x="89" y="-10" on="0"/>
        <pt x="19" y="0" on="1"/>
        <pt x="19" y="114" on="1"/>
        <pt x="93" y="101" on="0"/>
        <pt x="142" y="101" on="1"/>
        <pt x="221" y="101" on="0"/>
        <pt x="221" y="172" on="1"/>
        <pt x="221" y="649" on="1"/>
      </contour>
      <contour>
        <pt x="449" y="718" on="1"/>
        <pt x="351" y="718" on="1"/>
        <pt x="298" y="805" on="1"/>
        <pt x="246" y="718" on="1"/>
        <pt x="148" y="718" on="1"/>
        <pt x="204" y="845" on="1"/>
        <pt x="391" y="845" on="1"/>
      </contour>
    </TTGlyph>
    <TTGlyph name="K" xMin="70" yMin="0" xMax="683" yMax="649">
      <contour>
        <pt x="683" y="0" on="1"/>
        <pt x="493" y="0" on="1"/>
        <pt x="230" y="344" on="1"/>
        <pt x="473" y="649" on="1"/>
        <pt x="656" y="649" on="1"/>
        <pt x="410" y="347" on="1"/>
      </contour>
      <contour>
        <pt x="226" y="0" on="1"/>
        <pt x="70" y="0" on="1"/>
        <pt x="70" y="649" on="1"/>
        <pt x="226" y="649" on="1"/>
      </contour>
    </TTGlyph>
    <TTGlyph name="K.alt" xMin="70" yMin="0" xMax="683" yMax="649">
      <contour>
        <pt x="683" y="0" on="1"/>
        <pt x="493" y="0" on="1"/>
        <pt x="230" y="344" on="1"/>
        <pt x="473" y="649" on="1"/>
        <pt x="656" y="649" on="1"/>
        <pt x="410" y="347" on="1"/>
      </contour>
      <contour>
        <pt x="226" y="0" on="1"/>
        <pt x="70" y="0" on="1"/>
        <pt x="70" y="649" on="1"/>
        <pt x="226" y="649" on="1"/>
      </contour>
    </TTGlyph>
    <TTGlyph name="Kappa" xMin="70" yMin="0" xMax="673" yMax="649">
      <contour>
        <pt x="70" y="0" on="1"/>
        <pt x="70" y="649" on="1"/>
        <pt x="223" y="649" on="1"/>
        <pt x="223" y="390" on="1"/>
        <pt x="260" y="390" on="0"/>
        <pt x="292" y="404" on="0"/>
        <pt x="306" y="427" on="1"/>
        <pt x="375" y="541" on="1"/>
        <pt x="417" y="610" on="0"/>
        <pt x="486" y="649" on="0"/>
        <pt x="568" y="649" on="1"/>
        <pt x="639" y="649" on="1"/>
        <pt x="639" y="538" on="1"/>
        <pt x="598" y="538" on="1"/>
        <pt x="548" y="538" on="0"/>
        <pt x="520" y="523" on="0"/>
        <pt x="497" y="486" on="1"/>
        <pt x="457" y="421" on="1"/>
        <pt x="438" y="391" on="0"/>
        <pt x="407" y="364" on="0"/>
        <pt x="384" y="355" on="1"/>
        <pt x="409" y="349" on="0"/>
        <pt x="489" y="275" on="0"/>
        <pt x="531" y="212" on="1"/>
        <pt x="673" y="0" on="1"/>
        <pt x="492" y="0" on="1"/>
        <pt x="368" y="191" on="1"/>
        <pt x="329" y="251" on="0"/>
        <pt x="274" y="282" on="0"/>
        <pt x="223" y="282" on="1"/>
        <pt x="223" y="0" on="1"/>
      </contour>
    </TTGlyph>
    <TTGlyph name="Kcommaaccent" xMin="70" yMin="-208" xMax="683" yMax="649">
      <contour>
        <pt x="683" y="0" on="1"/>
        <pt x="493" y="0" on="1"/>
        <pt x="230" y="344" on="1"/>
        <pt x="473" y="649" on="1"/>
        <pt x="656" y="649" on="1"/>
        <pt x="410" y="347" on="1"/>
      </contour>
      <contour>
        <pt x="226" y="0" on="1"/>
        <pt x="70" y="0" on="1"/>
        <pt x="70" y="649" on="1"/>
        <pt x="226" y="649" on="1"/>
      </contour>
      <contour>
        <pt x="430" y="-46" on="1"/>
        <pt x="347" y="-208" on="1"/>
        <pt x="251" y="-208" on="1"/>
        <pt x="297" y="-46" on="1"/>
      </contour>
    </TTGlyph>
    <TTGlyph name="Kcommaaccent.alt" xMin="70" yMin="-208" xMax="683" yMax="649">
      <contour>
        <pt x="683" y="0" on="1"/>
        <pt x="493" y="0" on="1"/>
        <pt x="230" y="344" on="1"/>
        <pt x="473" y="649" on="1"/>
        <pt x="656" y="649" on="1"/>
        <pt x="410" y="347" on="1"/>
      </contour>
      <contour>
        <pt x="226" y="0" on="1"/>
        <pt x="70" y="0" on="1"/>
        <pt x="70" y="649" on="1"/>
        <pt x="226" y="649" on="1"/>
      </contour>
      <contour>
        <pt x="431" y="-46" on="1"/>
        <pt x="348" y="-208" on="1"/>
        <pt x="252" y="-208" on="1"/>
        <pt x="298" y="-46" on="1"/>
      </contour>
    </TTGlyph>
    <TTGlyph name="L" xMin="70" yMin="0" xMax="545" yMax="649">
      <contour>
        <pt x="545" y="0" on="1"/>
        <pt x="70" y="0" on="1"/>
        <pt x="70" y="649" on="1"/>
        <pt x="226" y="649" on="1"/>
        <pt x="226" y="111" on="1"/>
        <pt x="545" y="111" on="1"/>
      </contour>
    </TTGlyph>
    <TTGlyph name="Lacute" xMin="70" yMin="0" xMax="545" yMax="845">
      <contour>
        <pt x="545" y="0" on="1"/>
        <pt x="70" y="0" on="1"/>
        <pt x="70" y="649" on="1"/>
        <pt x="226" y="649" on="1"/>
        <pt x="226" y="111" on="1"/>
        <pt x="545" y="111" on="1"/>
      </contour>
      <contour>
        <pt x="341" y="845" on="1"/>
        <pt x="216" y="718" on="1"/>
        <pt x="92" y="718" on="1"/>
        <pt x="182" y="845" on="1"/>
      </contour>
    </TTGlyph>
    <TTGlyph name="Lambda" xMin="2" yMin="0" xMax="666" yMax="649">
      <contour>
        <pt x="508" y="0" on="1"/>
        <pt x="334" y="519" on="1"/>
        <pt x="330" y="519" on="1"/>
        <pt x="156" y="0" on="1"/>
        <pt x="2" y="0" on="1"/>
        <pt x="242" y="649" on="1"/>
        <pt x="432" y="649" on="1"/>
        <pt x="666" y="0" on="1"/>
      </contour>
    </TTGlyph>
    <TTGlyph name="Lcaron" xMin="70" yMin="0" xMax="545" yMax="649">
      <contour>
        <pt x="545" y="0" on="1"/>
        <pt x="70" y="0" on="1"/>
        <pt x="70" y="649" on="1"/>
        <pt x="226" y="649" on="1"/>
        <pt x="226" y="111" on="1"/>
        <pt x="545" y="111" on="1"/>
      </contour>
      <contour>
        <pt x="417" y="649" on="1"/>
        <pt x="353" y="486" on="1"/>
        <pt x="257" y="486" on="1"/>
        <pt x="283" y="649" on="1"/>
      </contour>
    </TTGlyph>
    <TTGlyph name="Lcommaaccent" xMin="70" yMin="-208" xMax="545" yMax="649">
      <contour>
        <pt x="545" y="0" on="1"/>
        <pt x="70" y="0" on="1"/>
        <pt x="70" y="649" on="1"/>
        <pt x="226" y="649" on="1"/>
        <pt x="226" y="111" on="1"/>
        <pt x="545" y="111" on="1"/>
      </contour>
      <contour>
        <pt x="379" y="-46" on="1"/>
        <pt x="296" y="-208" on="1"/>
        <pt x="200" y="-208" on="1"/>
        <pt x="246" y="-46" on="1"/>
      </contour>
    </TTGlyph>
    <TTGlyph name="Ldot" xMin="70" yMin="0" xMax="545" yMax="649">
      <contour>
        <pt x="545" y="0" on="1"/>
        <pt x="70" y="0" on="1"/>
        <pt x="70" y="649" on="1"/>
        <pt x="226" y="649" on="1"/>
        <pt x="226" y="111" on="1"/>
        <pt x="545" y="111" on="1"/>
      </contour>
      <contour>
        <pt x="420" y="265" on="1"/>
        <pt x="273" y="265" on="1"/>
        <pt x="273" y="403" on="1"/>
        <pt x="420" y="403" on="1"/>
      </contour>
    </TTGlyph>
    <TTGlyph name="Lslash" xMin="10" yMin="0" xMax="545" yMax="649">
      <contour>
        <pt x="545" y="0" on="1"/>
        <pt x="70" y="0" on="1"/>
        <pt x="70" y="240" on="1"/>
        <pt x="10" y="223" on="1"/>
        <pt x="10" y="328" on="1"/>
        <pt x="70" y="345" on="1"/>
        <pt x="70" y="649" on="1"/>
        <pt x="226" y="649" on="1"/>
        <pt x="226" y="390" on="1"/>
        <pt x="356" y="428" on="1"/>
        <pt x="356" y="323" on="1"/>
        <pt x="226" y="285" on="1"/>
        <pt x="226" y="111" on="1"/>
        <pt x="545" y="111" on="1"/>
      </contour>
    </TTGlyph>
    <TTGlyph name="M" xMin="70" yMin="0" xMax="819" yMax="649">
      <contour>
        <pt x="819" y="0" on="1"/>
        <pt x="678" y="0" on="1"/>
        <pt x="678" y="480" on="1"/>
        <pt x="675" y="480" on="1"/>
        <pt x="511" y="0" on="1"/>
        <pt x="386" y="0" on="1"/>
        <pt x="217" y="480" on="1"/>
        <pt x="213" y="480" on="1"/>
        <pt x="213" y="0" on="1"/>
        <pt x="70" y="0" on="1"/>
        <pt x="70" y="649" on="1"/>
        <pt x="292" y="649" on="1"/>
        <pt x="452" y="185" on="1"/>
        <pt x="610" y="649" on="1"/>
        <pt x="819" y="649" on="1"/>
      </contour>
    </TTGlyph>
    <TTGlyph name="Mu" xMin="70" yMin="0" xMax="819" yMax="649">
      <contour>
        <pt x="819" y="0" on="1"/>
        <pt x="678" y="0" on="1"/>
        <pt x="678" y="480" on="1"/>
        <pt x="675" y="480" on="1"/>
        <pt x="511" y="0" on="1"/>
        <pt x="386" y="0" on="1"/>
        <pt x="217" y="480" on="1"/>
        <pt x="213" y="480" on="1"/>
        <pt x="213" y="0" on="1"/>
        <pt x="70" y="0" on="1"/>
        <pt x="70" y="649" on="1"/>
        <pt x="292" y="649" on="1"/>
        <pt x="452" y="185" on="1"/>
        <pt x="610" y="649" on="1"/>
        <pt x="819" y="649" on="1"/>
      </contour>
    </TTGlyph>
    <TTGlyph name="N" xMin="70" yMin="0" xMax="681" yMax="649">
      <contour>
        <pt x="681" y="0" on="1"/>
        <pt x="523" y="0" on="1"/>
        <pt x="209" y="450" on="1"/>
        <pt x="209" y="0" on="1"/>
        <pt x="70" y="0" on="1"/>
        <pt x="70" y="649" on="1"/>
        <pt x="228" y="649" on="1"/>
        <pt x="542" y="206" on="1"/>
        <pt x="542" y="649" on="1"/>
        <pt x="681" y="649" on="1"/>
      </contour>
    </TTGlyph>
    <TTGlyph name="Nacute" xMin="70" yMin="0" xMax="681" yMax="845">
      <contour>
        <pt x="681" y="0" on="1"/>
        <pt x="523" y="0" on="1"/>
        <pt x="209" y="450" on="1"/>
        <pt x="209" y="0" on="1"/>
        <pt x="70" y="0" on="1"/>
        <pt x="70" y="649" on="1"/>
        <pt x="228" y="649" on="1"/>
        <pt x="542" y="206" on="1"/>
        <pt x="542" y="649" on="1"/>
        <pt x="681" y="649" on="1"/>
      </contour>
      <contour>
        <pt x="500" y="845" on="1"/>
        <pt x="375" y="718" on="1"/>
        <pt x="251" y="718" on="1"/>
        <pt x="341" y="845" on="1"/>
      </contour>
    </TTGlyph>
    <TTGlyph name="Ncaron" xMin="70" yMin="0" xMax="681" yMax="830">
      <contour>
        <pt x="681" y="0" on="1"/>
        <pt x="523" y="0" on="1"/>
        <pt x="209" y="450" on="1"/>
        <pt x="209" y="0" on="1"/>
        <pt x="70" y="0" on="1"/>
        <pt x="70" y="649" on="1"/>
        <pt x="228" y="649" on="1"/>
        <pt x="542" y="206" on="1"/>
        <pt x="542" y="649" on="1"/>
        <pt x="681" y="649" on="1"/>
      </contour>
      <contour>
        <pt x="519" y="830" on="1"/>
        <pt x="463" y="703" on="1"/>
        <pt x="276" y="703" on="1"/>
        <pt x="218" y="830" on="1"/>
        <pt x="316" y="830" on="1"/>
        <pt x="369" y="743" on="1"/>
        <pt x="421" y="830" on="1"/>
      </contour>
    </TTGlyph>
    <TTGlyph name="Ncommaaccent" xMin="70" yMin="-208" xMax="681" yMax="649">
      <contour>
        <pt x="681" y="0" on="1"/>
        <pt x="523" y="0" on="1"/>
        <pt x="209" y="450" on="1"/>
        <pt x="209" y="0" on="1"/>
        <pt x="70" y="0" on="1"/>
        <pt x="70" y="649" on="1"/>
        <pt x="228" y="649" on="1"/>
        <pt x="542" y="206" on="1"/>
        <pt x="542" y="649" on="1"/>
        <pt x="681" y="649" on="1"/>
      </contour>
      <contour>
        <pt x="465" y="-46" on="1"/>
        <pt x="382" y="-208" on="1"/>
        <pt x="286" y="-208" on="1"/>
        <pt x="332" y="-46" on="1"/>
      </contour>
    </TTGlyph>
    <TTGlyph name="Ntilde" xMin="70" yMin="0" xMax="681" yMax="857">
      <contour>
        <pt x="681" y="0" on="1"/>
        <pt x="523" y="0" on="1"/>
        <pt x="209" y="450" on="1"/>
        <pt x="209" y="0" on="1"/>
        <pt x="70" y="0" on="1"/>
        <pt x="70" y="649" on="1"/>
        <pt x="228" y="649" on="1"/>
        <pt x="542" y="206" on="1"/>
        <pt x="542" y="649" on="1"/>
        <pt x="681" y="649" on="1"/>
      </contour>
      <contour>
        <pt x="438" y="824" on="1"/>
        <pt x="466" y="824" on="0"/>
        <pt x="479" y="857" on="1"/>
        <pt x="520" y="833" on="1"/>
        <pt x="513" y="809" on="0"/>
        <pt x="465" y="751" on="0"/>
        <pt x="429" y="751" on="1"/>
        <pt x="404" y="751" on="0"/>
        <pt x="324" y="784" on="0"/>
        <pt x="313" y="784" on="1"/>
        <pt x="284" y="784" on="0"/>
        <pt x="271" y="751" on="1"/>
        <pt x="231" y="775" on="1"/>
        <pt x="237" y="798" on="0"/>
        <pt x="286" y="854" on="0"/>
        <pt x="322" y="854" on="1"/>
        <pt x="345" y="854" on="0"/>
        <pt x="422" y="824" on="0"/>
      </contour>
    </TTGlyph>
    <TTGlyph name="Nu" xMin="70" yMin="0" xMax="681" yMax="649">
      <contour>
        <pt x="681" y="0" on="1"/>
        <pt x="523" y="0" on="1"/>
        <pt x="209" y="450" on="1"/>
        <pt x="209" y="0" on="1"/>
        <pt x="70" y="0" on="1"/>
        <pt x="70" y="649" on="1"/>
        <pt x="228" y="649" on="1"/>
        <pt x="542" y="206" on="1"/>
        <pt x="542" y="649" on="1"/>
        <pt x="681" y="649" on="1"/>
      </contour>
    </TTGlyph>
    <TTGlyph name="O" xMin="56" yMin="-10" xMax="672" yMax="659">
      <contour>
        <pt x="672" y="462" on="1"/>
        <pt x="672" y="178" on="1"/>
        <pt x="672" y="123" on="0"/>
        <pt x="614" y="45" on="0"/>
        <pt x="516" y="6" on="0"/>
        <pt x="418" y="-10" on="0"/>
        <pt x="363" y="-10" on="1"/>
        <pt x="311" y="-10" on="0"/>
        <pt x="220" y="3" on="0"/>
        <pt x="117" y="39" on="0"/>
        <pt x="56" y="119" on="0"/>
        <pt x="56" y="178" on="1"/>
        <pt x="56" y="462" on="1"/>
        <pt x="56" y="512" on="0"/>
        <pt x="101" y="588" on="0"/>
        <pt x="164" y="628" on="0"/>
        <pt x="254" y="653" on="0"/>
        <pt x="324" y="659" on="0"/>
        <pt x="363" y="659" on="1"/>
        <pt x="403" y="659" on="0"/>
        <pt x="474" y="653" on="0"/>
        <pt x="564" y="628" on="0"/>
        <pt x="628" y="588" on="0"/>
        <pt x="672" y="513" on="0"/>
      </contour>
      <contour>
        <pt x="516" y="178" on="1"/>
        <pt x="516" y="463" on="1"/>
        <pt x="516" y="510" on="0"/>
        <pt x="439" y="548" on="0"/>
        <pt x="364" y="548" on="1"/>
        <pt x="288" y="548" on="0"/>
        <pt x="212" y="511" on="0"/>
        <pt x="212" y="463" on="1"/>
        <pt x="212" y="178" on="1"/>
        <pt x="212" y="153" on="0"/>
        <pt x="238" y="120" on="0"/>
        <pt x="287" y="106" on="0"/>
        <pt x="332" y="101" on="0"/>
        <pt x="398" y="101" on="0"/>
        <pt x="443" y="106" on="0"/>
        <pt x="491" y="120" on="0"/>
        <pt x="516" y="153" on="0"/>
      </contour>
    </TTGlyph>
    <TTGlyph name="OE" xMin="56" yMin="0" xMax="941" yMax="649">
      <contour>
        <pt x="941" y="0" on="1"/>
        <pt x="326" y="0" on="1"/>
        <pt x="56" y="0" on="0"/>
        <pt x="56" y="188" on="1"/>
        <pt x="56" y="452" on="1"/>
        <pt x="56" y="649" on="0"/>
        <pt x="346" y="649" on="1"/>
        <pt x="931" y="649" on="1"/>
        <pt x="931" y="538" on="1"/>
        <pt x="609" y="538" on="1"/>
        <pt x="609" y="389" on="1"/>
        <pt x="898" y="389" on="1"/>
        <pt x="898" y="278" on="1"/>
        <pt x="609" y="278" on="1"/>
        <pt x="609" y="111" on="1"/>
        <pt x="941" y="111" on="1"/>
      </contour>
      <contour>
        <pt x="456" y="111" on="1"/>
        <pt x="456" y="538" on="1"/>
        <pt x="357" y="538" on="1"/>
        <pt x="327" y="538" on="0"/>
        <pt x="286" y="534" on="0"/>
        <pt x="233" y="519" on="0"/>
        <pt x="205" y="482" on="0"/>
        <pt x="205" y="453" on="1"/>
        <pt x="205" y="188" on="1"/>
        <pt x="205" y="161" on="0"/>
        <pt x="234" y="127" on="0"/>
        <pt x="291" y="114" on="0"/>
        <pt x="328" y="111" on="0"/>
        <pt x="358" y="111" on="1"/>
      </contour>
    </TTGlyph>
    <TTGlyph name="Oacute" xMin="56" yMin="-10" xMax="672" yMax="845">
      <contour>
        <pt x="672" y="462" on="1"/>
        <pt x="672" y="178" on="1"/>
        <pt x="672" y="123" on="0"/>
        <pt x="614" y="45" on="0"/>
        <pt x="516" y="6" on="0"/>
        <pt x="418" y="-10" on="0"/>
        <pt x="363" y="-10" on="1"/>
        <pt x="311" y="-10" on="0"/>
        <pt x="220" y="3" on="0"/>
        <pt x="117" y="39" on="0"/>
        <pt x="56" y="119" on="0"/>
        <pt x="56" y="178" on="1"/>
        <pt x="56" y="462" on="1"/>
        <pt x="56" y="512" on="0"/>
        <pt x="101" y="588" on="0"/>
        <pt x="164" y="628" on="0"/>
        <pt x="254" y="653" on="0"/>
        <pt x="324" y="659" on="0"/>
        <pt x="363" y="659" on="1"/>
        <pt x="403" y="659" on="0"/>
        <pt x="474" y="653" on="0"/>
        <pt x="564" y="628" on="0"/>
        <pt x="628" y="588" on="0"/>
        <pt x="672" y="513" on="0"/>
      </contour>
      <contour>
        <pt x="516" y="178" on="1"/>
        <pt x="516" y="463" on="1"/>
        <pt x="516" y="510" on="0"/>
        <pt x="439" y="548" on="0"/>
        <pt x="364" y="548" on="1"/>
        <pt x="288" y="548" on="0"/>
        <pt x="212" y="511" on="0"/>
        <pt x="212" y="463" on="1"/>
        <pt x="212" y="178" on="1"/>
        <pt x="212" y="153" on="0"/>
        <pt x="238" y="120" on="0"/>
        <pt x="287" y="106" on="0"/>
        <pt x="332" y="101" on="0"/>
        <pt x="398" y="101" on="0"/>
        <pt x="443" y="106" on="0"/>
        <pt x="491" y="120" on="0"/>
        <pt x="516" y="153" on="0"/>
      </contour>
      <contour>
        <pt x="520" y="845" on="1"/>
        <pt x="395" y="718" on="1"/>
        <pt x="271" y="718" on="1"/>
        <pt x="361" y="845" on="1"/>
      </contour>
    </TTGlyph>
    <TTGlyph name="Obreve" xMin="56" yMin="-10" xMax="672" yMax="845">
      <contour>
        <pt x="672" y="462" on="1"/>
        <pt x="672" y="178" on="1"/>
        <pt x="672" y="123" on="0"/>
        <pt x="614" y="45" on="0"/>
        <pt x="516" y="6" on="0"/>
        <pt x="418" y="-10" on="0"/>
        <pt x="363" y="-10" on="1"/>
        <pt x="311" y="-10" on="0"/>
        <pt x="220" y="3" on="0"/>
        <pt x="117" y="39" on="0"/>
        <pt x="56" y="119" on="0"/>
        <pt x="56" y="178" on="1"/>
        <pt x="56" y="462" on="1"/>
        <pt x="56" y="512" on="0"/>
        <pt x="101" y="588" on="0"/>
        <pt x="164" y="628" on="0"/>
        <pt x="254" y="653" on="0"/>
        <pt x="324" y="659" on="0"/>
        <pt x="363" y="659" on="1"/>
        <pt x="403" y="659" on="0"/>
        <pt x="474" y="653" on="0"/>
        <pt x="564" y="628" on="0"/>
        <pt x="628" y="588" on="0"/>
        <pt x="672" y="513" on="0"/>
      </contour>
      <contour>
        <pt x="516" y="178" on="1"/>
        <pt x="516" y="463" on="1"/>
        <pt x="516" y="510" on="0"/>
        <pt x="439" y="548" on="0"/>
        <pt x="364" y="548" on="1"/>
        <pt x="288" y="548" on="0"/>
        <pt x="212" y="511" on="0"/>
        <pt x="212" y="463" on="1"/>
        <pt x="212" y="178" on="1"/>
        <pt x="212" y="153" on="0"/>
        <pt x="238" y="120" on="0"/>
        <pt x="287" y="106" on="0"/>
        <pt x="332" y="101" on="0"/>
        <pt x="398" y="101" on="0"/>
        <pt x="443" y="106" on="0"/>
        <pt x="491" y="120" on="0"/>
        <pt x="516" y="153" on="0"/>
      </contour>
      <contour>
        <pt x="502" y="845" on="1"/>
        <pt x="498" y="788" on="0"/>
        <pt x="425" y="718" on="0"/>
        <pt x="364" y="718" on="1"/>
        <pt x="302" y="718" on="0"/>
        <pt x="229" y="788" on="0"/>
        <pt x="226" y="845" on="1"/>
        <pt x="307" y="845" on="1"/>
        <pt x="313" y="816" on="0"/>
        <pt x="337" y="790" on="0"/>
        <pt x="364" y="790" on="1"/>
        <pt x="414" y="790" on="0"/>
        <pt x="420" y="845" on="1"/>
      </contour>
    </TTGlyph>
    <TTGlyph name="Ocircumflex" xMin="56" yMin="-10" xMax="672" yMax="845">
      <contour>
        <pt x="672" y="462" on="1"/>
        <pt x="672" y="178" on="1"/>
        <pt x="672" y="123" on="0"/>
        <pt x="614" y="45" on="0"/>
        <pt x="516" y="6" on="0"/>
        <pt x="418" y="-10" on="0"/>
        <pt x="363" y="-10" on="1"/>
        <pt x="311" y="-10" on="0"/>
        <pt x="220" y="3" on="0"/>
        <pt x="117" y="39" on="0"/>
        <pt x="56" y="119" on="0"/>
        <pt x="56" y="178" on="1"/>
        <pt x="56" y="462" on="1"/>
        <pt x="56" y="512" on="0"/>
        <pt x="101" y="588" on="0"/>
        <pt x="164" y="628" on="0"/>
        <pt x="254" y="653" on="0"/>
        <pt x="324" y="659" on="0"/>
        <pt x="363" y="659" on="1"/>
        <pt x="403" y="659" on="0"/>
        <pt x="474" y="653" on="0"/>
        <pt x="564" y="628" on="0"/>
        <pt x="628" y="588" on="0"/>
        <pt x="672" y="513" on="0"/>
      </contour>
      <contour>
        <pt x="516" y="178" on="1"/>
        <pt x="516" y="463" on="1"/>
        <pt x="516" y="510" on="0"/>
        <pt x="439" y="548" on="0"/>
        <pt x="364" y="548" on="1"/>
        <pt x="288" y="548" on="0"/>
        <pt x="212" y="511" on="0"/>
        <pt x="212" y="463" on="1"/>
        <pt x="212" y="178" on="1"/>
        <pt x="212" y="153" on="0"/>
        <pt x="238" y="120" on="0"/>
        <pt x="287" y="106" on="0"/>
        <pt x="332" y="101" on="0"/>
        <pt x="398" y="101" on="0"/>
        <pt x="443" y="106" on="0"/>
        <pt x="491" y="120" on="0"/>
        <pt x="516" y="153" on="0"/>
      </contour>
      <contour>
        <pt x="514" y="718" on="1"/>
        <pt x="416" y="718" on="1"/>
        <pt x="363" y="805" on="1"/>
        <pt x="311" y="718" on="1"/>
        <pt x="213" y="718" on="1"/>
        <pt x="269" y="845" on="1"/>
        <pt x="456" y="845" on="1"/>
      </contour>
    </TTGlyph>
    <TTGlyph name="Odieresis" xMin="56" yMin="-10" xMax="672" yMax="848">
      <contour>
        <pt x="672" y="462" on="1"/>
        <pt x="672" y="178" on="1"/>
        <pt x="672" y="123" on="0"/>
        <pt x="614" y="45" on="0"/>
        <pt x="516" y="6" on="0"/>
        <pt x="418" y="-10" on="0"/>
        <pt x="363" y="-10" on="1"/>
        <pt x="311" y="-10" on="0"/>
        <pt x="220" y="3" on="0"/>
        <pt x="117" y="39" on="0"/>
        <pt x="56" y="119" on="0"/>
        <pt x="56" y="178" on="1"/>
        <pt x="56" y="462" on="1"/>
        <pt x="56" y="512" on="0"/>
        <pt x="101" y="588" on="0"/>
        <pt x="164" y="628" on="0"/>
        <pt x="254" y="653" on="0"/>
        <pt x="324" y="659" on="0"/>
        <pt x="363" y="659" on="1"/>
        <pt x="403" y="659" on="0"/>
        <pt x="474" y="653" on="0"/>
        <pt x="564" y="628" on="0"/>
        <pt x="628" y="588" on="0"/>
        <pt x="672" y="513" on="0"/>
      </contour>
      <contour>
        <pt x="516" y="178" on="1"/>
        <pt x="516" y="463" on="1"/>
        <pt x="516" y="510" on="0"/>
        <pt x="439" y="548" on="0"/>
        <pt x="364" y="548" on="1"/>
        <pt x="288" y="548" on="0"/>
        <pt x="212" y="511" on="0"/>
        <pt x="212" y="463" on="1"/>
        <pt x="212" y="178" on="1"/>
        <pt x="212" y="153" on="0"/>
        <pt x="238" y="120" on="0"/>
        <pt x="287" y="106" on="0"/>
        <pt x="332" y="101" on="0"/>
        <pt x="398" y="101" on="0"/>
        <pt x="443" y="106" on="0"/>
        <pt x="491" y="120" on="0"/>
        <pt x="516" y="153" on="0"/>
      </contour>
      <contour>
        <pt x="522" y="730" on="1"/>
        <pt x="396" y="730" on="1"/>
        <pt x="396" y="848" on="1"/>
        <pt x="522" y="848" on="1"/>
      </contour>
      <contour>
        <pt x="332" y="730" on="1"/>
        <pt x="206" y="730" on="1"/>
        <pt x="206" y="848" on="1"/>
        <pt x="332" y="848" on="1"/>
      </contour>
    </TTGlyph>
    <TTGlyph name="Ograve" xMin="56" yMin="-10" xMax="672" yMax="845">
      <contour>
        <pt x="672" y="462" on="1"/>
        <pt x="672" y="178" on="1"/>
        <pt x="672" y="123" on="0"/>
        <pt x="614" y="45" on="0"/>
        <pt x="516" y="6" on="0"/>
        <pt x="418" y="-10" on="0"/>
        <pt x="363" y="-10" on="1"/>
        <pt x="311" y="-10" on="0"/>
        <pt x="220" y="3" on="0"/>
        <pt x="117" y="39" on="0"/>
        <pt x="56" y="119" on="0"/>
        <pt x="56" y="178" on="1"/>
        <pt x="56" y="462" on="1"/>
        <pt x="56" y="512" on="0"/>
        <pt x="101" y="588" on="0"/>
        <pt x="164" y="628" on="0"/>
        <pt x="254" y="653" on="0"/>
        <pt x="324" y="659" on="0"/>
        <pt x="363" y="659" on="1"/>
        <pt x="403" y="659" on="0"/>
        <pt x="474" y="653" on="0"/>
        <pt x="564" y="628" on="0"/>
        <pt x="628" y="588" on="0"/>
        <pt x="672" y="513" on="0"/>
      </contour>
      <contour>
        <pt x="516" y="178" on="1"/>
        <pt x="516" y="463" on="1"/>
        <pt x="516" y="510" on="0"/>
        <pt x="439" y="548" on="0"/>
        <pt x="364" y="548" on="1"/>
        <pt x="288" y="548" on="0"/>
        <pt x="212" y="511" on="0"/>
        <pt x="212" y="463" on="1"/>
        <pt x="212" y="178" on="1"/>
        <pt x="212" y="153" on="0"/>
        <pt x="238" y="120" on="0"/>
        <pt x="287" y="106" on="0"/>
        <pt x="332" y="101" on="0"/>
        <pt x="398" y="101" on="0"/>
        <pt x="443" y="106" on="0"/>
        <pt x="491" y="120" on="0"/>
        <pt x="516" y="153" on="0"/>
      </contour>
      <contour>
        <pt x="434" y="718" on="1"/>
        <pt x="310" y="718" on="1"/>
        <pt x="185" y="845" on="1"/>
        <pt x="344" y="845" on="1"/>
      </contour>
    </TTGlyph>
    <TTGlyph name="Ohungarumlaut" xMin="56" yMin="-10" xMax="672" yMax="845">
      <contour>
        <pt x="672" y="462" on="1"/>
        <pt x="672" y="178" on="1"/>
        <pt x="672" y="123" on="0"/>
        <pt x="614" y="45" on="0"/>
        <pt x="516" y="6" on="0"/>
        <pt x="418" y="-10" on="0"/>
        <pt x="363" y="-10" on="1"/>
        <pt x="311" y="-10" on="0"/>
        <pt x="220" y="3" on="0"/>
        <pt x="117" y="39" on="0"/>
        <pt x="56" y="119" on="0"/>
        <pt x="56" y="178" on="1"/>
        <pt x="56" y="462" on="1"/>
        <pt x="56" y="512" on="0"/>
        <pt x="101" y="588" on="0"/>
        <pt x="164" y="628" on="0"/>
        <pt x="254" y="653" on="0"/>
        <pt x="324" y="659" on="0"/>
        <pt x="363" y="659" on="1"/>
        <pt x="403" y="659" on="0"/>
        <pt x="474" y="653" on="0"/>
        <pt x="564" y="628" on="0"/>
        <pt x="628" y="588" on="0"/>
        <pt x="672" y="513" on="0"/>
      </contour>
      <contour>
        <pt x="516" y="178" on="1"/>
        <pt x="516" y="463" on="1"/>
        <pt x="516" y="510" on="0"/>
        <pt x="439" y="548" on="0"/>
        <pt x="364" y="548" on="1"/>
        <pt x="288" y="548" on="0"/>
        <pt x="212" y="511" on="0"/>
        <pt x="212" y="463" on="1"/>
        <pt x="212" y="178" on="1"/>
        <pt x="212" y="153" on="0"/>
        <pt x="238" y="120" on="0"/>
        <pt x="287" y="106" on="0"/>
        <pt x="332" y="101" on="0"/>
        <pt x="398" y="101" on="0"/>
        <pt x="443" y="106" on="0"/>
        <pt x="491" y="120" on="0"/>
        <pt x="516" y="153" on="0"/>
      </contour>
      <contour>
        <pt x="520" y="845" on="1"/>
        <pt x="450" y="717" on="1"/>
        <pt x="354" y="717" on="1"/>
        <pt x="424" y="845" on="1"/>
      </contour>
      <contour>
        <pt x="373" y="845" on="1"/>
        <pt x="303" y="717" on="1"/>
        <pt x="207" y="717" on="1"/>
        <pt x="277" y="845" on="1"/>
      </contour>
    </TTGlyph>
    <TTGlyph name="Omacron" xMin="56" yMin="-10" xMax="672" yMax="814">
      <contour>
        <pt x="672" y="462" on="1"/>
        <pt x="672" y="178" on="1"/>
        <pt x="672" y="123" on="0"/>
        <pt x="614" y="45" on="0"/>
        <pt x="516" y="6" on="0"/>
        <pt x="418" y="-10" on="0"/>
        <pt x="363" y="-10" on="1"/>
        <pt x="311" y="-10" on="0"/>
        <pt x="220" y="3" on="0"/>
        <pt x="117" y="39" on="0"/>
        <pt x="56" y="119" on="0"/>
        <pt x="56" y="178" on="1"/>
        <pt x="56" y="462" on="1"/>
        <pt x="56" y="512" on="0"/>
        <pt x="101" y="588" on="0"/>
        <pt x="164" y="628" on="0"/>
        <pt x="254" y="653" on="0"/>
        <pt x="324" y="659" on="0"/>
        <pt x="363" y="659" on="1"/>
        <pt x="403" y="659" on="0"/>
        <pt x="474" y="653" on="0"/>
        <pt x="564" y="628" on="0"/>
        <pt x="628" y="588" on="0"/>
        <pt x="672" y="513" on="0"/>
      </contour>
      <contour>
        <pt x="516" y="178" on="1"/>
        <pt x="516" y="463" on="1"/>
        <pt x="516" y="510" on="0"/>
        <pt x="439" y="548" on="0"/>
        <pt x="364" y="548" on="1"/>
        <pt x="288" y="548" on="0"/>
        <pt x="212" y="511" on="0"/>
        <pt x="212" y="463" on="1"/>
        <pt x="212" y="178" on="1"/>
        <pt x="212" y="153" on="0"/>
        <pt x="238" y="120" on="0"/>
        <pt x="287" y="106" on="0"/>
        <pt x="332" y="101" on="0"/>
        <pt x="398" y="101" on="0"/>
        <pt x="443" y="106" on="0"/>
        <pt x="491" y="120" on="0"/>
        <pt x="516" y="153" on="0"/>
      </contour>
      <contour>
        <pt x="503" y="725" on="1"/>
        <pt x="225" y="725" on="1"/>
        <pt x="225" y="814" on="1"/>
        <pt x="503" y="814" on="1"/>
      </contour>
    </TTGlyph>
    <TTGlyph name="Omega" xMin="50" yMin="0" xMax="680" yMax="659">
      <contour>
        <pt x="680" y="0" on="1"/>
        <pt x="405" y="0" on="1"/>
        <pt x="405" y="117" on="1"/>
        <pt x="450" y="119" on="0"/>
        <pt x="518" y="180" on="0"/>
        <pt x="518" y="223" on="1"/>
        <pt x="518" y="470" on="1"/>
        <pt x="518" y="517" on="0"/>
        <pt x="440" y="555" on="0"/>
        <pt x="290" y="555" on="0"/>
        <pt x="212" y="517" on="0"/>
        <pt x="212" y="470" on="1"/>
        <pt x="212" y="223" on="1"/>
        <pt x="212" y="180" on="0"/>
        <pt x="280" y="119" on="0"/>
        <pt x="325" y="117" on="1"/>
        <pt x="325" y="0" on="1"/>
        <pt x="50" y="0" on="1"/>
        <pt x="50" y="101" on="1"/>
        <pt x="182" y="101" on="1"/>
        <pt x="62" y="154" on="0"/>
        <pt x="62" y="288" on="1"/>
        <pt x="62" y="462" on="1"/>
        <pt x="62" y="659" on="0"/>
        <pt x="668" y="659" on="0"/>
        <pt x="668" y="462" on="1"/>
        <pt x="668" y="288" on="1"/>
        <pt x="668" y="154" on="0"/>
        <pt x="548" y="101" on="1"/>
        <pt x="680" y="101" on="1"/>
      </contour>
    </TTGlyph>
    <TTGlyph name="Omegatonos" xMin="0" yMin="0" xMax="821" yMax="659">
      <contour>
        <pt x="821" y="0" on="1"/>
        <pt x="546" y="0" on="1"/>
        <pt x="546" y="117" on="1"/>
        <pt x="591" y="119" on="0"/>
        <pt x="659" y="180" on="0"/>
        <pt x="659" y="223" on="1"/>
        <pt x="659" y="470" on="1"/>
        <pt x="659" y="517" on="0"/>
        <pt x="581" y="555" on="0"/>
        <pt x="431" y="555" on="0"/>
        <pt x="353" y="517" on="0"/>
        <pt x="353" y="470" on="1"/>
        <pt x="353" y="223" on="1"/>
        <pt x="353" y="180" on="0"/>
        <pt x="421" y="119" on="0"/>
        <pt x="466" y="117" on="1"/>
        <pt x="466" y="0" on="1"/>
        <pt x="191" y="0" on="1"/>
        <pt x="191" y="101" on="1"/>
        <pt x="323" y="101" on="1"/>
        <pt x="203" y="154" on="0"/>
        <pt x="203" y="288" on="1"/>
        <pt x="203" y="462" on="1"/>
        <pt x="203" y="659" on="0"/>
        <pt x="809" y="659" on="0"/>
        <pt x="809" y="462" on="1"/>
        <pt x="809" y="288" on="1"/>
        <pt x="809" y="154" on="0"/>
        <pt x="689" y="101" on="1"/>
        <pt x="821" y="101" on="1"/>
      </contour>
      <contour>
        <pt x="125" y="486" on="1"/>
        <pt x="39" y="486" on="1"/>
        <pt x="0" y="658" on="1"/>
        <pt x="164" y="658" on="1"/>
      </contour>
    </TTGlyph>
    <TTGlyph name="Omicron" xMin="56" yMin="-10" xMax="672" yMax="659">
      <contour>
        <pt x="672" y="462" on="1"/>
        <pt x="672" y="178" on="1"/>
        <pt x="672" y="123" on="0"/>
        <pt x="614" y="45" on="0"/>
        <pt x="516" y="6" on="0"/>
        <pt x="418" y="-10" on="0"/>
        <pt x="363" y="-10" on="1"/>
        <pt x="311" y="-10" on="0"/>
        <pt x="220" y="3" on="0"/>
        <pt x="117" y="39" on="0"/>
        <pt x="56" y="119" on="0"/>
        <pt x="56" y="178" on="1"/>
        <pt x="56" y="462" on="1"/>
        <pt x="56" y="512" on="0"/>
        <pt x="101" y="588" on="0"/>
        <pt x="164" y="628" on="0"/>
        <pt x="254" y="653" on="0"/>
        <pt x="324" y="659" on="0"/>
        <pt x="363" y="659" on="1"/>
        <pt x="403" y="659" on="0"/>
        <pt x="474" y="653" on="0"/>
        <pt x="564" y="628" on="0"/>
        <pt x="628" y="588" on="0"/>
        <pt x="672" y="513" on="0"/>
      </contour>
      <contour>
        <pt x="516" y="178" on="1"/>
        <pt x="516" y="463" on="1"/>
        <pt x="516" y="510" on="0"/>
        <pt x="439" y="548" on="0"/>
        <pt x="364" y="548" on="1"/>
        <pt x="288" y="548" on="0"/>
        <pt x="212" y="511" on="0"/>
        <pt x="212" y="463" on="1"/>
        <pt x="212" y="178" on="1"/>
        <pt x="212" y="153" on="0"/>
        <pt x="238" y="120" on="0"/>
        <pt x="287" y="106" on="0"/>
        <pt x="332" y="101" on="0"/>
        <pt x="398" y="101" on="0"/>
        <pt x="443" y="106" on="0"/>
        <pt x="491" y="120" on="0"/>
        <pt x="516" y="153" on="0"/>
      </contour>
    </TTGlyph>
    <TTGlyph name="Omicrontonos" xMin="0" yMin="-10" xMax="813" yMax="659">
      <contour>
        <pt x="813" y="462" on="1"/>
        <pt x="813" y="178" on="1"/>
        <pt x="813" y="123" on="0"/>
        <pt x="755" y="45" on="0"/>
        <pt x="657" y="6" on="0"/>
        <pt x="559" y="-10" on="0"/>
        <pt x="504" y="-10" on="1"/>
        <pt x="452" y="-10" on="0"/>
        <pt x="361" y="3" on="0"/>
        <pt x="258" y="39" on="0"/>
        <pt x="197" y="119" on="0"/>
        <pt x="197" y="178" on="1"/>
        <pt x="197" y="462" on="1"/>
        <pt x="197" y="512" on="0"/>
        <pt x="242" y="588" on="0"/>
        <pt x="305" y="628" on="0"/>
        <pt x="395" y="653" on="0"/>
        <pt x="465" y="659" on="0"/>
        <pt x="504" y="659" on="1"/>
        <pt x="544" y="659" on="0"/>
        <pt x="615" y="653" on="0"/>
        <pt x="705" y="628" on="0"/>
        <pt x="769" y="588" on="0"/>
        <pt x="813" y="513" on="0"/>
      </contour>
      <contour>
        <pt x="657" y="178" on="1"/>
        <pt x="657" y="463" on="1"/>
        <pt x="657" y="510" on="0"/>
        <pt x="580" y="548" on="0"/>
        <pt x="505" y="548" on="1"/>
        <pt x="429" y="548" on="0"/>
        <pt x="353" y="511" on="0"/>
        <pt x="353" y="463" on="1"/>
        <pt x="353" y="178" on="1"/>
        <pt x="353" y="153" on="0"/>
        <pt x="379" y="120" on="0"/>
        <pt x="428" y="106" on="0"/>
        <pt x="473" y="101" on="0"/>
        <pt x="539" y="101" on="0"/>
        <pt x="584" y="106" on="0"/>
        <pt x="632" y="120" on="0"/>
        <pt x="657" y="153" on="0"/>
      </contour>
      <contour>
        <pt x="125" y="486" on="1"/>
        <pt x="39" y="486" on="1"/>
        <pt x="0" y="658" on="1"/>
        <pt x="164" y="658" on="1"/>
      </contour>
    </TTGlyph>
    <TTGlyph name="Oslash" xMin="56" yMin="-10" xMax="672" yMax="659">
      <contour>
        <pt x="672" y="462" on="1"/>
        <pt x="672" y="178" on="1"/>
        <pt x="672" y="123" on="0"/>
        <pt x="614" y="45" on="0"/>
        <pt x="516" y="6" on="0"/>
        <pt x="418" y="-10" on="0"/>
        <pt x="363" y="-10" on="1"/>
        <pt x="311" y="-10" on="0"/>
        <pt x="220" y="3" on="0"/>
        <pt x="117" y="39" on="0"/>
        <pt x="56" y="119" on="0"/>
        <pt x="56" y="178" on="1"/>
        <pt x="56" y="462" on="1"/>
        <pt x="56" y="512" on="0"/>
        <pt x="101" y="588" on="0"/>
        <pt x="164" y="628" on="0"/>
        <pt x="254" y="653" on="0"/>
        <pt x="324" y="659" on="0"/>
        <pt x="363" y="659" on="1"/>
        <pt x="403" y="659" on="0"/>
        <pt x="474" y="653" on="0"/>
        <pt x="564" y="628" on="0"/>
        <pt x="628" y="588" on="0"/>
        <pt x="672" y="513" on="0"/>
      </contour>
      <contour>
        <pt x="516" y="178" on="1"/>
        <pt x="516" y="463" on="1"/>
        <pt x="256" y="115" on="1"/>
        <pt x="291" y="101" on="0"/>
        <pt x="365" y="101" on="1"/>
        <pt x="398" y="101" on="0"/>
        <pt x="443" y="106" on="0"/>
        <pt x="491" y="120" on="0"/>
        <pt x="516" y="153" on="0"/>
      </contour>
      <contour>
        <pt x="212" y="463" on="1"/>
        <pt x="212" y="189" on="1"/>
        <pt x="468" y="533" on="1"/>
        <pt x="433" y="548" on="0"/>
        <pt x="364" y="548" on="1"/>
        <pt x="288" y="548" on="0"/>
        <pt x="212" y="511" on="0"/>
      </contour>
    </TTGlyph>
    <TTGlyph name="Otilde" xMin="56" yMin="-10" xMax="672" yMax="857">
      <contour>
        <pt x="672" y="462" on="1"/>
        <pt x="672" y="178" on="1"/>
        <pt x="672" y="123" on="0"/>
        <pt x="614" y="45" on="0"/>
        <pt x="516" y="6" on="0"/>
        <pt x="418" y="-10" on="0"/>
        <pt x="363" y="-10" on="1"/>
        <pt x="311" y="-10" on="0"/>
        <pt x="220" y="3" on="0"/>
        <pt x="117" y="39" on="0"/>
        <pt x="56" y="119" on="0"/>
        <pt x="56" y="178" on="1"/>
        <pt x="56" y="462" on="1"/>
        <pt x="56" y="512" on="0"/>
        <pt x="101" y="588" on="0"/>
        <pt x="164" y="628" on="0"/>
        <pt x="254" y="653" on="0"/>
        <pt x="324" y="659" on="0"/>
        <pt x="363" y="659" on="1"/>
        <pt x="403" y="659" on="0"/>
        <pt x="474" y="653" on="0"/>
        <pt x="564" y="628" on="0"/>
        <pt x="628" y="588" on="0"/>
        <pt x="672" y="513" on="0"/>
      </contour>
      <contour>
        <pt x="516" y="178" on="1"/>
        <pt x="516" y="463" on="1"/>
        <pt x="516" y="510" on="0"/>
        <pt x="439" y="548" on="0"/>
        <pt x="364" y="548" on="1"/>
        <pt x="288" y="548" on="0"/>
        <pt x="212" y="511" on="0"/>
        <pt x="212" y="463" on="1"/>
        <pt x="212" y="178" on="1"/>
        <pt x="212" y="153" on="0"/>
        <pt x="238" y="120" on="0"/>
        <pt x="287" y="106" on="0"/>
        <pt x="332" y="101" on="0"/>
        <pt x="398" y="101" on="0"/>
        <pt x="443" y="106" on="0"/>
        <pt x="491" y="120" on="0"/>
        <pt x="516" y="153" on="0"/>
      </contour>
      <contour>
        <pt x="426" y="824" on="1"/>
        <pt x="454" y="824" on="0"/>
        <pt x="467" y="857" on="1"/>
        <pt x="508" y="833" on="1"/>
        <pt x="501" y="809" on="0"/>
        <pt x="453" y="751" on="0"/>
        <pt x="417" y="751" on="1"/>
        <pt x="392" y="751" on="0"/>
        <pt x="312" y="784" on="0"/>
        <pt x="301" y="784" on="1"/>
        <pt x="272" y="784" on="0"/>
        <pt x="259" y="751" on="1"/>
        <pt x="219" y="775" on="1"/>
        <pt x="225" y="798" on="0"/>
        <pt x="274" y="854" on="0"/>
        <pt x="310" y="854" on="1"/>
        <pt x="333" y="854" on="0"/>
        <pt x="410" y="824" on="0"/>
      </contour>
    </TTGlyph>
    <TTGlyph name="P" xMin="70" yMin="0" xMax="587" yMax="649">
      <contour>
        <pt x="587" y="500" on="1"/>
        <pt x="587" y="377" on="1"/>
        <pt x="587" y="281" on="0"/>
        <pt x="459" y="211" on="0"/>
        <pt x="312" y="211" on="1"/>
        <pt x="226" y="211" on="1"/>
        <pt x="226" y="0" on="1"/>
        <pt x="70" y="0" on="1"/>
        <pt x="70" y="649" on="1"/>
        <pt x="330" y="649" on="1"/>
        <pt x="468" y="649" on="0"/>
        <pt x="587" y="588" on="0"/>
      </contour>
      <contour>
        <pt x="436" y="382" on="1"/>
        <pt x="436" y="486" on="1"/>
        <pt x="436" y="517" on="0"/>
        <pt x="388" y="538" on="0"/>
        <pt x="323" y="538" on="1"/>
        <pt x="226" y="538" on="1"/>
        <pt x="226" y="318" on="1"/>
        <pt x="325" y="318" on="1"/>
        <pt x="386" y="318" on="0"/>
        <pt x="436" y="347" on="0"/>
      </contour>
    </TTGlyph>
    <TTGlyph name="Phi" xMin="50" yMin="0" xMax="706" yMax="649">
      <contour>
        <pt x="452" y="0" on="1"/>
        <pt x="304" y="0" on="1"/>
        <pt x="304" y="63" on="1"/>
        <pt x="237" y="63" on="0"/>
        <pt x="127" y="97" on="0"/>
        <pt x="50" y="184" on="0"/>
        <pt x="50" y="248" on="1"/>
        <pt x="50" y="392" on="1"/>
        <pt x="50" y="459" on="0"/>
        <pt x="130" y="550" on="0"/>
        <pt x="240" y="585" on="0"/>
        <pt x="304" y="585" on="1"/>
        <pt x="304" y="649" on="1"/>
        <pt x="452" y="649" on="1"/>
        <pt x="452" y="585" on="1"/>
        <pt x="516" y="585" on="0"/>
        <pt x="626" y="550" on="0"/>
        <pt x="706" y="459" on="0"/>
        <pt x="706" y="392" on="1"/>
        <pt x="706" y="248" on="1"/>
        <pt x="706" y="188" on="0"/>
        <pt x="628" y="101" on="0"/>
        <pt x="516" y="63" on="0"/>
        <pt x="452" y="63" on="1"/>
      </contour>
      <contour>
        <pt x="550" y="244" on="1"/>
        <pt x="550" y="398" on="1"/>
        <pt x="550" y="434" on="0"/>
        <pt x="497" y="478" on="0"/>
        <pt x="452" y="478" on="1"/>
        <pt x="452" y="170" on="1"/>
        <pt x="495" y="170" on="0"/>
        <pt x="550" y="209" on="0"/>
      </contour>
      <contour>
        <pt x="206" y="244" on="1"/>
        <pt x="206" y="209" on="0"/>
        <pt x="262" y="171" on="0"/>
        <pt x="304" y="171" on="1"/>
        <pt x="304" y="478" on="1"/>
        <pt x="260" y="478" on="0"/>
        <pt x="206" y="434" on="0"/>
        <pt x="206" y="398" on="1"/>
      </contour>
    </TTGlyph>
    <TTGlyph name="Pi" xMin="70" yMin="0" xMax="652" yMax="649">
      <contour>
        <pt x="652" y="0" on="1"/>
        <pt x="496" y="0" on="1"/>
        <pt x="496" y="538" on="1"/>
        <pt x="226" y="538" on="1"/>
        <pt x="226" y="0" on="1"/>
        <pt x="70" y="0" on="1"/>
        <pt x="70" y="649" on="1"/>
        <pt x="652" y="649" on="1"/>
      </contour>
    </TTGlyph>
    <TTGlyph name="Psi" xMin="70" yMin="0" xMax="747" yMax="649">
      <contour>
        <pt x="486" y="0" on="1"/>
        <pt x="330" y="0" on="1"/>
        <pt x="330" y="211" on="1"/>
        <pt x="286" y="214" on="0"/>
        <pt x="199" y="239" on="0"/>
        <pt x="119" y="284" on="0"/>
        <pt x="70" y="359" on="0"/>
        <pt x="70" y="406" on="1"/>
        <pt x="70" y="649" on="1"/>
        <pt x="218" y="649" on="1"/>
        <pt x="218" y="429" on="1"/>
        <pt x="218" y="374" on="0"/>
        <pt x="272" y="324" on="0"/>
        <pt x="330" y="319" on="1"/>
        <pt x="330" y="649" on="1"/>
        <pt x="486" y="649" on="1"/>
        <pt x="486" y="319" on="1"/>
        <pt x="544" y="325" on="0"/>
        <pt x="599" y="374" on="0"/>
        <pt x="599" y="429" on="1"/>
        <pt x="599" y="649" on="1"/>
        <pt x="747" y="649" on="1"/>
        <pt x="747" y="406" on="1"/>
        <pt x="747" y="360" on="0"/>
        <pt x="697" y="285" on="0"/>
        <pt x="616" y="240" on="0"/>
        <pt x="530" y="215" on="0"/>
        <pt x="486" y="212" on="1"/>
      </contour>
    </TTGlyph>
    <TTGlyph name="Q" xMin="56" yMin="-10" xMax="732" yMax="659">
      <contour>
        <pt x="672" y="462" on="1"/>
        <pt x="672" y="285" on="1"/>
        <pt x="672" y="138" on="0"/>
        <pt x="590" y="112" on="1"/>
        <pt x="732" y="112" on="1"/>
        <pt x="732" y="0" on="1"/>
        <pt x="519" y="0" on="1"/>
        <pt x="502" y="0" on="0"/>
        <pt x="400" y="-10" on="0"/>
        <pt x="363" y="-10" on="1"/>
        <pt x="311" y="-10" on="0"/>
        <pt x="220" y="3" on="0"/>
        <pt x="117" y="39" on="0"/>
        <pt x="56" y="119" on="0"/>
        <pt x="56" y="178" on="1"/>
        <pt x="56" y="462" on="1"/>
        <pt x="56" y="512" on="0"/>
        <pt x="101" y="588" on="0"/>
        <pt x="164" y="628" on="0"/>
        <pt x="254" y="653" on="0"/>
        <pt x="324" y="659" on="0"/>
        <pt x="363" y="659" on="1"/>
        <pt x="403" y="659" on="0"/>
        <pt x="474" y="653" on="0"/>
        <pt x="564" y="628" on="0"/>
        <pt x="628" y="588" on="0"/>
        <pt x="672" y="513" on="0"/>
      </contour>
      <contour>
        <pt x="516" y="178" on="1"/>
        <pt x="516" y="463" on="1"/>
        <pt x="516" y="510" on="0"/>
        <pt x="439" y="548" on="0"/>
        <pt x="364" y="548" on="1"/>
        <pt x="288" y="548" on="0"/>
        <pt x="212" y="511" on="0"/>
        <pt x="212" y="463" on="1"/>
        <pt x="212" y="178" on="1"/>
        <pt x="212" y="153" on="0"/>
        <pt x="238" y="120" on="0"/>
        <pt x="287" y="106" on="0"/>
        <pt x="332" y="101" on="0"/>
        <pt x="398" y="101" on="0"/>
        <pt x="443" y="106" on="0"/>
        <pt x="491" y="120" on="0"/>
        <pt x="516" y="153" on="0"/>
      </contour>
    </TTGlyph>
    <TTGlyph name="Q.alt" xMin="56" yMin="-10" xMax="732" yMax="659">
      <contour>
        <pt x="672" y="462" on="1"/>
        <pt x="672" y="285" on="1"/>
        <pt x="672" y="138" on="0"/>
        <pt x="590" y="112" on="1"/>
        <pt x="732" y="112" on="1"/>
        <pt x="732" y="0" on="1"/>
        <pt x="519" y="0" on="1"/>
        <pt x="502" y="0" on="0"/>
        <pt x="400" y="-10" on="0"/>
        <pt x="363" y="-10" on="1"/>
        <pt x="311" y="-10" on="0"/>
        <pt x="220" y="3" on="0"/>
        <pt x="117" y="39" on="0"/>
        <pt x="56" y="119" on="0"/>
        <pt x="56" y="178" on="1"/>
        <pt x="56" y="462" on="1"/>
        <pt x="56" y="512" on="0"/>
        <pt x="101" y="588" on="0"/>
        <pt x="164" y="628" on="0"/>
        <pt x="254" y="653" on="0"/>
        <pt x="324" y="659" on="0"/>
        <pt x="363" y="659" on="1"/>
        <pt x="403" y="659" on="0"/>
        <pt x="474" y="653" on="0"/>
        <pt x="564" y="628" on="0"/>
        <pt x="628" y="588" on="0"/>
        <pt x="672" y="513" on="0"/>
      </contour>
      <contour>
        <pt x="516" y="178" on="1"/>
        <pt x="516" y="463" on="1"/>
        <pt x="516" y="510" on="0"/>
        <pt x="439" y="548" on="0"/>
        <pt x="364" y="548" on="1"/>
        <pt x="288" y="548" on="0"/>
        <pt x="212" y="511" on="0"/>
        <pt x="212" y="463" on="1"/>
        <pt x="212" y="178" on="1"/>
        <pt x="212" y="153" on="0"/>
        <pt x="238" y="120" on="0"/>
        <pt x="287" y="106" on="0"/>
        <pt x="332" y="101" on="0"/>
        <pt x="398" y="101" on="0"/>
        <pt x="443" y="106" on="0"/>
        <pt x="491" y="120" on="0"/>
        <pt x="516" y="153" on="0"/>
      </contour>
    </TTGlyph>
    <TTGlyph name="R" xMin="70" yMin="0" xMax="648" yMax="649">
      <contour>
        <pt x="648" y="0" on="1"/>
        <pt x="468" y="0" on="1"/>
        <pt x="298" y="255" on="1"/>
        <pt x="226" y="255" on="1"/>
        <pt x="226" y="0" on="1"/>
        <pt x="70" y="0" on="1"/>
        <pt x="70" y="649" on="1"/>
        <pt x="362" y="649" on="1"/>
        <pt x="490" y="649" on="0"/>
        <pt x="608" y="587" on="0"/>
        <pt x="608" y="512" on="1"/>
        <pt x="608" y="398" on="1"/>
        <pt x="608" y="339" on="0"/>
        <pt x="523" y="275" on="0"/>
        <pt x="460" y="267" on="1"/>
      </contour>
      <contour>
        <pt x="455" y="429" on="1"/>
        <pt x="455" y="475" on="1"/>
        <pt x="455" y="511" on="0"/>
        <pt x="412" y="538" on="0"/>
        <pt x="360" y="538" on="1"/>
        <pt x="226" y="538" on="1"/>
        <pt x="226" y="358" on="1"/>
        <pt x="360" y="358" on="1"/>
        <pt x="415" y="358" on="0"/>
        <pt x="455" y="387" on="0"/>
      </contour>
    </TTGlyph>
    <TTGlyph name="Racute" xMin="120" yMin="0" xMax="698" yMax="845">
      <contour>
        <pt x="698" y="0" on="1"/>
        <pt x="518" y="0" on="1"/>
        <pt x="348" y="255" on="1"/>
        <pt x="276" y="255" on="1"/>
        <pt x="276" y="0" on="1"/>
        <pt x="120" y="0" on="1"/>
        <pt x="120" y="649" on="1"/>
        <pt x="412" y="649" on="1"/>
        <pt x="540" y="649" on="0"/>
        <pt x="658" y="587" on="0"/>
        <pt x="658" y="512" on="1"/>
        <pt x="658" y="398" on="1"/>
        <pt x="658" y="339" on="0"/>
        <pt x="573" y="275" on="0"/>
        <pt x="510" y="267" on="1"/>
      </contour>
      <contour>
        <pt x="505" y="429" on="1"/>
        <pt x="505" y="475" on="1"/>
        <pt x="505" y="511" on="0"/>
        <pt x="462" y="538" on="0"/>
        <pt x="410" y="538" on="1"/>
        <pt x="276" y="538" on="1"/>
        <pt x="276" y="358" on="1"/>
        <pt x="410" y="358" on="1"/>
        <pt x="465" y="358" on="0"/>
        <pt x="505" y="387" on="0"/>
      </contour>
      <contour>
        <pt x="458" y="845" on="1"/>
        <pt x="333" y="718" on="1"/>
        <pt x="209" y="718" on="1"/>
        <pt x="299" y="845" on="1"/>
      </contour>
    </TTGlyph>
    <TTGlyph name="Rcaron" xMin="120" yMin="0" xMax="698" yMax="845">
      <contour>
        <pt x="698" y="0" on="1"/>
        <pt x="518" y="0" on="1"/>
        <pt x="348" y="255" on="1"/>
        <pt x="276" y="255" on="1"/>
        <pt x="276" y="0" on="1"/>
        <pt x="120" y="0" on="1"/>
        <pt x="120" y="649" on="1"/>
        <pt x="412" y="649" on="1"/>
        <pt x="540" y="649" on="0"/>
        <pt x="658" y="587" on="0"/>
        <pt x="658" y="512" on="1"/>
        <pt x="658" y="398" on="1"/>
        <pt x="658" y="339" on="0"/>
        <pt x="573" y="275" on="0"/>
        <pt x="510" y="267" on="1"/>
      </contour>
      <contour>
        <pt x="505" y="429" on="1"/>
        <pt x="505" y="475" on="1"/>
        <pt x="505" y="511" on="0"/>
        <pt x="462" y="538" on="0"/>
        <pt x="410" y="538" on="1"/>
        <pt x="276" y="538" on="1"/>
        <pt x="276" y="358" on="1"/>
        <pt x="410" y="358" on="1"/>
        <pt x="465" y="358" on="0"/>
        <pt x="505" y="387" on="0"/>
      </contour>
      <contour>
        <pt x="484" y="845" on="1"/>
        <pt x="428" y="718" on="1"/>
        <pt x="241" y="718" on="1"/>
        <pt x="183" y="845" on="1"/>
        <pt x="281" y="845" on="1"/>
        <pt x="334" y="758" on="1"/>
        <pt x="386" y="845" on="1"/>
      </contour>
    </TTGlyph>
    <TTGlyph name="Rcommaaccent" xMin="120" yMin="-208" xMax="698" yMax="649">
      <contour>
        <pt x="698" y="0" on="1"/>
        <pt x="518" y="0" on="1"/>
        <pt x="348" y="255" on="1"/>
        <pt x="276" y="255" on="1"/>
        <pt x="276" y="0" on="1"/>
        <pt x="120" y="0" on="1"/>
        <pt x="120" y="649" on="1"/>
        <pt x="412" y="649" on="1"/>
        <pt x="540" y="649" on="0"/>
        <pt x="658" y="587" on="0"/>
        <pt x="658" y="512" on="1"/>
        <pt x="658" y="398" on="1"/>
        <pt x="658" y="339" on="0"/>
        <pt x="573" y="275" on="0"/>
        <pt x="510" y="267" on="1"/>
      </contour>
      <contour>
        <pt x="505" y="429" on="1"/>
        <pt x="505" y="475" on="1"/>
        <pt x="505" y="511" on="0"/>
        <pt x="462" y="538" on="0"/>
        <pt x="410" y="538" on="1"/>
        <pt x="276" y="538" on="1"/>
        <pt x="276" y="358" on="1"/>
        <pt x="410" y="358" on="1"/>
        <pt x="465" y="358" on="0"/>
        <pt x="505" y="387" on="0"/>
      </contour>
      <contour>
        <pt x="423" y="-46" on="1"/>
        <pt x="340" y="-208" on="1"/>
        <pt x="244" y="-208" on="1"/>
        <pt x="290" y="-46" on="1"/>
      </contour>
    </TTGlyph>
    <TTGlyph name="Rho" xMin="70" yMin="0" xMax="587" yMax="649">
      <contour>
        <pt x="587" y="500" on="1"/>
        <pt x="587" y="377" on="1"/>
        <pt x="587" y="281" on="0"/>
        <pt x="459" y="211" on="0"/>
        <pt x="312" y="211" on="1"/>
        <pt x="226" y="211" on="1"/>
        <pt x="226" y="0" on="1"/>
        <pt x="70" y="0" on="1"/>
        <pt x="70" y="649" on="1"/>
        <pt x="330" y="649" on="1"/>
        <pt x="468" y="649" on="0"/>
        <pt x="587" y="588" on="0"/>
      </contour>
      <contour>
        <pt x="436" y="382" on="1"/>
        <pt x="436" y="486" on="1"/>
        <pt x="436" y="517" on="0"/>
        <pt x="388" y="538" on="0"/>
        <pt x="323" y="538" on="1"/>
        <pt x="226" y="538" on="1"/>
        <pt x="226" y="318" on="1"/>
        <pt x="325" y="318" on="1"/>
        <pt x="386" y="318" on="0"/>
        <pt x="436" y="347" on="0"/>
      </contour>
    </TTGlyph>
    <TTGlyph name="S" xMin="37" yMin="-10" xMax="568" yMax="659">
      <contour>
        <pt x="568" y="228" on="1"/>
        <pt x="568" y="185" on="1"/>
        <pt x="568" y="127" on="0"/>
        <pt x="526" y="48" on="0"/>
        <pt x="444" y="7" on="0"/>
        <pt x="347" y="-10" on="0"/>
        <pt x="280" y="-10" on="1"/>
        <pt x="187" y="-10" on="0"/>
        <pt x="50" y="8" on="1"/>
        <pt x="50" y="127" on="1"/>
        <pt x="216" y="101" on="0"/>
        <pt x="282" y="101" on="1"/>
        <pt x="412" y="101" on="0"/>
        <pt x="412" y="168" on="1"/>
        <pt x="412" y="210" on="1"/>
        <pt x="412" y="239" on="0"/>
        <pt x="378" y="276" on="0"/>
        <pt x="327" y="276" on="1"/>
        <pt x="251" y="276" on="1"/>
        <pt x="37" y="276" on="0"/>
        <pt x="37" y="446" on="1"/>
        <pt x="37" y="494" on="1"/>
        <pt x="37" y="578" on="0"/>
        <pt x="178" y="659" on="0"/>
        <pt x="333" y="659" on="1"/>
        <pt x="408" y="659" on="0"/>
        <pt x="536" y="646" on="1"/>
        <pt x="536" y="530" on="1"/>
        <pt x="384" y="548" on="0"/>
        <pt x="328" y="548" on="1"/>
        <pt x="251" y="548" on="0"/>
        <pt x="193" y="522" on="0"/>
        <pt x="193" y="491" on="1"/>
        <pt x="193" y="445" on="1"/>
        <pt x="193" y="394" on="0"/>
        <pt x="279" y="394" on="1"/>
        <pt x="357" y="394" on="1"/>
        <pt x="471" y="394" on="0"/>
        <pt x="568" y="310" on="0"/>
      </contour>
    </TTGlyph>
    <TTGlyph name="Sacute" xMin="37" yMin="-10" xMax="568" yMax="845">
      <contour>
        <pt x="568" y="228" on="1"/>
        <pt x="568" y="185" on="1"/>
        <pt x="568" y="127" on="0"/>
        <pt x="526" y="48" on="0"/>
        <pt x="444" y="7" on="0"/>
        <pt x="347" y="-10" on="0"/>
        <pt x="280" y="-10" on="1"/>
        <pt x="187" y="-10" on="0"/>
        <pt x="50" y="8" on="1"/>
        <pt x="50" y="127" on="1"/>
        <pt x="216" y="101" on="0"/>
        <pt x="282" y="101" on="1"/>
        <pt x="412" y="101" on="0"/>
        <pt x="412" y="168" on="1"/>
        <pt x="412" y="210" on="1"/>
        <pt x="412" y="239" on="0"/>
        <pt x="378" y="276" on="0"/>
        <pt x="327" y="276" on="1"/>
        <pt x="251" y="276" on="1"/>
        <pt x="37" y="276" on="0"/>
        <pt x="37" y="446" on="1"/>
        <pt x="37" y="494" on="1"/>
        <pt x="37" y="578" on="0"/>
        <pt x="178" y="659" on="0"/>
        <pt x="333" y="659" on="1"/>
        <pt x="408" y="659" on="0"/>
        <pt x="536" y="646" on="1"/>
        <pt x="536" y="530" on="1"/>
        <pt x="384" y="548" on="0"/>
        <pt x="328" y="548" on="1"/>
        <pt x="251" y="548" on="0"/>
        <pt x="193" y="522" on="0"/>
        <pt x="193" y="491" on="1"/>
        <pt x="193" y="445" on="1"/>
        <pt x="193" y="394" on="0"/>
        <pt x="279" y="394" on="1"/>
        <pt x="357" y="394" on="1"/>
        <pt x="471" y="394" on="0"/>
        <pt x="568" y="310" on="0"/>
      </contour>
      <contour>
        <pt x="427" y="845" on="1"/>
        <pt x="302" y="718" on="1"/>
        <pt x="178" y="718" on="1"/>
        <pt x="268" y="845" on="1"/>
      </contour>
    </TTGlyph>
    <TTGlyph name="Scaron" xMin="37" yMin="-10" xMax="568" yMax="845">
      <contour>
        <pt x="568" y="228" on="1"/>
        <pt x="568" y="185" on="1"/>
        <pt x="568" y="127" on="0"/>
        <pt x="526" y="48" on="0"/>
        <pt x="444" y="7" on="0"/>
        <pt x="347" y="-10" on="0"/>
        <pt x="280" y="-10" on="1"/>
        <pt x="187" y="-10" on="0"/>
        <pt x="50" y="8" on="1"/>
        <pt x="50" y="127" on="1"/>
        <pt x="216" y="101" on="0"/>
        <pt x="282" y="101" on="1"/>
        <pt x="412" y="101" on="0"/>
        <pt x="412" y="168" on="1"/>
        <pt x="412" y="210" on="1"/>
        <pt x="412" y="239" on="0"/>
        <pt x="378" y="276" on="0"/>
        <pt x="327" y="276" on="1"/>
        <pt x="251" y="276" on="1"/>
        <pt x="37" y="276" on="0"/>
        <pt x="37" y="446" on="1"/>
        <pt x="37" y="494" on="1"/>
        <pt x="37" y="578" on="0"/>
        <pt x="178" y="659" on="0"/>
        <pt x="333" y="659" on="1"/>
        <pt x="408" y="659" on="0"/>
        <pt x="536" y="646" on="1"/>
        <pt x="536" y="530" on="1"/>
        <pt x="384" y="548" on="0"/>
        <pt x="328" y="548" on="1"/>
        <pt x="251" y="548" on="0"/>
        <pt x="193" y="522" on="0"/>
        <pt x="193" y="491" on="1"/>
        <pt x="193" y="445" on="1"/>
        <pt x="193" y="394" on="0"/>
        <pt x="279" y="394" on="1"/>
        <pt x="357" y="394" on="1"/>
        <pt x="471" y="394" on="0"/>
        <pt x="568" y="310" on="0"/>
      </contour>
      <contour>
        <pt x="453" y="845" on="1"/>
        <pt x="397" y="718" on="1"/>
        <pt x="210" y="718" on="1"/>
        <pt x="152" y="845" on="1"/>
        <pt x="250" y="845" on="1"/>
        <pt x="303" y="758" on="1"/>
        <pt x="355" y="845" on="1"/>
      </contour>
    </TTGlyph>
    <TTGlyph name="Scedilla" xMin="37" yMin="-220" xMax="568" yMax="659">
      <contour>
        <pt x="568" y="228" on="1"/>
        <pt x="568" y="185" on="1"/>
        <pt x="568" y="127" on="0"/>
        <pt x="526" y="48" on="0"/>
        <pt x="444" y="7" on="0"/>
        <pt x="347" y="-10" on="0"/>
        <pt x="280" y="-10" on="1"/>
        <pt x="187" y="-10" on="0"/>
        <pt x="50" y="8" on="1"/>
        <pt x="50" y="127" on="1"/>
        <pt x="216" y="101" on="0"/>
        <pt x="282" y="101" on="1"/>
        <pt x="412" y="101" on="0"/>
        <pt x="412" y="168" on="1"/>
        <pt x="412" y="210" on="1"/>
        <pt x="412" y="239" on="0"/>
        <pt x="378" y="276" on="0"/>
        <pt x="327" y="276" on="1"/>
        <pt x="251" y="276" on="1"/>
        <pt x="37" y="276" on="0"/>
        <pt x="37" y="446" on="1"/>
        <pt x="37" y="494" on="1"/>
        <pt x="37" y="578" on="0"/>
        <pt x="178" y="659" on="0"/>
        <pt x="333" y="659" on="1"/>
        <pt x="408" y="659" on="0"/>
        <pt x="536" y="646" on="1"/>
        <pt x="536" y="530" on="1"/>
        <pt x="384" y="548" on="0"/>
        <pt x="328" y="548" on="1"/>
        <pt x="251" y="548" on="0"/>
        <pt x="193" y="522" on="0"/>
        <pt x="193" y="491" on="1"/>
        <pt x="193" y="445" on="1"/>
        <pt x="193" y="394" on="0"/>
        <pt x="279" y="394" on="1"/>
        <pt x="357" y="394" on="1"/>
        <pt x="471" y="394" on="0"/>
        <pt x="568" y="310" on="0"/>
      </contour>
      <contour>
        <pt x="277" y="0" on="1"/>
        <pt x="347" y="0" on="1"/>
        <pt x="311" y="-50" on="1"/>
        <pt x="352" y="-53" on="0"/>
        <pt x="408" y="-90" on="0"/>
        <pt x="408" y="-129" on="1"/>
        <pt x="408" y="-174" on="0"/>
        <pt x="335" y="-220" on="0"/>
        <pt x="288" y="-220" on="1"/>
        <pt x="232" y="-220" on="0"/>
        <pt x="197" y="-197" on="1"/>
        <pt x="219" y="-151" on="1"/>
        <pt x="249" y="-169" on="0"/>
        <pt x="281" y="-169" on="1"/>
        <pt x="328" y="-169" on="0"/>
        <pt x="328" y="-134" on="1"/>
        <pt x="328" y="-96" on="0"/>
        <pt x="253" y="-96" on="1"/>
        <pt x="213" y="-96" on="1"/>
        <pt x="215" y="-92" on="0"/>
        <pt x="275" y="-4" on="0"/>
      </contour>
    </TTGlyph>
    <TTGlyph name="Scircumflex" xMin="37" yMin="-10" xMax="568" yMax="845">
      <contour>
        <pt x="568" y="228" on="1"/>
        <pt x="568" y="185" on="1"/>
        <pt x="568" y="127" on="0"/>
        <pt x="526" y="48" on="0"/>
        <pt x="444" y="7" on="0"/>
        <pt x="347" y="-10" on="0"/>
        <pt x="280" y="-10" on="1"/>
        <pt x="187" y="-10" on="0"/>
        <pt x="50" y="8" on="1"/>
        <pt x="50" y="127" on="1"/>
        <pt x="216" y="101" on="0"/>
        <pt x="282" y="101" on="1"/>
        <pt x="412" y="101" on="0"/>
        <pt x="412" y="168" on="1"/>
        <pt x="412" y="210" on="1"/>
        <pt x="412" y="239" on="0"/>
        <pt x="378" y="276" on="0"/>
        <pt x="327" y="276" on="1"/>
        <pt x="251" y="276" on="1"/>
        <pt x="37" y="276" on="0"/>
        <pt x="37" y="446" on="1"/>
        <pt x="37" y="494" on="1"/>
        <pt x="37" y="578" on="0"/>
        <pt x="178" y="659" on="0"/>
        <pt x="333" y="659" on="1"/>
        <pt x="408" y="659" on="0"/>
        <pt x="536" y="646" on="1"/>
        <pt x="536" y="530" on="1"/>
        <pt x="384" y="548" on="0"/>
        <pt x="328" y="548" on="1"/>
        <pt x="251" y="548" on="0"/>
        <pt x="193" y="522" on="0"/>
        <pt x="193" y="491" on="1"/>
        <pt x="193" y="445" on="1"/>
        <pt x="193" y="394" on="0"/>
        <pt x="279" y="394" on="1"/>
        <pt x="357" y="394" on="1"/>
        <pt x="471" y="394" on="0"/>
        <pt x="568" y="310" on="0"/>
      </contour>
      <contour>
        <pt x="453" y="718" on="1"/>
        <pt x="355" y="718" on="1"/>
        <pt x="302" y="805" on="1"/>
        <pt x="250" y="718" on="1"/>
        <pt x="152" y="718" on="1"/>
        <pt x="208" y="845" on="1"/>
        <pt x="395" y="845" on="1"/>
      </contour>
    </TTGlyph>
    <TTGlyph name="Scommaaccent" xMin="37" yMin="-196" xMax="568" yMax="659">
      <contour>
        <pt x="388" y="-46" on="1"/>
        <pt x="305" y="-196" on="1"/>
        <pt x="209" y="-196" on="1"/>
        <pt x="255" y="-46" on="1"/>
      </contour>
      <contour>
        <pt x="568" y="228" on="1"/>
        <pt x="568" y="185" on="1"/>
        <pt x="568" y="127" on="0"/>
        <pt x="526" y="48" on="0"/>
        <pt x="444" y="7" on="0"/>
        <pt x="347" y="-10" on="0"/>
        <pt x="280" y="-10" on="1"/>
        <pt x="187" y="-10" on="0"/>
        <pt x="50" y="8" on="1"/>
        <pt x="50" y="127" on="1"/>
        <pt x="216" y="101" on="0"/>
        <pt x="282" y="101" on="1"/>
        <pt x="412" y="101" on="0"/>
        <pt x="412" y="168" on="1"/>
        <pt x="412" y="210" on="1"/>
        <pt x="412" y="239" on="0"/>
        <pt x="378" y="276" on="0"/>
        <pt x="327" y="276" on="1"/>
        <pt x="251" y="276" on="1"/>
        <pt x="37" y="276" on="0"/>
        <pt x="37" y="446" on="1"/>
        <pt x="37" y="494" on="1"/>
        <pt x="37" y="578" on="0"/>
        <pt x="178" y="659" on="0"/>
        <pt x="333" y="659" on="1"/>
        <pt x="408" y="659" on="0"/>
        <pt x="536" y="646" on="1"/>
        <pt x="536" y="530" on="1"/>
        <pt x="384" y="548" on="0"/>
        <pt x="328" y="548" on="1"/>
        <pt x="251" y="548" on="0"/>
        <pt x="193" y="522" on="0"/>
        <pt x="193" y="491" on="1"/>
        <pt x="193" y="445" on="1"/>
        <pt x="193" y="394" on="0"/>
        <pt x="279" y="394" on="1"/>
        <pt x="357" y="394" on="1"/>
        <pt x="471" y="394" on="0"/>
        <pt x="568" y="310" on="0"/>
      </contour>
    </TTGlyph>
    <TTGlyph name="Sigma" xMin="37" yMin="0" xMax="549" yMax="649">
      <contour>
        <pt x="549" y="0" on="1"/>
        <pt x="37" y="0" on="1"/>
        <pt x="37" y="117" on="1"/>
        <pt x="292" y="334" on="1"/>
        <pt x="37" y="527" on="1"/>
        <pt x="37" y="649" on="1"/>
        <pt x="539" y="649" on="1"/>
        <pt x="539" y="541" on="1"/>
        <pt x="224" y="541" on="1"/>
        <pt x="426" y="384" on="1"/>
        <pt x="426" y="289" on="1"/>
        <pt x="214" y="111" on="1"/>
        <pt x="549" y="111" on="1"/>
      </contour>
    </TTGlyph>
    <TTGlyph name="T" xMin="20" yMin="0" xMax="575" yMax="649">
      <contour>
        <pt x="575" y="538" on="1"/>
        <pt x="376" y="538" on="1"/>
        <pt x="376" y="0" on="1"/>
        <pt x="220" y="0" on="1"/>
        <pt x="220" y="538" on="1"/>
        <pt x="20" y="538" on="1"/>
        <pt x="20" y="649" on="1"/>
        <pt x="575" y="649" on="1"/>
      </contour>
    </TTGlyph>
    <TTGlyph name="Tau" xMin="20" yMin="0" xMax="575" yMax="649">
      <contour>
        <pt x="575" y="538" on="1"/>
        <pt x="376" y="538" on="1"/>
        <pt x="376" y="0" on="1"/>
        <pt x="220" y="0" on="1"/>
        <pt x="220" y="538" on="1"/>
        <pt x="20" y="538" on="1"/>
        <pt x="20" y="649" on="1"/>
        <pt x="575" y="649" on="1"/>
      </contour>
    </TTGlyph>
    <TTGlyph name="Tbar" xMin="20" yMin="0" xMax="575" yMax="649">
      <contour>
        <pt x="575" y="538" on="1"/>
        <pt x="376" y="538" on="1"/>
        <pt x="376" y="380" on="1"/>
        <pt x="484" y="380" on="1"/>
        <pt x="484" y="281" on="1"/>
        <pt x="376" y="281" on="1"/>
        <pt x="376" y="0" on="1"/>
        <pt x="220" y="0" on="1"/>
        <pt x="220" y="281" on="1"/>
        <pt x="108" y="281" on="1"/>
        <pt x="108" y="380" on="1"/>
        <pt x="220" y="380" on="1"/>
        <pt x="220" y="538" on="1"/>
        <pt x="20" y="538" on="1"/>
        <pt x="20" y="649" on="1"/>
        <pt x="575" y="649" on="1"/>
      </contour>
    </TTGlyph>
    <TTGlyph name="Tcaron" xMin="20" yMin="0" xMax="575" yMax="845">
      <contour>
        <pt x="575" y="538" on="1"/>
        <pt x="376" y="538" on="1"/>
        <pt x="376" y="0" on="1"/>
        <pt x="220" y="0" on="1"/>
        <pt x="220" y="538" on="1"/>
        <pt x="20" y="538" on="1"/>
        <pt x="20" y="649" on="1"/>
        <pt x="575" y="649" on="1"/>
      </contour>
      <contour>
        <pt x="448" y="845" on="1"/>
        <pt x="392" y="718" on="1"/>
        <pt x="205" y="718" on="1"/>
        <pt x="147" y="845" on="1"/>
        <pt x="245" y="845" on="1"/>
        <pt x="298" y="758" on="1"/>
        <pt x="350" y="845" on="1"/>
      </contour>
    </TTGlyph>
    <TTGlyph name="Tcommaaccent" xMin="20" yMin="-208" xMax="575" yMax="649">
      <contour>
        <pt x="575" y="538" on="1"/>
        <pt x="376" y="538" on="1"/>
        <pt x="376" y="0" on="1"/>
        <pt x="220" y="0" on="1"/>
        <pt x="220" y="538" on="1"/>
        <pt x="20" y="538" on="1"/>
        <pt x="20" y="649" on="1"/>
        <pt x="575" y="649" on="1"/>
      </contour>
      <contour>
        <pt x="387" y="-46" on="1"/>
        <pt x="304" y="-208" on="1"/>
        <pt x="208" y="-208" on="1"/>
        <pt x="254" y="-46" on="1"/>
      </contour>
    </TTGlyph>
    <TTGlyph name="Theta" xMin="56" yMin="-10" xMax="672" yMax="659">
      <contour>
        <pt x="672" y="462" on="1"/>
        <pt x="672" y="178" on="1"/>
        <pt x="672" y="123" on="0"/>
        <pt x="614" y="45" on="0"/>
        <pt x="516" y="6" on="0"/>
        <pt x="418" y="-10" on="0"/>
        <pt x="363" y="-10" on="1"/>
        <pt x="311" y="-10" on="0"/>
        <pt x="220" y="3" on="0"/>
        <pt x="117" y="39" on="0"/>
        <pt x="56" y="119" on="0"/>
        <pt x="56" y="178" on="1"/>
        <pt x="56" y="462" on="1"/>
        <pt x="56" y="512" on="0"/>
        <pt x="101" y="588" on="0"/>
        <pt x="164" y="628" on="0"/>
        <pt x="254" y="653" on="0"/>
        <pt x="324" y="659" on="0"/>
        <pt x="363" y="659" on="1"/>
        <pt x="403" y="659" on="0"/>
        <pt x="474" y="653" on="0"/>
        <pt x="564" y="628" on="0"/>
        <pt x="628" y="588" on="0"/>
        <pt x="672" y="513" on="0"/>
      </contour>
      <contour>
        <pt x="516" y="178" on="1"/>
        <pt x="516" y="463" on="1"/>
        <pt x="516" y="510" on="0"/>
        <pt x="439" y="548" on="0"/>
        <pt x="364" y="548" on="1"/>
        <pt x="288" y="548" on="0"/>
        <pt x="212" y="511" on="0"/>
        <pt x="212" y="463" on="1"/>
        <pt x="212" y="178" on="1"/>
        <pt x="212" y="153" on="0"/>
        <pt x="238" y="120" on="0"/>
        <pt x="287" y="106" on="0"/>
        <pt x="332" y="101" on="0"/>
        <pt x="398" y="101" on="0"/>
        <pt x="443" y="106" on="0"/>
        <pt x="491" y="120" on="0"/>
        <pt x="516" y="153" on="0"/>
      </contour>
      <contour>
        <pt x="260" y="278" on="1"/>
        <pt x="260" y="389" on="1"/>
        <pt x="473" y="389" on="1"/>
        <pt x="473" y="278" on="1"/>
      </contour>
    </TTGlyph>
    <TTGlyph name="Thorn" xMin="70" yMin="0" xMax="587" yMax="649">
      <contour>
        <pt x="587" y="271" on="1"/>
        <pt x="587" y="105" on="0"/>
        <pt x="312" y="105" on="1"/>
        <pt x="226" y="105" on="1"/>
        <pt x="226" y="0" on="1"/>
        <pt x="70" y="0" on="1"/>
        <pt x="70" y="649" on="1"/>
        <pt x="226" y="649" on="1"/>
        <pt x="226" y="539" on="1"/>
        <pt x="330" y="539" on="1"/>
        <pt x="386" y="539" on="0"/>
        <pt x="469" y="528" on="0"/>
        <pt x="546" y="499" on="0"/>
        <pt x="587" y="440" on="0"/>
        <pt x="587" y="395" on="1"/>
      </contour>
      <contour>
        <pt x="436" y="271" on="1"/>
        <pt x="436" y="390" on="1"/>
        <pt x="436" y="420" on="0"/>
        <pt x="390" y="437" on="0"/>
        <pt x="323" y="437" on="1"/>
        <pt x="226" y="437" on="1"/>
        <pt x="226" y="208" on="1"/>
        <pt x="325" y="208" on="1"/>
        <pt x="436" y="208" on="0"/>
      </contour>
    </TTGlyph>
    <TTGlyph name="U" xMin="68" yMin="-10" xMax="631" yMax="649">
      <contour>
        <pt x="631" y="649" on="1"/>
        <pt x="631" y="178" on="1"/>
        <pt x="631" y="-10" on="0"/>
        <pt x="349" y="-10" on="1"/>
        <pt x="68" y="-10" on="0"/>
        <pt x="68" y="178" on="1"/>
        <pt x="68" y="649" on="1"/>
        <pt x="224" y="649" on="1"/>
        <pt x="224" y="178" on="1"/>
        <pt x="224" y="134" on="0"/>
        <pt x="282" y="101" on="0"/>
        <pt x="351" y="101" on="1"/>
        <pt x="419" y="101" on="0"/>
        <pt x="475" y="134" on="0"/>
        <pt x="475" y="178" on="1"/>
        <pt x="475" y="649" on="1"/>
      </contour>
    </TTGlyph>
    <TTGlyph name="Uacute" xMin="68" yMin="-10" xMax="631" yMax="845">
      <contour>
        <pt x="631" y="649" on="1"/>
        <pt x="631" y="178" on="1"/>
        <pt x="631" y="-10" on="0"/>
        <pt x="349" y="-10" on="1"/>
        <pt x="68" y="-10" on="0"/>
        <pt x="68" y="178" on="1"/>
        <pt x="68" y="649" on="1"/>
        <pt x="224" y="649" on="1"/>
        <pt x="224" y="178" on="1"/>
        <pt x="224" y="134" on="0"/>
        <pt x="282" y="101" on="0"/>
        <pt x="351" y="101" on="1"/>
        <pt x="419" y="101" on="0"/>
        <pt x="475" y="134" on="0"/>
        <pt x="475" y="178" on="1"/>
        <pt x="475" y="649" on="1"/>
      </contour>
      <contour>
        <pt x="519" y="845" on="1"/>
        <pt x="394" y="718" on="1"/>
        <pt x="270" y="718" on="1"/>
        <pt x="360" y="845" on="1"/>
      </contour>
    </TTGlyph>
    <TTGlyph name="Ubreve" xMin="68" yMin="-10" xMax="631" yMax="845">
      <contour>
        <pt x="631" y="649" on="1"/>
        <pt x="631" y="178" on="1"/>
        <pt x="631" y="-10" on="0"/>
        <pt x="349" y="-10" on="1"/>
        <pt x="68" y="-10" on="0"/>
        <pt x="68" y="178" on="1"/>
        <pt x="68" y="649" on="1"/>
        <pt x="224" y="649" on="1"/>
        <pt x="224" y="178" on="1"/>
        <pt x="224" y="134" on="0"/>
        <pt x="282" y="101" on="0"/>
        <pt x="351" y="101" on="1"/>
        <pt x="419" y="101" on="0"/>
        <pt x="475" y="134" on="0"/>
        <pt x="475" y="178" on="1"/>
        <pt x="475" y="649" on="1"/>
      </contour>
      <contour>
        <pt x="487" y="845" on="1"/>
        <pt x="483" y="788" on="0"/>
        <pt x="410" y="718" on="0"/>
        <pt x="349" y="718" on="1"/>
        <pt x="287" y="718" on="0"/>
        <pt x="214" y="788" on="0"/>
        <pt x="211" y="845" on="1"/>
        <pt x="292" y="845" on="1"/>
        <pt x="298" y="816" on="0"/>
        <pt x="322" y="790" on="0"/>
        <pt x="349" y="790" on="1"/>
        <pt x="399" y="790" on="0"/>
        <pt x="405" y="845" on="1"/>
      </contour>
    </TTGlyph>
    <TTGlyph name="Ucircumflex" xMin="68" yMin="-10" xMax="631" yMax="845">
      <contour>
        <pt x="631" y="649" on="1"/>
        <pt x="631" y="178" on="1"/>
        <pt x="631" y="-10" on="0"/>
        <pt x="349" y="-10" on="1"/>
        <pt x="68" y="-10" on="0"/>
        <pt x="68" y="178" on="1"/>
        <pt x="68" y="649" on="1"/>
        <pt x="224" y="649" on="1"/>
        <pt x="224" y="178" on="1"/>
        <pt x="224" y="134" on="0"/>
        <pt x="282" y="101" on="0"/>
        <pt x="351" y="101" on="1"/>
        <pt x="419" y="101" on="0"/>
        <pt x="475" y="134" on="0"/>
        <pt x="475" y="178" on="1"/>
        <pt x="475" y="649" on="1"/>
      </contour>
      <contour>
        <pt x="500" y="718" on="1"/>
        <pt x="402" y="718" on="1"/>
        <pt x="349" y="805" on="1"/>
        <pt x="297" y="718" on="1"/>
        <pt x="199" y="718" on="1"/>
        <pt x="255" y="845" on="1"/>
        <pt x="442" y="845" on="1"/>
      </contour>
    </TTGlyph>
    <TTGlyph name="Udieresis" xMin="68" yMin="-10" xMax="631" yMax="848">
      <contour>
        <pt x="631" y="649" on="1"/>
        <pt x="631" y="178" on="1"/>
        <pt x="631" y="-10" on="0"/>
        <pt x="349" y="-10" on="1"/>
        <pt x="68" y="-10" on="0"/>
        <pt x="68" y="178" on="1"/>
        <pt x="68" y="649" on="1"/>
        <pt x="224" y="649" on="1"/>
        <pt x="224" y="178" on="1"/>
        <pt x="224" y="134" on="0"/>
        <pt x="282" y="101" on="0"/>
        <pt x="351" y="101" on="1"/>
        <pt x="419" y="101" on="0"/>
        <pt x="475" y="134" on="0"/>
        <pt x="475" y="178" on="1"/>
        <pt x="475" y="649" on="1"/>
      </contour>
      <contour>
        <pt x="507" y="730" on="1"/>
        <pt x="381" y="730" on="1"/>
        <pt x="381" y="848" on="1"/>
        <pt x="507" y="848" on="1"/>
      </contour>
      <contour>
        <pt x="317" y="730" on="1"/>
        <pt x="191" y="730" on="1"/>
        <pt x="191" y="848" on="1"/>
        <pt x="317" y="848" on="1"/>
      </contour>
    </TTGlyph>
    <TTGlyph name="Ugrave" xMin="68" yMin="-10" xMax="631" yMax="845">
      <contour>
        <pt x="631" y="649" on="1"/>
        <pt x="631" y="178" on="1"/>
        <pt x="631" y="-10" on="0"/>
        <pt x="349" y="-10" on="1"/>
        <pt x="68" y="-10" on="0"/>
        <pt x="68" y="178" on="1"/>
        <pt x="68" y="649" on="1"/>
        <pt x="224" y="649" on="1"/>
        <pt x="224" y="178" on="1"/>
        <pt x="224" y="134" on="0"/>
        <pt x="282" y="101" on="0"/>
        <pt x="351" y="101" on="1"/>
        <pt x="419" y="101" on="0"/>
        <pt x="475" y="134" on="0"/>
        <pt x="475" y="178" on="1"/>
        <pt x="475" y="649" on="1"/>
      </contour>
      <contour>
        <pt x="423" y="718" on="1"/>
        <pt x="299" y="718" on="1"/>
        <pt x="174" y="845" on="1"/>
        <pt x="333" y="845" on="1"/>
      </contour>
    </TTGlyph>
    <TTGlyph name="Uhungarumlaut" xMin="68" yMin="-10" xMax="631" yMax="845">
      <contour>
        <pt x="631" y="649" on="1"/>
        <pt x="631" y="178" on="1"/>
        <pt x="631" y="-10" on="0"/>
        <pt x="349" y="-10" on="1"/>
        <pt x="68" y="-10" on="0"/>
        <pt x="68" y="178" on="1"/>
        <pt x="68" y="649" on="1"/>
        <pt x="224" y="649" on="1"/>
        <pt x="224" y="178" on="1"/>
        <pt x="224" y="134" on="0"/>
        <pt x="282" y="101" on="0"/>
        <pt x="351" y="101" on="1"/>
        <pt x="419" y="101" on="0"/>
        <pt x="475" y="134" on="0"/>
        <pt x="475" y="178" on="1"/>
        <pt x="475" y="649" on="1"/>
      </contour>
      <contour>
        <pt x="506" y="845" on="1"/>
        <pt x="436" y="717" on="1"/>
        <pt x="340" y="717" on="1"/>
        <pt x="410" y="845" on="1"/>
      </contour>
      <contour>
        <pt x="359" y="845" on="1"/>
        <pt x="289" y="717" on="1"/>
        <pt x="193" y="717" on="1"/>
        <pt x="263" y="845" on="1"/>
      </contour>
    </TTGlyph>
    <TTGlyph name="Umacron" xMin="68" yMin="-10" xMax="631" yMax="814">
      <contour>
        <pt x="631" y="649" on="1"/>
        <pt x="631" y="178" on="1"/>
        <pt x="631" y="-10" on="0"/>
        <pt x="349" y="-10" on="1"/>
        <pt x="68" y="-10" on="0"/>
        <pt x="68" y="178" on="1"/>
        <pt x="68" y="649" on="1"/>
        <pt x="224" y="649" on="1"/>
        <pt x="224" y="178" on="1"/>
        <pt x="224" y="134" on="0"/>
        <pt x="282" y="101" on="0"/>
        <pt x="351" y="101" on="1"/>
        <pt x="419" y="101" on="0"/>
        <pt x="475" y="134" on="0"/>
        <pt x="475" y="178" on="1"/>
        <pt x="475" y="649" on="1"/>
      </contour>
      <contour>
        <pt x="488" y="725" on="1"/>
        <pt x="210" y="725" on="1"/>
        <pt x="210" y="814" on="1"/>
        <pt x="488" y="814" on="1"/>
      </contour>
    </TTGlyph>
    <TTGlyph name="Uogonek" xMin="70" yMin="-186" xMax="633" yMax="649">
      <contour>
        <pt x="424" y="-186" on="0"/>
        <pt x="326" y="-186" on="0"/>
        <pt x="276" y="-149" on="0"/>
        <pt x="276" y="-106" on="1"/>
        <pt x="276" y="-59" on="0"/>
        <pt x="306" y="-8" on="1"/>
        <pt x="70" y="5" on="0"/>
        <pt x="70" y="178" on="1"/>
        <pt x="70" y="649" on="1"/>
        <pt x="219" y="649" on="1"/>
        <pt x="219" y="174" on="1"/>
        <pt x="219" y="131" on="0"/>
        <pt x="283" y="97" on="0"/>
        <pt x="353" y="97" on="1"/>
        <pt x="422" y="97" on="0"/>
        <pt x="484" y="130" on="0"/>
        <pt x="484" y="174" on="1"/>
        <pt x="484" y="649" on="1"/>
        <pt x="633" y="649" on="1"/>
        <pt x="633" y="178" on="1"/>
        <pt x="633" y="9" on="0"/>
        <pt x="401" y="-8" on="1"/>
        <pt x="377" y="-46" on="0"/>
        <pt x="377" y="-83" on="1"/>
        <pt x="377" y="-99" on="0"/>
        <pt x="393" y="-115" on="0"/>
        <pt x="415" y="-115" on="1"/>
        <pt x="427" y="-115" on="0"/>
        <pt x="445" y="-109" on="1"/>
        <pt x="445" y="-176" on="1"/>
      </contour>
    </TTGlyph>
    <TTGlyph name="Upsilon" xMin="8" yMin="0" xMax="636" yMax="649">
      <contour>
        <pt x="636" y="649" on="1"/>
        <pt x="399" y="262" on="1"/>
        <pt x="399" y="0" on="1"/>
        <pt x="243" y="0" on="1"/>
        <pt x="243" y="260" on="1"/>
        <pt x="8" y="649" on="1"/>
        <pt x="185" y="649" on="1"/>
        <pt x="322" y="395" on="1"/>
        <pt x="458" y="649" on="1"/>
      </contour>
    </TTGlyph>
    <TTGlyph name="Upsilondieresis" xMin="8" yMin="0" xMax="636" yMax="848">
      <contour>
        <pt x="636" y="649" on="1"/>
        <pt x="399" y="262" on="1"/>
        <pt x="399" y="0" on="1"/>
        <pt x="243" y="0" on="1"/>
        <pt x="243" y="260" on="1"/>
        <pt x="8" y="649" on="1"/>
        <pt x="185" y="649" on="1"/>
        <pt x="322" y="395" on="1"/>
        <pt x="458" y="649" on="1"/>
      </contour>
      <contour>
        <pt x="480" y="730" on="1"/>
        <pt x="354" y="730" on="1"/>
        <pt x="354" y="848" on="1"/>
        <pt x="480" y="848" on="1"/>
      </contour>
      <contour>
        <pt x="290" y="730" on="1"/>
        <pt x="164" y="730" on="1"/>
        <pt x="164" y="848" on="1"/>
        <pt x="290" y="848" on="1"/>
      </contour>
    </TTGlyph>
    <TTGlyph name="Upsilontonos" xMin="0" yMin="0" xMax="827" yMax="658">
      <contour>
        <pt x="827" y="649" on="1"/>
        <pt x="590" y="262" on="1"/>
        <pt x="590" y="0" on="1"/>
        <pt x="434" y="0" on="1"/>
        <pt x="434" y="260" on="1"/>
        <pt x="199" y="649" on="1"/>
        <pt x="376" y="649" on="1"/>
        <pt x="513" y="395" on="1"/>
        <pt x="649" y="649" on="1"/>
      </contour>
      <contour>
        <pt x="125" y="486" on="1"/>
        <pt x="39" y="486" on="1"/>
        <pt x="0" y="658" on="1"/>
        <pt x="164" y="658" on="1"/>
      </contour>
    </TTGlyph>
    <TTGlyph name="Uring" xMin="68" yMin="-10" xMax="631" yMax="932">
      <contour>
        <pt x="631" y="649" on="1"/>
        <pt x="631" y="178" on="1"/>
        <pt x="631" y="-10" on="0"/>
        <pt x="349" y="-10" on="1"/>
        <pt x="68" y="-10" on="0"/>
        <pt x="68" y="178" on="1"/>
        <pt x="68" y="649" on="1"/>
        <pt x="224" y="649" on="1"/>
        <pt x="224" y="178" on="1"/>
        <pt x="224" y="134" on="0"/>
        <pt x="282" y="101" on="0"/>
        <pt x="351" y="101" on="1"/>
        <pt x="419" y="101" on="0"/>
        <pt x="475" y="134" on="0"/>
        <pt x="475" y="178" on="1"/>
        <pt x="475" y="649" on="1"/>
      </contour>
      <contour>
        <pt x="498" y="816" on="1"/>
        <pt x="498" y="783" on="0"/>
        <pt x="476" y="741" on="0"/>
        <pt x="429" y="723" on="0"/>
        <pt x="385" y="718" on="0"/>
        <pt x="313" y="718" on="0"/>
        <pt x="269" y="723" on="0"/>
        <pt x="222" y="741" on="0"/>
        <pt x="200" y="783" on="0"/>
        <pt x="200" y="816" on="1"/>
        <pt x="200" y="828" on="1"/>
        <pt x="200" y="857" on="0"/>
        <pt x="217" y="897" on="0"/>
        <pt x="241" y="918" on="0"/>
        <pt x="284" y="930" on="0"/>
        <pt x="320" y="932" on="0"/>
        <pt x="378" y="932" on="0"/>
        <pt x="414" y="930" on="0"/>
        <pt x="457" y="918" on="0"/>
        <pt x="481" y="897" on="0"/>
        <pt x="498" y="857" on="0"/>
        <pt x="498" y="828" on="1"/>
      </contour>
      <contour>
        <pt x="419" y="809" on="1"/>
        <pt x="419" y="836" on="1"/>
        <pt x="419" y="865" on="0"/>
        <pt x="395" y="880" on="0"/>
        <pt x="303" y="880" on="0"/>
        <pt x="279" y="865" on="0"/>
        <pt x="279" y="836" on="1"/>
        <pt x="279" y="809" on="1"/>
        <pt x="279" y="785" on="0"/>
        <pt x="308" y="770" on="0"/>
        <pt x="390" y="770" on="0"/>
        <pt x="419" y="785" on="0"/>
      </contour>
    </TTGlyph>
    <TTGlyph name="Utilde" xMin="68" yMin="-10" xMax="631" yMax="857">
      <contour>
        <pt x="631" y="649" on="1"/>
        <pt x="631" y="178" on="1"/>
        <pt x="631" y="-10" on="0"/>
        <pt x="349" y="-10" on="1"/>
        <pt x="68" y="-10" on="0"/>
        <pt x="68" y="178" on="1"/>
        <pt x="68" y="649" on="1"/>
        <pt x="224" y="649" on="1"/>
        <pt x="224" y="178" on="1"/>
        <pt x="224" y="134" on="0"/>
        <pt x="282" y="101" on="0"/>
        <pt x="351" y="101" on="1"/>
        <pt x="419" y="101" on="0"/>
        <pt x="475" y="134" on="0"/>
        <pt x="475" y="178" on="1"/>
        <pt x="475" y="649" on="1"/>
      </contour>
      <contour>
        <pt x="412" y="824" on="1"/>
        <pt x="440" y="824" on="0"/>
        <pt x="453" y="857" on="1"/>
        <pt x="494" y="833" on="1"/>
        <pt x="487" y="809" on="0"/>
        <pt x="439" y="751" on="0"/>
        <pt x="403" y="751" on="1"/>
        <pt x="378" y="751" on="0"/>
        <pt x="298" y="784" on="0"/>
        <pt x="287" y="784" on="1"/>
        <pt x="258" y="784" on="0"/>
        <pt x="245" y="751" on="1"/>
        <pt x="205" y="775" on="1"/>
        <pt x="211" y="798" on="0"/>
        <pt x="260" y="854" on="0"/>
        <pt x="296" y="854" on="1"/>
        <pt x="319" y="854" on="0"/>
        <pt x="396" y="824" on="0"/>
      </contour>
    </TTGlyph>
    <TTGlyph name="V" xMin="0" yMin="0" xMax="664" yMax="649">
      <contour>
        <pt x="664" y="649" on="1"/>
        <pt x="424" y="0" on="1"/>
        <pt x="233" y="0" on="1"/>
        <pt x="0" y="649" on="1"/>
        <pt x="158" y="649" on="1"/>
        <pt x="332" y="130" on="1"/>
        <pt x="336" y="130" on="1"/>
        <pt x="510" y="649" on="1"/>
      </contour>
    </TTGlyph>
    <TTGlyph name="W" xMin="8" yMin="0" xMax="977" yMax="649">
      <contour>
        <pt x="977" y="649" on="1"/>
        <pt x="769" y="0" on="1"/>
        <pt x="615" y="0" on="1"/>
        <pt x="491" y="471" on="1"/>
        <pt x="363" y="0" on="1"/>
        <pt x="209" y="0" on="1"/>
        <pt x="8" y="649" on="1"/>
        <pt x="170" y="649" on="1"/>
        <pt x="296" y="175" on="1"/>
        <pt x="422" y="649" on="1"/>
        <pt x="567" y="649" on="1"/>
        <pt x="703" y="175" on="1"/>
        <pt x="819" y="649" on="1"/>
      </contour>
    </TTGlyph>
    <TTGlyph name="Wacute" xMin="8" yMin="0" xMax="977" yMax="845">
      <contour>
        <pt x="977" y="649" on="1"/>
        <pt x="769" y="0" on="1"/>
        <pt x="615" y="0" on="1"/>
        <pt x="491" y="471" on="1"/>
        <pt x="363" y="0" on="1"/>
        <pt x="209" y="0" on="1"/>
        <pt x="8" y="649" on="1"/>
        <pt x="170" y="649" on="1"/>
        <pt x="296" y="175" on="1"/>
        <pt x="422" y="649" on="1"/>
        <pt x="567" y="649" on="1"/>
        <pt x="703" y="175" on="1"/>
        <pt x="819" y="649" on="1"/>
      </contour>
      <contour>
        <pt x="617" y="845" on="1"/>
        <pt x="492" y="718" on="1"/>
        <pt x="368" y="718" on="1"/>
        <pt x="458" y="845" on="1"/>
      </contour>
    </TTGlyph>
    <TTGlyph name="Wcircumflex" xMin="8" yMin="0" xMax="977" yMax="845">
      <contour>
        <pt x="977" y="649" on="1"/>
        <pt x="769" y="0" on="1"/>
        <pt x="615" y="0" on="1"/>
        <pt x="491" y="471" on="1"/>
        <pt x="363" y="0" on="1"/>
        <pt x="209" y="0" on="1"/>
        <pt x="8" y="649" on="1"/>
        <pt x="170" y="649" on="1"/>
        <pt x="296" y="175" on="1"/>
        <pt x="422" y="649" on="1"/>
        <pt x="567" y="649" on="1"/>
        <pt x="703" y="175" on="1"/>
        <pt x="819" y="649" on="1"/>
      </contour>
      <contour>
        <pt x="643" y="718" on="1"/>
        <pt x="545" y="718" on="1"/>
        <pt x="492" y="805" on="1"/>
        <pt x="440" y="718" on="1"/>
        <pt x="342" y="718" on="1"/>
        <pt x="398" y="845" on="1"/>
        <pt x="585" y="845" on="1"/>
      </contour>
    </TTGlyph>
    <TTGlyph name="Wdieresis" xMin="8" yMin="0" xMax="977" yMax="848">
      <contour>
        <pt x="977" y="649" on="1"/>
        <pt x="769" y="0" on="1"/>
        <pt x="615" y="0" on="1"/>
        <pt x="491" y="471" on="1"/>
        <pt x="363" y="0" on="1"/>
        <pt x="209" y="0" on="1"/>
        <pt x="8" y="649" on="1"/>
        <pt x="170" y="649" on="1"/>
        <pt x="296" y="175" on="1"/>
        <pt x="422" y="649" on="1"/>
        <pt x="567" y="649" on="1"/>
        <pt x="703" y="175" on="1"/>
        <pt x="819" y="649" on="1"/>
      </contour>
      <contour>
        <pt x="650" y="730" on="1"/>
        <pt x="524" y="730" on="1"/>
        <pt x="524" y="848" on="1"/>
        <pt x="650" y="848" on="1"/>
      </contour>
      <contour>
        <pt x="460" y="730" on="1"/>
        <pt x="334" y="730" on="1"/>
        <pt x="334" y="848" on="1"/>
        <pt x="460" y="848" on="1"/>
      </contour>
    </TTGlyph>
    <TTGlyph name="Wgrave" xMin="8" yMin="0" xMax="977" yMax="845">
      <contour>
        <pt x="977" y="649" on="1"/>
        <pt x="769" y="0" on="1"/>
        <pt x="615" y="0" on="1"/>
        <pt x="491" y="471" on="1"/>
        <pt x="363" y="0" on="1"/>
        <pt x="209" y="0" on="1"/>
        <pt x="8" y="649" on="1"/>
        <pt x="170" y="649" on="1"/>
        <pt x="296" y="175" on="1"/>
        <pt x="422" y="649" on="1"/>
        <pt x="567" y="649" on="1"/>
        <pt x="703" y="175" on="1"/>
        <pt x="819" y="649" on="1"/>
      </contour>
      <contour>
        <pt x="617" y="718" on="1"/>
        <pt x="493" y="718" on="1"/>
        <pt x="368" y="845" on="1"/>
        <pt x="527" y="845" on="1"/>
      </contour>
    </TTGlyph>
    <TTGlyph name="X" xMin="10" yMin="0" xMax="668" yMax="649">
      <contour>
        <pt x="668" y="0" on="1"/>
        <pt x="487" y="0" on="1"/>
        <pt x="339" y="230" on="1"/>
        <pt x="190" y="0" on="1"/>
        <pt x="10" y="0" on="1"/>
        <pt x="249" y="331" on="1"/>
        <pt x="20" y="649" on="1"/>
        <pt x="200" y="649" on="1"/>
        <pt x="339" y="433" on="1"/>
        <pt x="477" y="649" on="1"/>
        <pt x="657" y="649" on="1"/>
        <pt x="428" y="331" on="1"/>
      </contour>
    </TTGlyph>
    <TTGlyph name="Xi" xMin="70" yMin="0" xMax="625" yMax="649">
      <contour>
        <pt x="70" y="0" on="1"/>
        <pt x="70" y="111" on="1"/>
        <pt x="625" y="111" on="1"/>
        <pt x="625" y="0" on="1"/>
      </contour>
      <contour>
        <pt x="70" y="538" on="1"/>
        <pt x="70" y="649" on="1"/>
        <pt x="625" y="649" on="1"/>
        <pt x="625" y="538" on="1"/>
      </contour>
      <contour>
        <pt x="120" y="278" on="1"/>
        <pt x="120" y="389" on="1"/>
        <pt x="575" y="389" on="1"/>
        <pt x="575" y="278" on="1"/>
      </contour>
    </TTGlyph>
    <TTGlyph name="Y" xMin="8" yMin="0" xMax="636" yMax="649">
      <contour>
        <pt x="636" y="649" on="1"/>
        <pt x="399" y="262" on="1"/>
        <pt x="399" y="0" on="1"/>
        <pt x="243" y="0" on="1"/>
        <pt x="243" y="260" on="1"/>
        <pt x="8" y="649" on="1"/>
        <pt x="185" y="649" on="1"/>
        <pt x="322" y="395" on="1"/>
        <pt x="458" y="649" on="1"/>
      </contour>
    </TTGlyph>
    <TTGlyph name="Yacute" xMin="8" yMin="0" xMax="636" yMax="845">
      <contour>
        <pt x="636" y="649" on="1"/>
        <pt x="399" y="262" on="1"/>
        <pt x="399" y="0" on="1"/>
        <pt x="243" y="0" on="1"/>
        <pt x="243" y="260" on="1"/>
        <pt x="8" y="649" on="1"/>
        <pt x="185" y="649" on="1"/>
        <pt x="322" y="395" on="1"/>
        <pt x="458" y="649" on="1"/>
      </contour>
      <contour>
        <pt x="485" y="845" on="1"/>
        <pt x="360" y="718" on="1"/>
        <pt x="236" y="718" on="1"/>
        <pt x="326" y="845" on="1"/>
      </contour>
    </TTGlyph>
    <TTGlyph name="Ycircumflex" xMin="8" yMin="0" xMax="636" yMax="845">
      <contour>
        <pt x="636" y="649" on="1"/>
        <pt x="399" y="262" on="1"/>
        <pt x="399" y="0" on="1"/>
        <pt x="243" y="0" on="1"/>
        <pt x="243" y="260" on="1"/>
        <pt x="8" y="649" on="1"/>
        <pt x="185" y="649" on="1"/>
        <pt x="322" y="395" on="1"/>
        <pt x="458" y="649" on="1"/>
      </contour>
      <contour>
        <pt x="472" y="718" on="1"/>
        <pt x="374" y="718" on="1"/>
        <pt x="321" y="805" on="1"/>
        <pt x="269" y="718" on="1"/>
        <pt x="171" y="718" on="1"/>
        <pt x="227" y="845" on="1"/>
        <pt x="414" y="845" on="1"/>
      </contour>
    </TTGlyph>
    <TTGlyph name="Ydieresis" xMin="8" yMin="0" xMax="636" yMax="848">
      <contour>
        <pt x="636" y="649" on="1"/>
        <pt x="399" y="262" on="1"/>
        <pt x="399" y="0" on="1"/>
        <pt x="243" y="0" on="1"/>
        <pt x="243" y="260" on="1"/>
        <pt x="8" y="649" on="1"/>
        <pt x="185" y="649" on="1"/>
        <pt x="322" y="395" on="1"/>
        <pt x="458" y="649" on="1"/>
      </contour>
      <contour>
        <pt x="480" y="730" on="1"/>
        <pt x="354" y="730" on="1"/>
        <pt x="354" y="848" on="1"/>
        <pt x="480" y="848" on="1"/>
      </contour>
      <contour>
        <pt x="290" y="730" on="1"/>
        <pt x="164" y="730" on="1"/>
        <pt x="164" y="848" on="1"/>
        <pt x="290" y="848" on="1"/>
      </contour>
    </TTGlyph>
    <TTGlyph name="Ygrave" xMin="8" yMin="0" xMax="636" yMax="845">
      <contour>
        <pt x="636" y="649" on="1"/>
        <pt x="399" y="262" on="1"/>
        <pt x="399" y="0" on="1"/>
        <pt x="243" y="0" on="1"/>
        <pt x="243" y="260" on="1"/>
        <pt x="8" y="649" on="1"/>
        <pt x="185" y="649" on="1"/>
        <pt x="322" y="395" on="1"/>
        <pt x="458" y="649" on="1"/>
      </contour>
      <contour>
        <pt x="446" y="718" on="1"/>
        <pt x="322" y="718" on="1"/>
        <pt x="197" y="845" on="1"/>
        <pt x="356" y="845" on="1"/>
      </contour>
    </TTGlyph>
    <TTGlyph name="Z" xMin="40" yMin="0" xMax="576" yMax="649">
      <contour>
        <pt x="576" y="0" on="1"/>
        <pt x="40" y="0" on="1"/>
        <pt x="40" y="95" on="1"/>
        <pt x="378" y="538" on="1"/>
        <pt x="50" y="538" on="1"/>
        <pt x="50" y="649" on="1"/>
        <pt x="570" y="649" on="1"/>
        <pt x="570" y="555" on="1"/>
        <pt x="232" y="112" on="1"/>
        <pt x="576" y="112" on="1"/>
      </contour>
    </TTGlyph>
    <TTGlyph name="Zacute" xMin="40" yMin="0" xMax="576" yMax="845">
      <contour>
        <pt x="576" y="0" on="1"/>
        <pt x="40" y="0" on="1"/>
        <pt x="40" y="95" on="1"/>
        <pt x="378" y="538" on="1"/>
        <pt x="50" y="538" on="1"/>
        <pt x="50" y="649" on="1"/>
        <pt x="570" y="649" on="1"/>
        <pt x="570" y="555" on="1"/>
        <pt x="232" y="112" on="1"/>
        <pt x="576" y="112" on="1"/>
      </contour>
      <contour>
        <pt x="430" y="845" on="1"/>
        <pt x="305" y="718" on="1"/>
        <pt x="181" y="718" on="1"/>
        <pt x="271" y="845" on="1"/>
      </contour>
    </TTGlyph>
    <TTGlyph name="Zcaron" xMin="40" yMin="0" xMax="576" yMax="845">
      <contour>
        <pt x="576" y="0" on="1"/>
        <pt x="40" y="0" on="1"/>
        <pt x="40" y="95" on="1"/>
        <pt x="378" y="538" on="1"/>
        <pt x="50" y="538" on="1"/>
        <pt x="50" y="649" on="1"/>
        <pt x="570" y="649" on="1"/>
        <pt x="570" y="555" on="1"/>
        <pt x="232" y="112" on="1"/>
        <pt x="576" y="112" on="1"/>
      </contour>
      <contour>
        <pt x="456" y="845" on="1"/>
        <pt x="400" y="718" on="1"/>
        <pt x="213" y="718" on="1"/>
        <pt x="155" y="845" on="1"/>
        <pt x="253" y="845" on="1"/>
        <pt x="306" y="758" on="1"/>
        <pt x="358" y="845" on="1"/>
      </contour>
    </TTGlyph>
    <TTGlyph name="Zdotaccent" xMin="40" yMin="0" xMax="576" yMax="845">
      <contour>
        <pt x="576" y="0" on="1"/>
        <pt x="40" y="0" on="1"/>
        <pt x="40" y="95" on="1"/>
        <pt x="378" y="538" on="1"/>
        <pt x="50" y="538" on="1"/>
        <pt x="50" y="649" on="1"/>
        <pt x="570" y="649" on="1"/>
        <pt x="570" y="555" on="1"/>
        <pt x="232" y="112" on="1"/>
        <pt x="576" y="112" on="1"/>
      </contour>
      <contour>
        <pt x="379" y="730" on="1"/>
        <pt x="233" y="730" on="1"/>
        <pt x="233" y="845" on="1"/>
        <pt x="379" y="845" on="1"/>
      </contour>
    </TTGlyph>
    <TTGlyph name="Zeta" xMin="40" yMin="0" xMax="576" yMax="649">
      <contour>
        <pt x="576" y="0" on="1"/>
        <pt x="40" y="0" on="1"/>
        <pt x="40" y="95" on="1"/>
        <pt x="378" y="538" on="1"/>
        <pt x="50" y="538" on="1"/>
        <pt x="50" y="649" on="1"/>
        <pt x="570" y="649" on="1"/>
        <pt x="570" y="555" on="1"/>
        <pt x="232" y="112" on="1"/>
        <pt x="576" y="112" on="1"/>
      </contour>
    </TTGlyph>
    <TTGlyph name="a" xMin="39" yMin="-10" xMax="500" yMax="494">
      <contour>
        <pt x="500" y="0" on="1"/>
        <pt x="357" y="0" on="1"/>
        <pt x="357" y="44" on="1"/>
        <pt x="341" y="15" on="0"/>
        <pt x="281" y="-10" on="0"/>
        <pt x="201" y="-10" on="1"/>
        <pt x="103" y="-10" on="0"/>
        <pt x="39" y="50" on="0"/>
        <pt x="39" y="145" on="1"/>
        <pt x="39" y="231" on="0"/>
        <pt x="105" y="298" on="0"/>
        <pt x="190" y="298" on="1"/>
        <pt x="354" y="298" on="1"/>
        <pt x="354" y="331" on="1"/>
        <pt x="354" y="375" on="0"/>
        <pt x="313" y="404" on="0"/>
        <pt x="247" y="404" on="1"/>
        <pt x="185" y="404" on="0"/>
        <pt x="77" y="392" on="1"/>
        <pt x="77" y="484" on="1"/>
        <pt x="160" y="494" on="0"/>
        <pt x="262" y="494" on="1"/>
        <pt x="396" y="494" on="0"/>
        <pt x="500" y="429" on="0"/>
        <pt x="500" y="333" on="1"/>
      </contour>
      <contour>
        <pt x="354" y="124" on="1"/>
        <pt x="354" y="218" on="1"/>
        <pt x="254" y="218" on="1"/>
        <pt x="206" y="218" on="0"/>
        <pt x="182" y="196" on="0"/>
        <pt x="182" y="148" on="1"/>
        <pt x="182" y="101" on="0"/>
        <pt x="207" y="81" on="0"/>
        <pt x="258" y="81" on="1"/>
        <pt x="283" y="81" on="0"/>
        <pt x="307" y="82" on="0"/>
        <pt x="335" y="86" on="0"/>
        <pt x="346" y="95" on="0"/>
        <pt x="354" y="111" on="0"/>
      </contour>
    </TTGlyph>
    <TTGlyph name="a.smcp" xMin="-6" yMin="0" xMax="584" yMax="484">
      <contour>
        <pt x="-6" y="0" on="1"/>
        <pt x="212" y="484" on="1"/>
        <pt x="360" y="484" on="1"/>
        <pt x="584" y="0" on="1"/>
        <pt x="429" y="0" on="1"/>
        <pt x="392" y="90" on="1"/>
        <pt x="177" y="90" on="1"/>
        <pt x="141" y="0" on="1"/>
      </contour>
      <contour>
        <pt x="283" y="355" on="1"/>
        <pt x="214" y="183" on="1"/>
        <pt x="353" y="183" on="1"/>
      </contour>
    </TTGlyph>
    <TTGlyph name="aacute" xMin="39" yMin="-10" xMax="500" yMax="680">
      <contour>
        <pt x="500" y="0" on="1"/>
        <pt x="357" y="0" on="1"/>
        <pt x="357" y="44" on="1"/>
        <pt x="341" y="15" on="0"/>
        <pt x="281" y="-10" on="0"/>
        <pt x="201" y="-10" on="1"/>
        <pt x="103" y="-10" on="0"/>
        <pt x="39" y="50" on="0"/>
        <pt x="39" y="145" on="1"/>
        <pt x="39" y="231" on="0"/>
        <pt x="105" y="298" on="0"/>
        <pt x="190" y="298" on="1"/>
        <pt x="354" y="298" on="1"/>
        <pt x="354" y="331" on="1"/>
        <pt x="354" y="375" on="0"/>
        <pt x="313" y="404" on="0"/>
        <pt x="247" y="404" on="1"/>
        <pt x="185" y="404" on="0"/>
        <pt x="77" y="392" on="1"/>
        <pt x="77" y="484" on="1"/>
        <pt x="160" y="494" on="0"/>
        <pt x="262" y="494" on="1"/>
        <pt x="396" y="494" on="0"/>
        <pt x="500" y="429" on="0"/>
        <pt x="500" y="333" on="1"/>
      </contour>
      <contour>
        <pt x="354" y="124" on="1"/>
        <pt x="354" y="218" on="1"/>
        <pt x="254" y="218" on="1"/>
        <pt x="206" y="218" on="0"/>
        <pt x="182" y="196" on="0"/>
        <pt x="182" y="148" on="1"/>
        <pt x="182" y="101" on="0"/>
        <pt x="207" y="81" on="0"/>
        <pt x="258" y="81" on="1"/>
        <pt x="283" y="81" on="0"/>
        <pt x="307" y="82" on="0"/>
        <pt x="335" y="86" on="0"/>
        <pt x="346" y="95" on="0"/>
        <pt x="354" y="111" on="0"/>
      </contour>
      <contour>
        <pt x="427" y="680" on="1"/>
        <pt x="302" y="553" on="1"/>
        <pt x="178" y="553" on="1"/>
        <pt x="268" y="680" on="1"/>
      </contour>
    </TTGlyph>
    <TTGlyph name="aacute.smcp" xMin="-6" yMin="0" xMax="584" yMax="680">
      <contour>
        <pt x="-6" y="0" on="1"/>
        <pt x="212" y="484" on="1"/>
        <pt x="360" y="484" on="1"/>
        <pt x="584" y="0" on="1"/>
        <pt x="429" y="0" on="1"/>
        <pt x="392" y="90" on="1"/>
        <pt x="177" y="90" on="1"/>
        <pt x="141" y="0" on="1"/>
      </contour>
      <contour>
        <pt x="283" y="355" on="1"/>
        <pt x="214" y="183" on="1"/>
        <pt x="353" y="183" on="1"/>
      </contour>
      <contour>
        <pt x="474" y="680" on="1"/>
        <pt x="349" y="553" on="1"/>
        <pt x="225" y="553" on="1"/>
        <pt x="315" y="680" on="1"/>
      </contour>
    </TTGlyph>
    <TTGlyph name="abreve" xMin="39" yMin="-10" xMax="500" yMax="680">
      <contour>
        <pt x="500" y="0" on="1"/>
        <pt x="357" y="0" on="1"/>
        <pt x="357" y="44" on="1"/>
        <pt x="341" y="15" on="0"/>
        <pt x="281" y="-10" on="0"/>
        <pt x="201" y="-10" on="1"/>
        <pt x="103" y="-10" on="0"/>
        <pt x="39" y="50" on="0"/>
        <pt x="39" y="145" on="1"/>
        <pt x="39" y="231" on="0"/>
        <pt x="105" y="298" on="0"/>
        <pt x="190" y="298" on="1"/>
        <pt x="354" y="298" on="1"/>
        <pt x="354" y="331" on="1"/>
        <pt x="354" y="375" on="0"/>
        <pt x="313" y="404" on="0"/>
        <pt x="247" y="404" on="1"/>
        <pt x="185" y="404" on="0"/>
        <pt x="77" y="392" on="1"/>
        <pt x="77" y="484" on="1"/>
        <pt x="160" y="494" on="0"/>
        <pt x="262" y="494" on="1"/>
        <pt x="396" y="494" on="0"/>
        <pt x="500" y="429" on="0"/>
        <pt x="500" y="333" on="1"/>
      </contour>
      <contour>
        <pt x="354" y="124" on="1"/>
        <pt x="354" y="218" on="1"/>
        <pt x="254" y="218" on="1"/>
        <pt x="206" y="218" on="0"/>
        <pt x="182" y="196" on="0"/>
        <pt x="182" y="148" on="1"/>
        <pt x="182" y="101" on="0"/>
        <pt x="207" y="81" on="0"/>
        <pt x="258" y="81" on="1"/>
        <pt x="283" y="81" on="0"/>
        <pt x="307" y="82" on="0"/>
        <pt x="335" y="86" on="0"/>
        <pt x="346" y="95" on="0"/>
        <pt x="354" y="111" on="0"/>
      </contour>
      <contour>
        <pt x="420" y="680" on="1"/>
        <pt x="416" y="623" on="0"/>
        <pt x="343" y="553" on="0"/>
        <pt x="282" y="553" on="1"/>
        <pt x="220" y="553" on="0"/>
        <pt x="147" y="623" on="0"/>
        <pt x="144" y="680" on="1"/>
        <pt x="225" y="680" on="1"/>
        <pt x="231" y="651" on="0"/>
        <pt x="255" y="625" on="0"/>
        <pt x="282" y="625" on="1"/>
        <pt x="332" y="625" on="0"/>
        <pt x="338" y="680" on="1"/>
      </contour>
    </TTGlyph>
    <TTGlyph name="abreve.smcp" xMin="-6" yMin="0" xMax="584" yMax="680">
      <contour>
        <pt x="-6" y="0" on="1"/>
        <pt x="212" y="484" on="1"/>
        <pt x="360" y="484" on="1"/>
        <pt x="584" y="0" on="1"/>
        <pt x="429" y="0" on="1"/>
        <pt x="392" y="90" on="1"/>
        <pt x="177" y="90" on="1"/>
        <pt x="141" y="0" on="1"/>
      </contour>
      <contour>
        <pt x="283" y="355" on="1"/>
        <pt x="214" y="183" on="1"/>
        <pt x="353" y="183" on="1"/>
      </contour>
      <contour>
        <pt x="429" y="680" on="1"/>
        <pt x="425" y="623" on="0"/>
        <pt x="352" y="553" on="0"/>
        <pt x="291" y="553" on="1"/>
        <pt x="229" y="553" on="0"/>
        <pt x="156" y="623" on="0"/>
        <pt x="153" y="680" on="1"/>
        <pt x="234" y="680" on="1"/>
        <pt x="240" y="651" on="0"/>
        <pt x="264" y="625" on="0"/>
        <pt x="291" y="625" on="1"/>
        <pt x="341" y="625" on="0"/>
        <pt x="347" y="680" on="1"/>
      </contour>
    </TTGlyph>
    <TTGlyph name="acircumflex" xMin="39" yMin="-10" xMax="500" yMax="680">
      <contour>
        <pt x="500" y="0" on="1"/>
        <pt x="357" y="0" on="1"/>
        <pt x="357" y="44" on="1"/>
        <pt x="341" y="15" on="0"/>
        <pt x="281" y="-10" on="0"/>
        <pt x="201" y="-10" on="1"/>
        <pt x="103" y="-10" on="0"/>
        <pt x="39" y="50" on="0"/>
        <pt x="39" y="145" on="1"/>
        <pt x="39" y="231" on="0"/>
        <pt x="105" y="298" on="0"/>
        <pt x="190" y="298" on="1"/>
        <pt x="354" y="298" on="1"/>
        <pt x="354" y="331" on="1"/>
        <pt x="354" y="375" on="0"/>
        <pt x="313" y="404" on="0"/>
        <pt x="247" y="404" on="1"/>
        <pt x="185" y="404" on="0"/>
        <pt x="77" y="392" on="1"/>
        <pt x="77" y="484" on="1"/>
        <pt x="160" y="494" on="0"/>
        <pt x="262" y="494" on="1"/>
        <pt x="396" y="494" on="0"/>
        <pt x="500" y="429" on="0"/>
        <pt x="500" y="333" on="1"/>
      </contour>
      <contour>
        <pt x="354" y="124" on="1"/>
        <pt x="354" y="218" on="1"/>
        <pt x="254" y="218" on="1"/>
        <pt x="206" y="218" on="0"/>
        <pt x="182" y="196" on="0"/>
        <pt x="182" y="148" on="1"/>
        <pt x="182" y="101" on="0"/>
        <pt x="207" y="81" on="0"/>
        <pt x="258" y="81" on="1"/>
        <pt x="283" y="81" on="0"/>
        <pt x="307" y="82" on="0"/>
        <pt x="335" y="86" on="0"/>
        <pt x="346" y="95" on="0"/>
        <pt x="354" y="111" on="0"/>
      </contour>
      <contour>
        <pt x="432" y="553" on="1"/>
        <pt x="334" y="553" on="1"/>
        <pt x="281" y="640" on="1"/>
        <pt x="229" y="553" on="1"/>
        <pt x="131" y="553" on="1"/>
        <pt x="187" y="680" on="1"/>
        <pt x="374" y="680" on="1"/>
      </contour>
    </TTGlyph>
    <TTGlyph name="acircumflex.smcp" xMin="-6" yMin="0" xMax="584" yMax="680">
      <contour>
        <pt x="-6" y="0" on="1"/>
        <pt x="212" y="484" on="1"/>
        <pt x="360" y="484" on="1"/>
        <pt x="584" y="0" on="1"/>
        <pt x="429" y="0" on="1"/>
        <pt x="392" y="90" on="1"/>
        <pt x="177" y="90" on="1"/>
        <pt x="141" y="0" on="1"/>
      </contour>
      <contour>
        <pt x="283" y="355" on="1"/>
        <pt x="214" y="183" on="1"/>
        <pt x="353" y="183" on="1"/>
      </contour>
      <contour>
        <pt x="442" y="553" on="1"/>
        <pt x="344" y="553" on="1"/>
        <pt x="291" y="640" on="1"/>
        <pt x="239" y="553" on="1"/>
        <pt x="141" y="553" on="1"/>
        <pt x="197" y="680" on="1"/>
        <pt x="384" y="680" on="1"/>
      </contour>
    </TTGlyph>
    <TTGlyph name="acute" xMin="75" yMin="553" xMax="324" yMax="680">
      <contour>
        <pt x="324" y="680" on="1"/>
        <pt x="199" y="553" on="1"/>
        <pt x="75" y="553" on="1"/>
        <pt x="165" y="680" on="1"/>
      </contour>
    </TTGlyph>
    <TTGlyph name="acute.cap" xMin="75" yMin="713" xMax="324" yMax="840">
      <contour>
        <pt x="324" y="840" on="1"/>
        <pt x="199" y="713" on="1"/>
        <pt x="75" y="713" on="1"/>
        <pt x="165" y="840" on="1"/>
      </contour>
    </TTGlyph>
    <TTGlyph name="adieresis" xMin="39" yMin="-10" xMax="500" yMax="683">
      <contour>
        <pt x="500" y="0" on="1"/>
        <pt x="357" y="0" on="1"/>
        <pt x="357" y="44" on="1"/>
        <pt x="341" y="15" on="0"/>
        <pt x="281" y="-10" on="0"/>
        <pt x="201" y="-10" on="1"/>
        <pt x="103" y="-10" on="0"/>
        <pt x="39" y="50" on="0"/>
        <pt x="39" y="145" on="1"/>
        <pt x="39" y="231" on="0"/>
        <pt x="105" y="298" on="0"/>
        <pt x="190" y="298" on="1"/>
        <pt x="354" y="298" on="1"/>
        <pt x="354" y="331" on="1"/>
        <pt x="354" y="375" on="0"/>
        <pt x="313" y="404" on="0"/>
        <pt x="247" y="404" on="1"/>
        <pt x="185" y="404" on="0"/>
        <pt x="77" y="392" on="1"/>
        <pt x="77" y="484" on="1"/>
        <pt x="160" y="494" on="0"/>
        <pt x="262" y="494" on="1"/>
        <pt x="396" y="494" on="0"/>
        <pt x="500" y="429" on="0"/>
        <pt x="500" y="333" on="1"/>
      </contour>
      <contour>
        <pt x="354" y="124" on="1"/>
        <pt x="354" y="218" on="1"/>
        <pt x="254" y="218" on="1"/>
        <pt x="206" y="218" on="0"/>
        <pt x="182" y="196" on="0"/>
        <pt x="182" y="148" on="1"/>
        <pt x="182" y="101" on="0"/>
        <pt x="207" y="81" on="0"/>
        <pt x="258" y="81" on="1"/>
        <pt x="283" y="81" on="0"/>
        <pt x="307" y="82" on="0"/>
        <pt x="335" y="86" on="0"/>
        <pt x="346" y="95" on="0"/>
        <pt x="354" y="111" on="0"/>
      </contour>
      <contour>
        <pt x="440" y="565" on="1"/>
        <pt x="314" y="565" on="1"/>
        <pt x="314" y="683" on="1"/>
        <pt x="440" y="683" on="1"/>
      </contour>
      <contour>
        <pt x="250" y="565" on="1"/>
        <pt x="124" y="565" on="1"/>
        <pt x="124" y="683" on="1"/>
        <pt x="250" y="683" on="1"/>
      </contour>
    </TTGlyph>
    <TTGlyph name="adieresis.smcp" xMin="-6" yMin="0" xMax="584" yMax="683">
      <contour>
        <pt x="-6" y="0" on="1"/>
        <pt x="212" y="484" on="1"/>
        <pt x="360" y="484" on="1"/>
        <pt x="584" y="0" on="1"/>
        <pt x="429" y="0" on="1"/>
        <pt x="392" y="90" on="1"/>
        <pt x="177" y="90" on="1"/>
        <pt x="141" y="0" on="1"/>
      </contour>
      <contour>
        <pt x="283" y="355" on="1"/>
        <pt x="214" y="183" on="1"/>
        <pt x="353" y="183" on="1"/>
      </contour>
      <contour>
        <pt x="449" y="565" on="1"/>
        <pt x="323" y="565" on="1"/>
        <pt x="323" y="683" on="1"/>
        <pt x="449" y="683" on="1"/>
      </contour>
      <contour>
        <pt x="259" y="565" on="1"/>
        <pt x="133" y="565" on="1"/>
        <pt x="133" y="683" on="1"/>
        <pt x="259" y="683" on="1"/>
      </contour>
    </TTGlyph>
    <TTGlyph name="ae" xMin="39" yMin="-10" xMax="797" yMax="494">
      <contour>
        <pt x="797" y="203" on="1"/>
        <pt x="488" y="203" on="1"/>
        <pt x="488" y="159" on="1"/>
        <pt x="488" y="118" on="0"/>
        <pt x="544" y="81" on="0"/>
        <pt x="624" y="81" on="1"/>
        <pt x="694" y="81" on="0"/>
        <pt x="784" y="102" on="1"/>
        <pt x="784" y="9" on="1"/>
        <pt x="692" y="-10" on="0"/>
        <pt x="596" y="-10" on="1"/>
        <pt x="422" y="-10" on="0"/>
        <pt x="374" y="67" on="1"/>
        <pt x="351" y="22" on="0"/>
        <pt x="284" y="-10" on="0"/>
        <pt x="201" y="-10" on="1"/>
        <pt x="103" y="-10" on="0"/>
        <pt x="39" y="50" on="0"/>
        <pt x="39" y="145" on="1"/>
        <pt x="39" y="231" on="0"/>
        <pt x="105" y="298" on="0"/>
        <pt x="190" y="298" on="1"/>
        <pt x="354" y="298" on="1"/>
        <pt x="354" y="331" on="1"/>
        <pt x="354" y="375" on="0"/>
        <pt x="313" y="404" on="0"/>
        <pt x="247" y="404" on="1"/>
        <pt x="185" y="404" on="0"/>
        <pt x="77" y="392" on="1"/>
        <pt x="77" y="484" on="1"/>
        <pt x="160" y="494" on="0"/>
        <pt x="262" y="494" on="1"/>
        <pt x="374" y="494" on="0"/>
        <pt x="423" y="463" on="1"/>
        <pt x="475" y="494" on="0"/>
        <pt x="578" y="494" on="1"/>
        <pt x="689" y="494" on="0"/>
        <pt x="797" y="418" on="0"/>
        <pt x="797" y="321" on="1"/>
      </contour>
      <contour>
        <pt x="354" y="124" on="1"/>
        <pt x="354" y="218" on="1"/>
        <pt x="254" y="218" on="1"/>
        <pt x="206" y="218" on="0"/>
        <pt x="182" y="196" on="0"/>
        <pt x="182" y="148" on="1"/>
        <pt x="182" y="101" on="0"/>
        <pt x="207" y="81" on="0"/>
        <pt x="258" y="81" on="1"/>
        <pt x="283" y="81" on="0"/>
        <pt x="307" y="82" on="0"/>
        <pt x="335" y="86" on="0"/>
        <pt x="346" y="95" on="0"/>
        <pt x="354" y="111" on="0"/>
      </contour>
      <contour>
        <pt x="659" y="286" on="1"/>
        <pt x="659" y="356" on="1"/>
        <pt x="659" y="380" on="0"/>
        <pt x="624" y="404" on="0"/>
        <pt x="576" y="404" on="1"/>
        <pt x="523" y="404" on="0"/>
        <pt x="488" y="380" on="0"/>
        <pt x="488" y="356" on="1"/>
        <pt x="488" y="286" on="1"/>
      </contour>
    </TTGlyph>
    <TTGlyph name="ae.smcp" xMin="-6" yMin="0" xMax="805" yMax="484">
      <contour>
        <pt x="805" y="0" on="1"/>
        <pt x="395" y="0" on="1"/>
        <pt x="395" y="100" on="1"/>
        <pt x="188" y="100" on="1"/>
        <pt x="141" y="0" on="1"/>
        <pt x="-6" y="0" on="1"/>
        <pt x="232" y="484" on="1"/>
        <pt x="795" y="484" on="1"/>
        <pt x="795" y="394" on="1"/>
        <pt x="540" y="394" on="1"/>
        <pt x="540" y="295" on="1"/>
        <pt x="762" y="295" on="1"/>
        <pt x="762" y="205" on="1"/>
        <pt x="540" y="205" on="1"/>
        <pt x="540" y="90" on="1"/>
        <pt x="805" y="90" on="1"/>
      </contour>
      <contour>
        <pt x="328" y="394" on="1"/>
        <pt x="233" y="195" on="1"/>
        <pt x="395" y="195" on="1"/>
        <pt x="395" y="394" on="1"/>
      </contour>
    </TTGlyph>
    <TTGlyph name="afii10017" xMin="2" yMin="0" xMax="666" yMax="649">
      <contour>
        <pt x="666" y="0" on="1"/>
        <pt x="508" y="0" on="1"/>
        <pt x="450" y="171" on="1"/>
        <pt x="213" y="171" on="1"/>
        <pt x="156" y="0" on="1"/>
        <pt x="2" y="0" on="1"/>
        <pt x="242" y="649" on="1"/>
        <pt x="432" y="649" on="1"/>
      </contour>
      <contour>
        <pt x="416" y="275" on="1"/>
        <pt x="334" y="519" on="1"/>
        <pt x="330" y="519" on="1"/>
        <pt x="248" y="275" on="1"/>
      </contour>
    </TTGlyph>
    <TTGlyph name="afii10018" xMin="70" yMin="0" xMax="622" yMax="649">
      <contour>
        <pt x="575" y="538" on="1"/>
        <pt x="226" y="538" on="1"/>
        <pt x="226" y="404" on="1"/>
        <pt x="342" y="404" on="1"/>
        <pt x="381" y="404" on="0"/>
        <pt x="426" y="403" on="0"/>
        <pt x="494" y="398" on="0"/>
        <pt x="533" y="388" on="0"/>
        <pt x="580" y="368" on="0"/>
        <pt x="605" y="339" on="0"/>
        <pt x="622" y="296" on="0"/>
        <pt x="622" y="268" on="1"/>
        <pt x="622" y="154" on="1"/>
        <pt x="622" y="0" on="0"/>
        <pt x="360" y="0" on="1"/>
        <pt x="70" y="0" on="1"/>
        <pt x="70" y="649" on="1"/>
        <pt x="575" y="649" on="1"/>
      </contour>
      <contour>
        <pt x="466" y="178" on="1"/>
        <pt x="466" y="239" on="1"/>
        <pt x="466" y="271" on="0"/>
        <pt x="411" y="292" on="0"/>
        <pt x="355" y="292" on="1"/>
        <pt x="226" y="292" on="1"/>
        <pt x="226" y="111" on="1"/>
        <pt x="353" y="111" on="1"/>
        <pt x="414" y="111" on="0"/>
        <pt x="466" y="145" on="0"/>
      </contour>
    </TTGlyph>
    <TTGlyph name="afii10019" xMin="70" yMin="0" xMax="598" yMax="649">
      <contour>
        <pt x="598" y="245" on="1"/>
        <pt x="598" y="145" on="1"/>
        <pt x="598" y="64" on="0"/>
        <pt x="468" y="0" on="0"/>
        <pt x="340" y="0" on="1"/>
        <pt x="70" y="0" on="1"/>
        <pt x="70" y="649" on="1"/>
        <pt x="333" y="649" on="1"/>
        <pt x="471" y="649" on="0"/>
        <pt x="569" y="587" on="0"/>
        <pt x="569" y="510" on="1"/>
        <pt x="569" y="430" on="1"/>
        <pt x="569" y="402" on="0"/>
        <pt x="525" y="354" on="0"/>
        <pt x="497" y="346" on="1"/>
        <pt x="497" y="341" on="1"/>
        <pt x="533" y="337" on="0"/>
        <pt x="598" y="281" on="0"/>
      </contour>
      <contour>
        <pt x="419" y="450" on="1"/>
        <pt x="419" y="482" on="1"/>
        <pt x="419" y="514" on="0"/>
        <pt x="389" y="538" on="0"/>
        <pt x="330" y="538" on="1"/>
        <pt x="226" y="538" on="1"/>
        <pt x="226" y="385" on="1"/>
        <pt x="333" y="385" on="1"/>
        <pt x="388" y="385" on="0"/>
        <pt x="419" y="413" on="0"/>
      </contour>
      <contour>
        <pt x="442" y="166" on="1"/>
        <pt x="442" y="218" on="1"/>
        <pt x="442" y="254" on="0"/>
        <pt x="405" y="284" on="0"/>
        <pt x="358" y="284" on="1"/>
        <pt x="226" y="284" on="1"/>
        <pt x="226" y="111" on="1"/>
        <pt x="337" y="111" on="1"/>
        <pt x="394" y="111" on="0"/>
        <pt x="442" y="137" on="0"/>
      </contour>
    </TTGlyph>
    <TTGlyph name="afii10020" xMin="70" yMin="0" xMax="495" yMax="649">
      <contour>
        <pt x="495" y="538" on="1"/>
        <pt x="226" y="538" on="1"/>
        <pt x="226" y="0" on="1"/>
        <pt x="70" y="0" on="1"/>
        <pt x="70" y="649" on="1"/>
        <pt x="495" y="649" on="1"/>
      </contour>
    </TTGlyph>
    <TTGlyph name="afii10021" xMin="22" yMin="-166" xMax="674" yMax="649">
      <contour>
        <pt x="164" y="649" on="1"/>
        <pt x="610" y="649" on="1"/>
        <pt x="610" y="111" on="1"/>
        <pt x="674" y="111" on="1"/>
        <pt x="674" y="-166" on="1"/>
        <pt x="533" y="-166" on="1"/>
        <pt x="533" y="0" on="1"/>
        <pt x="163" y="0" on="1"/>
        <pt x="163" y="-166" on="1"/>
        <pt x="22" y="-166" on="1"/>
        <pt x="22" y="111" on="1"/>
        <pt x="78" y="111" on="1"/>
        <pt x="125" y="182" on="0"/>
        <pt x="164" y="358" on="0"/>
        <pt x="164" y="544" on="1"/>
      </contour>
      <contour>
        <pt x="455" y="538" on="1"/>
        <pt x="315" y="538" on="1"/>
        <pt x="315" y="488" on="1"/>
        <pt x="315" y="238" on="0"/>
        <pt x="245" y="111" on="1"/>
        <pt x="455" y="111" on="1"/>
      </contour>
    </TTGlyph>
    <TTGlyph name="afii10022" xMin="70" yMin="0" xMax="575" yMax="649">
      <contour>
        <pt x="575" y="0" on="1"/>
        <pt x="70" y="0" on="1"/>
        <pt x="70" y="649" on="1"/>
        <pt x="565" y="649" on="1"/>
        <pt x="565" y="538" on="1"/>
        <pt x="226" y="538" on="1"/>
        <pt x="226" y="389" on="1"/>
        <pt x="532" y="389" on="1"/>
        <pt x="532" y="278" on="1"/>
        <pt x="226" y="278" on="1"/>
        <pt x="226" y="111" on="1"/>
        <pt x="575" y="111" on="1"/>
      </contour>
    </TTGlyph>
    <TTGlyph name="afii10023" xMin="70" yMin="0" xMax="575" yMax="848">
      <contour>
        <pt x="575" y="0" on="1"/>
        <pt x="70" y="0" on="1"/>
        <pt x="70" y="649" on="1"/>
        <pt x="565" y="649" on="1"/>
        <pt x="565" y="538" on="1"/>
        <pt x="226" y="538" on="1"/>
        <pt x="226" y="389" on="1"/>
        <pt x="532" y="389" on="1"/>
        <pt x="532" y="278" on="1"/>
        <pt x="226" y="278" on="1"/>
        <pt x="226" y="111" on="1"/>
        <pt x="575" y="111" on="1"/>
      </contour>
      <contour>
        <pt x="463" y="730" on="1"/>
        <pt x="337" y="730" on="1"/>
        <pt x="337" y="848" on="1"/>
        <pt x="463" y="848" on="1"/>
      </contour>
      <contour>
        <pt x="273" y="730" on="1"/>
        <pt x="147" y="730" on="1"/>
        <pt x="147" y="848" on="1"/>
        <pt x="273" y="848" on="1"/>
      </contour>
    </TTGlyph>
    <TTGlyph name="afii10024" xMin="-6" yMin="0" xMax="1021" yMax="649">
      <contour>
        <pt x="581" y="649" on="1"/>
        <pt x="581" y="390" on="1"/>
        <pt x="616" y="390" on="0"/>
        <pt x="639" y="403" on="0"/>
        <pt x="654" y="427" on="1"/>
        <pt x="723" y="541" on="1"/>
        <pt x="765" y="610" on="0"/>
        <pt x="834" y="649" on="0"/>
        <pt x="916" y="649" on="1"/>
        <pt x="987" y="649" on="1"/>
        <pt x="987" y="538" on="1"/>
        <pt x="946" y="538" on="1"/>
        <pt x="896" y="538" on="0"/>
        <pt x="868" y="523" on="0"/>
        <pt x="845" y="486" on="1"/>
        <pt x="805" y="421" on="1"/>
        <pt x="786" y="391" on="0"/>
        <pt x="755" y="364" on="0"/>
        <pt x="732" y="355" on="1"/>
        <pt x="757" y="349" on="0"/>
        <pt x="837" y="275" on="0"/>
        <pt x="879" y="212" on="1"/>
        <pt x="1021" y="0" on="1"/>
        <pt x="840" y="0" on="1"/>
        <pt x="716" y="191" on="1"/>
        <pt x="676" y="253" on="0"/>
        <pt x="630" y="282" on="0"/>
        <pt x="581" y="282" on="1"/>
        <pt x="581" y="0" on="1"/>
        <pt x="434" y="0" on="1"/>
        <pt x="434" y="282" on="1"/>
        <pt x="385" y="282" on="0"/>
        <pt x="339" y="253" on="0"/>
        <pt x="299" y="191" on="1"/>
        <pt x="175" y="0" on="1"/>
        <pt x="-6" y="0" on="1"/>
        <pt x="136" y="212" on="1"/>
        <pt x="178" y="275" on="0"/>
        <pt x="258" y="349" on="0"/>
        <pt x="283" y="355" on="1"/>
        <pt x="260" y="364" on="0"/>
        <pt x="229" y="391" on="0"/>
        <pt x="210" y="421" on="1"/>
        <pt x="170" y="486" on="1"/>
        <pt x="147" y="523" on="0"/>
        <pt x="119" y="538" on="0"/>
        <pt x="69" y="538" on="1"/>
        <pt x="28" y="538" on="1"/>
        <pt x="28" y="649" on="1"/>
        <pt x="99" y="649" on="1"/>
        <pt x="181" y="649" on="0"/>
        <pt x="250" y="610" on="0"/>
        <pt x="292" y="541" on="1"/>
        <pt x="361" y="427" on="1"/>
        <pt x="376" y="403" on="0"/>
        <pt x="399" y="390" on="0"/>
        <pt x="434" y="390" on="1"/>
        <pt x="434" y="649" on="1"/>
      </contour>
    </TTGlyph>
    <TTGlyph name="afii10025" xMin="40" yMin="-10" xMax="538" yMax="659">
      <contour>
        <pt x="538" y="251" on="1"/>
        <pt x="538" y="144" on="1"/>
        <pt x="538" y="-10" on="0"/>
        <pt x="278" y="-10" on="1"/>
        <pt x="153" y="-10" on="0"/>
        <pt x="40" y="8" on="1"/>
        <pt x="40" y="127" on="1"/>
        <pt x="172" y="101" on="0"/>
        <pt x="259" y="101" on="1"/>
        <pt x="322" y="101" on="0"/>
        <pt x="382" y="130" on="0"/>
        <pt x="382" y="153" on="1"/>
        <pt x="382" y="228" on="1"/>
        <pt x="382" y="256" on="0"/>
        <pt x="328" y="277" on="0"/>
        <pt x="261" y="277" on="1"/>
        <pt x="123" y="277" on="1"/>
        <pt x="123" y="388" on="1"/>
        <pt x="261" y="388" on="1"/>
        <pt x="314" y="388" on="0"/>
        <pt x="359" y="410" on="0"/>
        <pt x="359" y="436" on="1"/>
        <pt x="359" y="497" on="1"/>
        <pt x="359" y="525" on="0"/>
        <pt x="310" y="548" on="0"/>
        <pt x="242" y="548" on="1"/>
        <pt x="230" y="548" on="0"/>
        <pt x="52" y="536" on="1"/>
        <pt x="52" y="650" on="1"/>
        <pt x="189" y="659" on="0"/>
        <pt x="258" y="659" on="1"/>
        <pt x="380" y="659" on="0"/>
        <pt x="512" y="604" on="0"/>
        <pt x="512" y="532" on="1"/>
        <pt x="512" y="425" on="1"/>
        <pt x="512" y="395" on="0"/>
        <pt x="473" y="355" on="0"/>
        <pt x="447" y="348" on="1"/>
        <pt x="538" y="315" on="0"/>
      </contour>
    </TTGlyph>
    <TTGlyph name="afii10026" xMin="70" yMin="0" xMax="681" yMax="649">
      <contour>
        <pt x="238" y="0" on="1"/>
        <pt x="70" y="0" on="1"/>
        <pt x="70" y="649" on="1"/>
        <pt x="219" y="649" on="1"/>
        <pt x="219" y="196" on="1"/>
        <pt x="513" y="649" on="1"/>
        <pt x="681" y="649" on="1"/>
        <pt x="681" y="0" on="1"/>
        <pt x="532" y="0" on="1"/>
        <pt x="532" y="460" on="1"/>
      </contour>
    </TTGlyph>
    <TTGlyph name="afii10027" xMin="70" yMin="0" xMax="681" yMax="845">
      <contour>
        <pt x="238" y="0" on="1"/>
        <pt x="70" y="0" on="1"/>
        <pt x="70" y="649" on="1"/>
        <pt x="219" y="649" on="1"/>
        <pt x="219" y="196" on="1"/>
        <pt x="513" y="649" on="1"/>
        <pt x="681" y="649" on="1"/>
        <pt x="681" y="0" on="1"/>
        <pt x="532" y="0" on="1"/>
        <pt x="532" y="460" on="1"/>
      </contour>
      <contour>
        <pt x="513" y="845" on="1"/>
        <pt x="509" y="788" on="0"/>
        <pt x="436" y="718" on="0"/>
        <pt x="375" y="718" on="1"/>
        <pt x="313" y="718" on="0"/>
        <pt x="240" y="788" on="0"/>
        <pt x="237" y="845" on="1"/>
        <pt x="318" y="845" on="1"/>
        <pt x="324" y="816" on="0"/>
        <pt x="348" y="790" on="0"/>
        <pt x="375" y="790" on="1"/>
        <pt x="425" y="790" on="0"/>
        <pt x="431" y="845" on="1"/>
      </contour>
    </TTGlyph>
    <TTGlyph name="afii10028" xMin="70" yMin="0" xMax="673" yMax="649">
      <contour>
        <pt x="70" y="0" on="1"/>
        <pt x="70" y="649" on="1"/>
        <pt x="223" y="649" on="1"/>
        <pt x="223" y="390" on="1"/>
        <pt x="260" y="390" on="0"/>
        <pt x="292" y="404" on="0"/>
        <pt x="306" y="427" on="1"/>
        <pt x="375" y="541" on="1"/>
        <pt x="417" y="610" on="0"/>
        <pt x="486" y="649" on="0"/>
        <pt x="568" y="649" on="1"/>
        <pt x="639" y="649" on="1"/>
        <pt x="639" y="538" on="1"/>
        <pt x="598" y="538" on="1"/>
        <pt x="548" y="538" on="0"/>
        <pt x="520" y="523" on="0"/>
        <pt x="497" y="486" on="1"/>
        <pt x="457" y="421" on="1"/>
        <pt x="438" y="391" on="0"/>
        <pt x="407" y="364" on="0"/>
        <pt x="384" y="355" on="1"/>
        <pt x="409" y="349" on="0"/>
        <pt x="489" y="275" on="0"/>
        <pt x="531" y="212" on="1"/>
        <pt x="673" y="0" on="1"/>
        <pt x="492" y="0" on="1"/>
        <pt x="368" y="191" on="1"/>
        <pt x="329" y="251" on="0"/>
        <pt x="274" y="282" on="0"/>
        <pt x="223" y="282" on="1"/>
        <pt x="223" y="0" on="1"/>
      </contour>
    </TTGlyph>
    <TTGlyph name="afii10029" xMin="20" yMin="-7" xMax="691" yMax="649">
      <contour>
        <pt x="133" y="649" on="1"/>
        <pt x="691" y="649" on="1"/>
        <pt x="691" y="0" on="1"/>
        <pt x="535" y="0" on="1"/>
        <pt x="535" y="538" on="1"/>
        <pt x="289" y="538" on="1"/>
        <pt x="289" y="141" on="1"/>
        <pt x="289" y="102" on="0"/>
        <pt x="268" y="46" on="0"/>
        <pt x="237" y="15" on="0"/>
        <pt x="184" y="-2" on="0"/>
        <pt x="136" y="-7" on="0"/>
        <pt x="101" y="-7" on="1"/>
        <pt x="45" y="-7" on="0"/>
        <pt x="20" y="-2" on="1"/>
        <pt x="20" y="100" on="1"/>
        <pt x="38" y="95" on="0"/>
        <pt x="72" y="95" on="1"/>
        <pt x="133" y="95" on="0"/>
        <pt x="133" y="161" on="1"/>
      </contour>
    </TTGlyph>
    <TTGlyph name="afii10030" xMin="70" yMin="0" xMax="819" yMax="649">
      <contour>
        <pt x="819" y="0" on="1"/>
        <pt x="678" y="0" on="1"/>
        <pt x="678" y="480" on="1"/>
        <pt x="675" y="480" on="1"/>
        <pt x="511" y="0" on="1"/>
        <pt x="386" y="0" on="1"/>
        <pt x="217" y="480" on="1"/>
        <pt x="213" y="480" on="1"/>
        <pt x="213" y="0" on="1"/>
        <pt x="70" y="0" on="1"/>
        <pt x="70" y="649" on="1"/>
        <pt x="292" y="649" on="1"/>
        <pt x="452" y="185" on="1"/>
        <pt x="610" y="649" on="1"/>
        <pt x="819" y="649" on="1"/>
      </contour>
    </TTGlyph>
    <TTGlyph name="afii10031" xMin="70" yMin="0" xMax="658" yMax="649">
      <contour>
        <pt x="658" y="0" on="1"/>
        <pt x="502" y="0" on="1"/>
        <pt x="502" y="278" on="1"/>
        <pt x="226" y="278" on="1"/>
        <pt x="226" y="0" on="1"/>
        <pt x="70" y="0" on="1"/>
        <pt x="70" y="649" on="1"/>
        <pt x="226" y="649" on="1"/>
        <pt x="226" y="389" on="1"/>
        <pt x="502" y="389" on="1"/>
        <pt x="502" y="649" on="1"/>
        <pt x="658" y="649" on="1"/>
      </contour>
    </TTGlyph>
    <TTGlyph name="afii10032" xMin="56" yMin="-10" xMax="672" yMax="659">
      <contour>
        <pt x="672" y="462" on="1"/>
        <pt x="672" y="178" on="1"/>
        <pt x="672" y="123" on="0"/>
        <pt x="614" y="45" on="0"/>
        <pt x="516" y="6" on="0"/>
        <pt x="418" y="-10" on="0"/>
        <pt x="363" y="-10" on="1"/>
        <pt x="311" y="-10" on="0"/>
        <pt x="220" y="3" on="0"/>
        <pt x="117" y="39" on="0"/>
        <pt x="56" y="119" on="0"/>
        <pt x="56" y="178" on="1"/>
        <pt x="56" y="462" on="1"/>
        <pt x="56" y="512" on="0"/>
        <pt x="101" y="588" on="0"/>
        <pt x="164" y="628" on="0"/>
        <pt x="254" y="653" on="0"/>
        <pt x="324" y="659" on="0"/>
        <pt x="363" y="659" on="1"/>
        <pt x="403" y="659" on="0"/>
        <pt x="474" y="653" on="0"/>
        <pt x="564" y="628" on="0"/>
        <pt x="628" y="588" on="0"/>
        <pt x="672" y="513" on="0"/>
      </contour>
      <contour>
        <pt x="516" y="178" on="1"/>
        <pt x="516" y="463" on="1"/>
        <pt x="516" y="510" on="0"/>
        <pt x="439" y="548" on="0"/>
        <pt x="364" y="548" on="1"/>
        <pt x="288" y="548" on="0"/>
        <pt x="212" y="511" on="0"/>
        <pt x="212" y="463" on="1"/>
        <pt x="212" y="178" on="1"/>
        <pt x="212" y="153" on="0"/>
        <pt x="238" y="120" on="0"/>
        <pt x="287" y="106" on="0"/>
        <pt x="332" y="101" on="0"/>
        <pt x="398" y="101" on="0"/>
        <pt x="443" y="106" on="0"/>
        <pt x="491" y="120" on="0"/>
        <pt x="516" y="153" on="0"/>
      </contour>
    </TTGlyph>
    <TTGlyph name="afii10033" xMin="70" yMin="0" xMax="652" yMax="649">
      <contour>
        <pt x="652" y="0" on="1"/>
        <pt x="496" y="0" on="1"/>
        <pt x="496" y="538" on="1"/>
        <pt x="226" y="538" on="1"/>
        <pt x="226" y="0" on="1"/>
        <pt x="70" y="0" on="1"/>
        <pt x="70" y="649" on="1"/>
        <pt x="652" y="649" on="1"/>
      </contour>
    </TTGlyph>
    <TTGlyph name="afii10034" xMin="70" yMin="0" xMax="587" yMax="649">
      <contour>
        <pt x="587" y="500" on="1"/>
        <pt x="587" y="377" on="1"/>
        <pt x="587" y="281" on="0"/>
        <pt x="459" y="211" on="0"/>
        <pt x="312" y="211" on="1"/>
        <pt x="226" y="211" on="1"/>
        <pt x="226" y="0" on="1"/>
        <pt x="70" y="0" on="1"/>
        <pt x="70" y="649" on="1"/>
        <pt x="330" y="649" on="1"/>
        <pt x="468" y="649" on="0"/>
        <pt x="587" y="588" on="0"/>
      </contour>
      <contour>
        <pt x="436" y="382" on="1"/>
        <pt x="436" y="486" on="1"/>
        <pt x="436" y="517" on="0"/>
        <pt x="388" y="538" on="0"/>
        <pt x="323" y="538" on="1"/>
        <pt x="226" y="538" on="1"/>
        <pt x="226" y="318" on="1"/>
        <pt x="325" y="318" on="1"/>
        <pt x="386" y="318" on="0"/>
        <pt x="436" y="347" on="0"/>
      </contour>
    </TTGlyph>
    <TTGlyph name="afii10035" xMin="56" yMin="-10" xMax="567" yMax="659">
      <contour>
        <pt x="567" y="12" on="1"/>
        <pt x="457" y="-10" on="0"/>
        <pt x="357" y="-10" on="1"/>
        <pt x="317" y="-10" on="0"/>
        <pt x="246" y="-3" on="0"/>
        <pt x="159" y="20" on="0"/>
        <pt x="98" y="59" on="0"/>
        <pt x="56" y="130" on="0"/>
        <pt x="56" y="178" on="1"/>
        <pt x="56" y="463" on="1"/>
        <pt x="56" y="659" on="0"/>
        <pt x="357" y="659" on="1"/>
        <pt x="431" y="659" on="0"/>
        <pt x="563" y="637" on="1"/>
        <pt x="563" y="520" on="1"/>
        <pt x="444" y="548" on="0"/>
        <pt x="359" y="548" on="1"/>
        <pt x="325" y="548" on="0"/>
        <pt x="282" y="544" on="0"/>
        <pt x="235" y="528" on="0"/>
        <pt x="212" y="493" on="0"/>
        <pt x="212" y="465" on="1"/>
        <pt x="212" y="189" on="1"/>
        <pt x="212" y="101" on="0"/>
        <pt x="373" y="101" on="1"/>
        <pt x="444" y="101" on="0"/>
        <pt x="567" y="130" on="1"/>
      </contour>
    </TTGlyph>
    <TTGlyph name="afii10036" xMin="20" yMin="0" xMax="575" yMax="649">
      <contour>
        <pt x="575" y="538" on="1"/>
        <pt x="376" y="538" on="1"/>
        <pt x="376" y="0" on="1"/>
        <pt x="220" y="0" on="1"/>
        <pt x="220" y="538" on="1"/>
        <pt x="20" y="538" on="1"/>
        <pt x="20" y="649" on="1"/>
        <pt x="575" y="649" on="1"/>
      </contour>
    </TTGlyph>
    <TTGlyph name="afii10037" xMin="10" yMin="-10" xMax="626" yMax="649">
      <contour>
        <pt x="626" y="649" on="1"/>
        <pt x="378" y="128" on="1"/>
        <pt x="345" y="58" on="0"/>
        <pt x="251" y="-10" on="0"/>
        <pt x="169" y="-10" on="1"/>
        <pt x="123" y="-10" on="0"/>
        <pt x="69" y="0" on="1"/>
        <pt x="69" y="114" on="1"/>
        <pt x="112" y="101" on="0"/>
        <pt x="142" y="101" on="1"/>
        <pt x="206" y="101" on="0"/>
        <pt x="232" y="157" on="1"/>
        <pt x="259" y="214" on="1"/>
        <pt x="10" y="649" on="1"/>
        <pt x="169" y="649" on="1"/>
        <pt x="335" y="356" on="1"/>
        <pt x="467" y="649" on="1"/>
      </contour>
    </TTGlyph>
    <TTGlyph name="afii10038" xMin="50" yMin="0" xMax="706" yMax="649">
      <contour>
        <pt x="452" y="0" on="1"/>
        <pt x="304" y="0" on="1"/>
        <pt x="304" y="63" on="1"/>
        <pt x="237" y="63" on="0"/>
        <pt x="127" y="97" on="0"/>
        <pt x="50" y="184" on="0"/>
        <pt x="50" y="248" on="1"/>
        <pt x="50" y="392" on="1"/>
        <pt x="50" y="459" on="0"/>
        <pt x="130" y="550" on="0"/>
        <pt x="240" y="585" on="0"/>
        <pt x="304" y="585" on="1"/>
        <pt x="304" y="649" on="1"/>
        <pt x="452" y="649" on="1"/>
        <pt x="452" y="585" on="1"/>
        <pt x="516" y="585" on="0"/>
        <pt x="626" y="550" on="0"/>
        <pt x="706" y="459" on="0"/>
        <pt x="706" y="392" on="1"/>
        <pt x="706" y="248" on="1"/>
        <pt x="706" y="188" on="0"/>
        <pt x="628" y="101" on="0"/>
        <pt x="516" y="63" on="0"/>
        <pt x="452" y="63" on="1"/>
      </contour>
      <contour>
        <pt x="550" y="244" on="1"/>
        <pt x="550" y="398" on="1"/>
        <pt x="550" y="434" on="0"/>
        <pt x="497" y="478" on="0"/>
        <pt x="452" y="478" on="1"/>
        <pt x="452" y="170" on="1"/>
        <pt x="495" y="170" on="0"/>
        <pt x="550" y="209" on="0"/>
      </contour>
      <contour>
        <pt x="206" y="244" on="1"/>
        <pt x="206" y="209" on="0"/>
        <pt x="262" y="171" on="0"/>
        <pt x="304" y="171" on="1"/>
        <pt x="304" y="478" on="1"/>
        <pt x="260" y="478" on="0"/>
        <pt x="206" y="434" on="0"/>
        <pt x="206" y="398" on="1"/>
      </contour>
    </TTGlyph>
    <TTGlyph name="afii10039" xMin="10" yMin="0" xMax="668" yMax="649">
      <contour>
        <pt x="668" y="0" on="1"/>
        <pt x="487" y="0" on="1"/>
        <pt x="339" y="230" on="1"/>
        <pt x="190" y="0" on="1"/>
        <pt x="10" y="0" on="1"/>
        <pt x="249" y="331" on="1"/>
        <pt x="20" y="649" on="1"/>
        <pt x="200" y="649" on="1"/>
        <pt x="339" y="433" on="1"/>
        <pt x="477" y="649" on="1"/>
        <pt x="657" y="649" on="1"/>
        <pt x="428" y="331" on="1"/>
      </contour>
    </TTGlyph>
    <TTGlyph name="afii10040" xMin="70" yMin="-166" xMax="658" yMax="649">
      <contour>
        <pt x="502" y="-166" on="1"/>
        <pt x="502" y="0" on="1"/>
        <pt x="70" y="0" on="1"/>
        <pt x="70" y="649" on="1"/>
        <pt x="226" y="649" on="1"/>
        <pt x="226" y="111" on="1"/>
        <pt x="502" y="111" on="1"/>
        <pt x="502" y="649" on="1"/>
        <pt x="658" y="649" on="1"/>
        <pt x="658" y="-166" on="1"/>
      </contour>
    </TTGlyph>
</ttFont>
